%
M48
M72
T01C0.03150
T02C0.03543
T03C0.04331
T04C0.04724
T05C0.05500
T06C0.12598
T07C0.12795
%
T01
X69839Y96177
X79839Y96177
X79839Y106177
X69839Y106177
X69839Y116177
X79839Y116177
X79839Y126177
X69839Y126177
X69839Y136177
X79839Y136177
X79839Y146177
X69839Y146177
X89839Y166177
X99839Y166177
X109839Y166177
X119839Y166177
X129839Y166177
X139839Y166177
X149839Y166177
X159839Y166177
X169839Y166177
X169839Y156177
X159839Y156177
X149839Y156177
X139839Y156177
X129839Y156177
X129839Y146177
X139839Y146177
X149839Y146177
X159839Y146177
T02
X161138Y122732
X171138Y117732
X161138Y112732
X171138Y107732
T03
X119288Y108343
X119288Y122122
X119288Y135902
X119288Y94563
T04
X134642Y100232
X134642Y110232
X134642Y120232
X134642Y130232
T05
X103146Y125232
X103146Y105232
X103146Y85232
X103146Y145232
T06
X71650Y67988
X71650Y162476
X225194Y162476
X225194Y67988
T07
X196138Y100232
X196138Y130232
M30
