G75*
%MOIN*%
%OFA0B0*%
%FSLAX25Y25*%
%IPPOS*%
%LPD*%
%AMOC8*
5,1,8,0,0,1.08239X$1,22.5*
%
%ADD10C,0.00000*%
%ADD11C,0.01600*%
%ADD12C,0.05543*%
%ADD13C,0.08250*%
%ADD14C,0.07087*%
%ADD15C,0.06693*%
%ADD16C,0.05000*%
%ADD17C,0.04750*%
%ADD18C,0.02400*%
D10*
X0065351Y0067988D02*
X0065353Y0068146D01*
X0065359Y0068304D01*
X0065369Y0068462D01*
X0065383Y0068620D01*
X0065401Y0068777D01*
X0065422Y0068934D01*
X0065448Y0069090D01*
X0065478Y0069246D01*
X0065511Y0069401D01*
X0065549Y0069554D01*
X0065590Y0069707D01*
X0065635Y0069859D01*
X0065684Y0070010D01*
X0065737Y0070159D01*
X0065793Y0070307D01*
X0065853Y0070453D01*
X0065917Y0070598D01*
X0065985Y0070741D01*
X0066056Y0070883D01*
X0066130Y0071023D01*
X0066208Y0071160D01*
X0066290Y0071296D01*
X0066374Y0071430D01*
X0066463Y0071561D01*
X0066554Y0071690D01*
X0066649Y0071817D01*
X0066746Y0071942D01*
X0066847Y0072064D01*
X0066951Y0072183D01*
X0067058Y0072300D01*
X0067168Y0072414D01*
X0067281Y0072525D01*
X0067396Y0072634D01*
X0067514Y0072739D01*
X0067635Y0072841D01*
X0067758Y0072941D01*
X0067884Y0073037D01*
X0068012Y0073130D01*
X0068142Y0073220D01*
X0068275Y0073306D01*
X0068410Y0073390D01*
X0068546Y0073469D01*
X0068685Y0073546D01*
X0068826Y0073618D01*
X0068968Y0073688D01*
X0069112Y0073753D01*
X0069258Y0073815D01*
X0069405Y0073873D01*
X0069554Y0073928D01*
X0069704Y0073979D01*
X0069855Y0074026D01*
X0070007Y0074069D01*
X0070160Y0074108D01*
X0070315Y0074144D01*
X0070470Y0074175D01*
X0070626Y0074203D01*
X0070782Y0074227D01*
X0070939Y0074247D01*
X0071097Y0074263D01*
X0071254Y0074275D01*
X0071413Y0074283D01*
X0071571Y0074287D01*
X0071729Y0074287D01*
X0071887Y0074283D01*
X0072046Y0074275D01*
X0072203Y0074263D01*
X0072361Y0074247D01*
X0072518Y0074227D01*
X0072674Y0074203D01*
X0072830Y0074175D01*
X0072985Y0074144D01*
X0073140Y0074108D01*
X0073293Y0074069D01*
X0073445Y0074026D01*
X0073596Y0073979D01*
X0073746Y0073928D01*
X0073895Y0073873D01*
X0074042Y0073815D01*
X0074188Y0073753D01*
X0074332Y0073688D01*
X0074474Y0073618D01*
X0074615Y0073546D01*
X0074754Y0073469D01*
X0074890Y0073390D01*
X0075025Y0073306D01*
X0075158Y0073220D01*
X0075288Y0073130D01*
X0075416Y0073037D01*
X0075542Y0072941D01*
X0075665Y0072841D01*
X0075786Y0072739D01*
X0075904Y0072634D01*
X0076019Y0072525D01*
X0076132Y0072414D01*
X0076242Y0072300D01*
X0076349Y0072183D01*
X0076453Y0072064D01*
X0076554Y0071942D01*
X0076651Y0071817D01*
X0076746Y0071690D01*
X0076837Y0071561D01*
X0076926Y0071430D01*
X0077010Y0071296D01*
X0077092Y0071160D01*
X0077170Y0071023D01*
X0077244Y0070883D01*
X0077315Y0070741D01*
X0077383Y0070598D01*
X0077447Y0070453D01*
X0077507Y0070307D01*
X0077563Y0070159D01*
X0077616Y0070010D01*
X0077665Y0069859D01*
X0077710Y0069707D01*
X0077751Y0069554D01*
X0077789Y0069401D01*
X0077822Y0069246D01*
X0077852Y0069090D01*
X0077878Y0068934D01*
X0077899Y0068777D01*
X0077917Y0068620D01*
X0077931Y0068462D01*
X0077941Y0068304D01*
X0077947Y0068146D01*
X0077949Y0067988D01*
X0077947Y0067830D01*
X0077941Y0067672D01*
X0077931Y0067514D01*
X0077917Y0067356D01*
X0077899Y0067199D01*
X0077878Y0067042D01*
X0077852Y0066886D01*
X0077822Y0066730D01*
X0077789Y0066575D01*
X0077751Y0066422D01*
X0077710Y0066269D01*
X0077665Y0066117D01*
X0077616Y0065966D01*
X0077563Y0065817D01*
X0077507Y0065669D01*
X0077447Y0065523D01*
X0077383Y0065378D01*
X0077315Y0065235D01*
X0077244Y0065093D01*
X0077170Y0064953D01*
X0077092Y0064816D01*
X0077010Y0064680D01*
X0076926Y0064546D01*
X0076837Y0064415D01*
X0076746Y0064286D01*
X0076651Y0064159D01*
X0076554Y0064034D01*
X0076453Y0063912D01*
X0076349Y0063793D01*
X0076242Y0063676D01*
X0076132Y0063562D01*
X0076019Y0063451D01*
X0075904Y0063342D01*
X0075786Y0063237D01*
X0075665Y0063135D01*
X0075542Y0063035D01*
X0075416Y0062939D01*
X0075288Y0062846D01*
X0075158Y0062756D01*
X0075025Y0062670D01*
X0074890Y0062586D01*
X0074754Y0062507D01*
X0074615Y0062430D01*
X0074474Y0062358D01*
X0074332Y0062288D01*
X0074188Y0062223D01*
X0074042Y0062161D01*
X0073895Y0062103D01*
X0073746Y0062048D01*
X0073596Y0061997D01*
X0073445Y0061950D01*
X0073293Y0061907D01*
X0073140Y0061868D01*
X0072985Y0061832D01*
X0072830Y0061801D01*
X0072674Y0061773D01*
X0072518Y0061749D01*
X0072361Y0061729D01*
X0072203Y0061713D01*
X0072046Y0061701D01*
X0071887Y0061693D01*
X0071729Y0061689D01*
X0071571Y0061689D01*
X0071413Y0061693D01*
X0071254Y0061701D01*
X0071097Y0061713D01*
X0070939Y0061729D01*
X0070782Y0061749D01*
X0070626Y0061773D01*
X0070470Y0061801D01*
X0070315Y0061832D01*
X0070160Y0061868D01*
X0070007Y0061907D01*
X0069855Y0061950D01*
X0069704Y0061997D01*
X0069554Y0062048D01*
X0069405Y0062103D01*
X0069258Y0062161D01*
X0069112Y0062223D01*
X0068968Y0062288D01*
X0068826Y0062358D01*
X0068685Y0062430D01*
X0068546Y0062507D01*
X0068410Y0062586D01*
X0068275Y0062670D01*
X0068142Y0062756D01*
X0068012Y0062846D01*
X0067884Y0062939D01*
X0067758Y0063035D01*
X0067635Y0063135D01*
X0067514Y0063237D01*
X0067396Y0063342D01*
X0067281Y0063451D01*
X0067168Y0063562D01*
X0067058Y0063676D01*
X0066951Y0063793D01*
X0066847Y0063912D01*
X0066746Y0064034D01*
X0066649Y0064159D01*
X0066554Y0064286D01*
X0066463Y0064415D01*
X0066374Y0064546D01*
X0066290Y0064680D01*
X0066208Y0064816D01*
X0066130Y0064953D01*
X0066056Y0065093D01*
X0065985Y0065235D01*
X0065917Y0065378D01*
X0065853Y0065523D01*
X0065793Y0065669D01*
X0065737Y0065817D01*
X0065684Y0065966D01*
X0065635Y0066117D01*
X0065590Y0066269D01*
X0065549Y0066422D01*
X0065511Y0066575D01*
X0065478Y0066730D01*
X0065448Y0066886D01*
X0065422Y0067042D01*
X0065401Y0067199D01*
X0065383Y0067356D01*
X0065369Y0067514D01*
X0065359Y0067672D01*
X0065353Y0067830D01*
X0065351Y0067988D01*
X0065351Y0162476D02*
X0065353Y0162634D01*
X0065359Y0162792D01*
X0065369Y0162950D01*
X0065383Y0163108D01*
X0065401Y0163265D01*
X0065422Y0163422D01*
X0065448Y0163578D01*
X0065478Y0163734D01*
X0065511Y0163889D01*
X0065549Y0164042D01*
X0065590Y0164195D01*
X0065635Y0164347D01*
X0065684Y0164498D01*
X0065737Y0164647D01*
X0065793Y0164795D01*
X0065853Y0164941D01*
X0065917Y0165086D01*
X0065985Y0165229D01*
X0066056Y0165371D01*
X0066130Y0165511D01*
X0066208Y0165648D01*
X0066290Y0165784D01*
X0066374Y0165918D01*
X0066463Y0166049D01*
X0066554Y0166178D01*
X0066649Y0166305D01*
X0066746Y0166430D01*
X0066847Y0166552D01*
X0066951Y0166671D01*
X0067058Y0166788D01*
X0067168Y0166902D01*
X0067281Y0167013D01*
X0067396Y0167122D01*
X0067514Y0167227D01*
X0067635Y0167329D01*
X0067758Y0167429D01*
X0067884Y0167525D01*
X0068012Y0167618D01*
X0068142Y0167708D01*
X0068275Y0167794D01*
X0068410Y0167878D01*
X0068546Y0167957D01*
X0068685Y0168034D01*
X0068826Y0168106D01*
X0068968Y0168176D01*
X0069112Y0168241D01*
X0069258Y0168303D01*
X0069405Y0168361D01*
X0069554Y0168416D01*
X0069704Y0168467D01*
X0069855Y0168514D01*
X0070007Y0168557D01*
X0070160Y0168596D01*
X0070315Y0168632D01*
X0070470Y0168663D01*
X0070626Y0168691D01*
X0070782Y0168715D01*
X0070939Y0168735D01*
X0071097Y0168751D01*
X0071254Y0168763D01*
X0071413Y0168771D01*
X0071571Y0168775D01*
X0071729Y0168775D01*
X0071887Y0168771D01*
X0072046Y0168763D01*
X0072203Y0168751D01*
X0072361Y0168735D01*
X0072518Y0168715D01*
X0072674Y0168691D01*
X0072830Y0168663D01*
X0072985Y0168632D01*
X0073140Y0168596D01*
X0073293Y0168557D01*
X0073445Y0168514D01*
X0073596Y0168467D01*
X0073746Y0168416D01*
X0073895Y0168361D01*
X0074042Y0168303D01*
X0074188Y0168241D01*
X0074332Y0168176D01*
X0074474Y0168106D01*
X0074615Y0168034D01*
X0074754Y0167957D01*
X0074890Y0167878D01*
X0075025Y0167794D01*
X0075158Y0167708D01*
X0075288Y0167618D01*
X0075416Y0167525D01*
X0075542Y0167429D01*
X0075665Y0167329D01*
X0075786Y0167227D01*
X0075904Y0167122D01*
X0076019Y0167013D01*
X0076132Y0166902D01*
X0076242Y0166788D01*
X0076349Y0166671D01*
X0076453Y0166552D01*
X0076554Y0166430D01*
X0076651Y0166305D01*
X0076746Y0166178D01*
X0076837Y0166049D01*
X0076926Y0165918D01*
X0077010Y0165784D01*
X0077092Y0165648D01*
X0077170Y0165511D01*
X0077244Y0165371D01*
X0077315Y0165229D01*
X0077383Y0165086D01*
X0077447Y0164941D01*
X0077507Y0164795D01*
X0077563Y0164647D01*
X0077616Y0164498D01*
X0077665Y0164347D01*
X0077710Y0164195D01*
X0077751Y0164042D01*
X0077789Y0163889D01*
X0077822Y0163734D01*
X0077852Y0163578D01*
X0077878Y0163422D01*
X0077899Y0163265D01*
X0077917Y0163108D01*
X0077931Y0162950D01*
X0077941Y0162792D01*
X0077947Y0162634D01*
X0077949Y0162476D01*
X0077947Y0162318D01*
X0077941Y0162160D01*
X0077931Y0162002D01*
X0077917Y0161844D01*
X0077899Y0161687D01*
X0077878Y0161530D01*
X0077852Y0161374D01*
X0077822Y0161218D01*
X0077789Y0161063D01*
X0077751Y0160910D01*
X0077710Y0160757D01*
X0077665Y0160605D01*
X0077616Y0160454D01*
X0077563Y0160305D01*
X0077507Y0160157D01*
X0077447Y0160011D01*
X0077383Y0159866D01*
X0077315Y0159723D01*
X0077244Y0159581D01*
X0077170Y0159441D01*
X0077092Y0159304D01*
X0077010Y0159168D01*
X0076926Y0159034D01*
X0076837Y0158903D01*
X0076746Y0158774D01*
X0076651Y0158647D01*
X0076554Y0158522D01*
X0076453Y0158400D01*
X0076349Y0158281D01*
X0076242Y0158164D01*
X0076132Y0158050D01*
X0076019Y0157939D01*
X0075904Y0157830D01*
X0075786Y0157725D01*
X0075665Y0157623D01*
X0075542Y0157523D01*
X0075416Y0157427D01*
X0075288Y0157334D01*
X0075158Y0157244D01*
X0075025Y0157158D01*
X0074890Y0157074D01*
X0074754Y0156995D01*
X0074615Y0156918D01*
X0074474Y0156846D01*
X0074332Y0156776D01*
X0074188Y0156711D01*
X0074042Y0156649D01*
X0073895Y0156591D01*
X0073746Y0156536D01*
X0073596Y0156485D01*
X0073445Y0156438D01*
X0073293Y0156395D01*
X0073140Y0156356D01*
X0072985Y0156320D01*
X0072830Y0156289D01*
X0072674Y0156261D01*
X0072518Y0156237D01*
X0072361Y0156217D01*
X0072203Y0156201D01*
X0072046Y0156189D01*
X0071887Y0156181D01*
X0071729Y0156177D01*
X0071571Y0156177D01*
X0071413Y0156181D01*
X0071254Y0156189D01*
X0071097Y0156201D01*
X0070939Y0156217D01*
X0070782Y0156237D01*
X0070626Y0156261D01*
X0070470Y0156289D01*
X0070315Y0156320D01*
X0070160Y0156356D01*
X0070007Y0156395D01*
X0069855Y0156438D01*
X0069704Y0156485D01*
X0069554Y0156536D01*
X0069405Y0156591D01*
X0069258Y0156649D01*
X0069112Y0156711D01*
X0068968Y0156776D01*
X0068826Y0156846D01*
X0068685Y0156918D01*
X0068546Y0156995D01*
X0068410Y0157074D01*
X0068275Y0157158D01*
X0068142Y0157244D01*
X0068012Y0157334D01*
X0067884Y0157427D01*
X0067758Y0157523D01*
X0067635Y0157623D01*
X0067514Y0157725D01*
X0067396Y0157830D01*
X0067281Y0157939D01*
X0067168Y0158050D01*
X0067058Y0158164D01*
X0066951Y0158281D01*
X0066847Y0158400D01*
X0066746Y0158522D01*
X0066649Y0158647D01*
X0066554Y0158774D01*
X0066463Y0158903D01*
X0066374Y0159034D01*
X0066290Y0159168D01*
X0066208Y0159304D01*
X0066130Y0159441D01*
X0066056Y0159581D01*
X0065985Y0159723D01*
X0065917Y0159866D01*
X0065853Y0160011D01*
X0065793Y0160157D01*
X0065737Y0160305D01*
X0065684Y0160454D01*
X0065635Y0160605D01*
X0065590Y0160757D01*
X0065549Y0160910D01*
X0065511Y0161063D01*
X0065478Y0161218D01*
X0065448Y0161374D01*
X0065422Y0161530D01*
X0065401Y0161687D01*
X0065383Y0161844D01*
X0065369Y0162002D01*
X0065359Y0162160D01*
X0065353Y0162318D01*
X0065351Y0162476D01*
X0189740Y0130232D02*
X0189742Y0130392D01*
X0189748Y0130551D01*
X0189758Y0130710D01*
X0189772Y0130869D01*
X0189790Y0131028D01*
X0189811Y0131186D01*
X0189837Y0131343D01*
X0189867Y0131500D01*
X0189900Y0131656D01*
X0189938Y0131811D01*
X0189979Y0131965D01*
X0190024Y0132118D01*
X0190073Y0132270D01*
X0190126Y0132420D01*
X0190182Y0132569D01*
X0190242Y0132717D01*
X0190306Y0132863D01*
X0190374Y0133008D01*
X0190445Y0133151D01*
X0190519Y0133292D01*
X0190597Y0133431D01*
X0190679Y0133568D01*
X0190764Y0133703D01*
X0190852Y0133836D01*
X0190943Y0133967D01*
X0191038Y0134095D01*
X0191136Y0134221D01*
X0191237Y0134345D01*
X0191341Y0134465D01*
X0191448Y0134584D01*
X0191558Y0134699D01*
X0191671Y0134812D01*
X0191786Y0134922D01*
X0191905Y0135029D01*
X0192025Y0135133D01*
X0192149Y0135234D01*
X0192275Y0135332D01*
X0192403Y0135427D01*
X0192534Y0135518D01*
X0192667Y0135606D01*
X0192802Y0135691D01*
X0192939Y0135773D01*
X0193078Y0135851D01*
X0193219Y0135925D01*
X0193362Y0135996D01*
X0193507Y0136064D01*
X0193653Y0136128D01*
X0193801Y0136188D01*
X0193950Y0136244D01*
X0194100Y0136297D01*
X0194252Y0136346D01*
X0194405Y0136391D01*
X0194559Y0136432D01*
X0194714Y0136470D01*
X0194870Y0136503D01*
X0195027Y0136533D01*
X0195184Y0136559D01*
X0195342Y0136580D01*
X0195501Y0136598D01*
X0195660Y0136612D01*
X0195819Y0136622D01*
X0195978Y0136628D01*
X0196138Y0136630D01*
X0196298Y0136628D01*
X0196457Y0136622D01*
X0196616Y0136612D01*
X0196775Y0136598D01*
X0196934Y0136580D01*
X0197092Y0136559D01*
X0197249Y0136533D01*
X0197406Y0136503D01*
X0197562Y0136470D01*
X0197717Y0136432D01*
X0197871Y0136391D01*
X0198024Y0136346D01*
X0198176Y0136297D01*
X0198326Y0136244D01*
X0198475Y0136188D01*
X0198623Y0136128D01*
X0198769Y0136064D01*
X0198914Y0135996D01*
X0199057Y0135925D01*
X0199198Y0135851D01*
X0199337Y0135773D01*
X0199474Y0135691D01*
X0199609Y0135606D01*
X0199742Y0135518D01*
X0199873Y0135427D01*
X0200001Y0135332D01*
X0200127Y0135234D01*
X0200251Y0135133D01*
X0200371Y0135029D01*
X0200490Y0134922D01*
X0200605Y0134812D01*
X0200718Y0134699D01*
X0200828Y0134584D01*
X0200935Y0134465D01*
X0201039Y0134345D01*
X0201140Y0134221D01*
X0201238Y0134095D01*
X0201333Y0133967D01*
X0201424Y0133836D01*
X0201512Y0133703D01*
X0201597Y0133568D01*
X0201679Y0133431D01*
X0201757Y0133292D01*
X0201831Y0133151D01*
X0201902Y0133008D01*
X0201970Y0132863D01*
X0202034Y0132717D01*
X0202094Y0132569D01*
X0202150Y0132420D01*
X0202203Y0132270D01*
X0202252Y0132118D01*
X0202297Y0131965D01*
X0202338Y0131811D01*
X0202376Y0131656D01*
X0202409Y0131500D01*
X0202439Y0131343D01*
X0202465Y0131186D01*
X0202486Y0131028D01*
X0202504Y0130869D01*
X0202518Y0130710D01*
X0202528Y0130551D01*
X0202534Y0130392D01*
X0202536Y0130232D01*
X0202534Y0130072D01*
X0202528Y0129913D01*
X0202518Y0129754D01*
X0202504Y0129595D01*
X0202486Y0129436D01*
X0202465Y0129278D01*
X0202439Y0129121D01*
X0202409Y0128964D01*
X0202376Y0128808D01*
X0202338Y0128653D01*
X0202297Y0128499D01*
X0202252Y0128346D01*
X0202203Y0128194D01*
X0202150Y0128044D01*
X0202094Y0127895D01*
X0202034Y0127747D01*
X0201970Y0127601D01*
X0201902Y0127456D01*
X0201831Y0127313D01*
X0201757Y0127172D01*
X0201679Y0127033D01*
X0201597Y0126896D01*
X0201512Y0126761D01*
X0201424Y0126628D01*
X0201333Y0126497D01*
X0201238Y0126369D01*
X0201140Y0126243D01*
X0201039Y0126119D01*
X0200935Y0125999D01*
X0200828Y0125880D01*
X0200718Y0125765D01*
X0200605Y0125652D01*
X0200490Y0125542D01*
X0200371Y0125435D01*
X0200251Y0125331D01*
X0200127Y0125230D01*
X0200001Y0125132D01*
X0199873Y0125037D01*
X0199742Y0124946D01*
X0199609Y0124858D01*
X0199474Y0124773D01*
X0199337Y0124691D01*
X0199198Y0124613D01*
X0199057Y0124539D01*
X0198914Y0124468D01*
X0198769Y0124400D01*
X0198623Y0124336D01*
X0198475Y0124276D01*
X0198326Y0124220D01*
X0198176Y0124167D01*
X0198024Y0124118D01*
X0197871Y0124073D01*
X0197717Y0124032D01*
X0197562Y0123994D01*
X0197406Y0123961D01*
X0197249Y0123931D01*
X0197092Y0123905D01*
X0196934Y0123884D01*
X0196775Y0123866D01*
X0196616Y0123852D01*
X0196457Y0123842D01*
X0196298Y0123836D01*
X0196138Y0123834D01*
X0195978Y0123836D01*
X0195819Y0123842D01*
X0195660Y0123852D01*
X0195501Y0123866D01*
X0195342Y0123884D01*
X0195184Y0123905D01*
X0195027Y0123931D01*
X0194870Y0123961D01*
X0194714Y0123994D01*
X0194559Y0124032D01*
X0194405Y0124073D01*
X0194252Y0124118D01*
X0194100Y0124167D01*
X0193950Y0124220D01*
X0193801Y0124276D01*
X0193653Y0124336D01*
X0193507Y0124400D01*
X0193362Y0124468D01*
X0193219Y0124539D01*
X0193078Y0124613D01*
X0192939Y0124691D01*
X0192802Y0124773D01*
X0192667Y0124858D01*
X0192534Y0124946D01*
X0192403Y0125037D01*
X0192275Y0125132D01*
X0192149Y0125230D01*
X0192025Y0125331D01*
X0191905Y0125435D01*
X0191786Y0125542D01*
X0191671Y0125652D01*
X0191558Y0125765D01*
X0191448Y0125880D01*
X0191341Y0125999D01*
X0191237Y0126119D01*
X0191136Y0126243D01*
X0191038Y0126369D01*
X0190943Y0126497D01*
X0190852Y0126628D01*
X0190764Y0126761D01*
X0190679Y0126896D01*
X0190597Y0127033D01*
X0190519Y0127172D01*
X0190445Y0127313D01*
X0190374Y0127456D01*
X0190306Y0127601D01*
X0190242Y0127747D01*
X0190182Y0127895D01*
X0190126Y0128044D01*
X0190073Y0128194D01*
X0190024Y0128346D01*
X0189979Y0128499D01*
X0189938Y0128653D01*
X0189900Y0128808D01*
X0189867Y0128964D01*
X0189837Y0129121D01*
X0189811Y0129278D01*
X0189790Y0129436D01*
X0189772Y0129595D01*
X0189758Y0129754D01*
X0189748Y0129913D01*
X0189742Y0130072D01*
X0189740Y0130232D01*
X0189740Y0100232D02*
X0189742Y0100392D01*
X0189748Y0100551D01*
X0189758Y0100710D01*
X0189772Y0100869D01*
X0189790Y0101028D01*
X0189811Y0101186D01*
X0189837Y0101343D01*
X0189867Y0101500D01*
X0189900Y0101656D01*
X0189938Y0101811D01*
X0189979Y0101965D01*
X0190024Y0102118D01*
X0190073Y0102270D01*
X0190126Y0102420D01*
X0190182Y0102569D01*
X0190242Y0102717D01*
X0190306Y0102863D01*
X0190374Y0103008D01*
X0190445Y0103151D01*
X0190519Y0103292D01*
X0190597Y0103431D01*
X0190679Y0103568D01*
X0190764Y0103703D01*
X0190852Y0103836D01*
X0190943Y0103967D01*
X0191038Y0104095D01*
X0191136Y0104221D01*
X0191237Y0104345D01*
X0191341Y0104465D01*
X0191448Y0104584D01*
X0191558Y0104699D01*
X0191671Y0104812D01*
X0191786Y0104922D01*
X0191905Y0105029D01*
X0192025Y0105133D01*
X0192149Y0105234D01*
X0192275Y0105332D01*
X0192403Y0105427D01*
X0192534Y0105518D01*
X0192667Y0105606D01*
X0192802Y0105691D01*
X0192939Y0105773D01*
X0193078Y0105851D01*
X0193219Y0105925D01*
X0193362Y0105996D01*
X0193507Y0106064D01*
X0193653Y0106128D01*
X0193801Y0106188D01*
X0193950Y0106244D01*
X0194100Y0106297D01*
X0194252Y0106346D01*
X0194405Y0106391D01*
X0194559Y0106432D01*
X0194714Y0106470D01*
X0194870Y0106503D01*
X0195027Y0106533D01*
X0195184Y0106559D01*
X0195342Y0106580D01*
X0195501Y0106598D01*
X0195660Y0106612D01*
X0195819Y0106622D01*
X0195978Y0106628D01*
X0196138Y0106630D01*
X0196298Y0106628D01*
X0196457Y0106622D01*
X0196616Y0106612D01*
X0196775Y0106598D01*
X0196934Y0106580D01*
X0197092Y0106559D01*
X0197249Y0106533D01*
X0197406Y0106503D01*
X0197562Y0106470D01*
X0197717Y0106432D01*
X0197871Y0106391D01*
X0198024Y0106346D01*
X0198176Y0106297D01*
X0198326Y0106244D01*
X0198475Y0106188D01*
X0198623Y0106128D01*
X0198769Y0106064D01*
X0198914Y0105996D01*
X0199057Y0105925D01*
X0199198Y0105851D01*
X0199337Y0105773D01*
X0199474Y0105691D01*
X0199609Y0105606D01*
X0199742Y0105518D01*
X0199873Y0105427D01*
X0200001Y0105332D01*
X0200127Y0105234D01*
X0200251Y0105133D01*
X0200371Y0105029D01*
X0200490Y0104922D01*
X0200605Y0104812D01*
X0200718Y0104699D01*
X0200828Y0104584D01*
X0200935Y0104465D01*
X0201039Y0104345D01*
X0201140Y0104221D01*
X0201238Y0104095D01*
X0201333Y0103967D01*
X0201424Y0103836D01*
X0201512Y0103703D01*
X0201597Y0103568D01*
X0201679Y0103431D01*
X0201757Y0103292D01*
X0201831Y0103151D01*
X0201902Y0103008D01*
X0201970Y0102863D01*
X0202034Y0102717D01*
X0202094Y0102569D01*
X0202150Y0102420D01*
X0202203Y0102270D01*
X0202252Y0102118D01*
X0202297Y0101965D01*
X0202338Y0101811D01*
X0202376Y0101656D01*
X0202409Y0101500D01*
X0202439Y0101343D01*
X0202465Y0101186D01*
X0202486Y0101028D01*
X0202504Y0100869D01*
X0202518Y0100710D01*
X0202528Y0100551D01*
X0202534Y0100392D01*
X0202536Y0100232D01*
X0202534Y0100072D01*
X0202528Y0099913D01*
X0202518Y0099754D01*
X0202504Y0099595D01*
X0202486Y0099436D01*
X0202465Y0099278D01*
X0202439Y0099121D01*
X0202409Y0098964D01*
X0202376Y0098808D01*
X0202338Y0098653D01*
X0202297Y0098499D01*
X0202252Y0098346D01*
X0202203Y0098194D01*
X0202150Y0098044D01*
X0202094Y0097895D01*
X0202034Y0097747D01*
X0201970Y0097601D01*
X0201902Y0097456D01*
X0201831Y0097313D01*
X0201757Y0097172D01*
X0201679Y0097033D01*
X0201597Y0096896D01*
X0201512Y0096761D01*
X0201424Y0096628D01*
X0201333Y0096497D01*
X0201238Y0096369D01*
X0201140Y0096243D01*
X0201039Y0096119D01*
X0200935Y0095999D01*
X0200828Y0095880D01*
X0200718Y0095765D01*
X0200605Y0095652D01*
X0200490Y0095542D01*
X0200371Y0095435D01*
X0200251Y0095331D01*
X0200127Y0095230D01*
X0200001Y0095132D01*
X0199873Y0095037D01*
X0199742Y0094946D01*
X0199609Y0094858D01*
X0199474Y0094773D01*
X0199337Y0094691D01*
X0199198Y0094613D01*
X0199057Y0094539D01*
X0198914Y0094468D01*
X0198769Y0094400D01*
X0198623Y0094336D01*
X0198475Y0094276D01*
X0198326Y0094220D01*
X0198176Y0094167D01*
X0198024Y0094118D01*
X0197871Y0094073D01*
X0197717Y0094032D01*
X0197562Y0093994D01*
X0197406Y0093961D01*
X0197249Y0093931D01*
X0197092Y0093905D01*
X0196934Y0093884D01*
X0196775Y0093866D01*
X0196616Y0093852D01*
X0196457Y0093842D01*
X0196298Y0093836D01*
X0196138Y0093834D01*
X0195978Y0093836D01*
X0195819Y0093842D01*
X0195660Y0093852D01*
X0195501Y0093866D01*
X0195342Y0093884D01*
X0195184Y0093905D01*
X0195027Y0093931D01*
X0194870Y0093961D01*
X0194714Y0093994D01*
X0194559Y0094032D01*
X0194405Y0094073D01*
X0194252Y0094118D01*
X0194100Y0094167D01*
X0193950Y0094220D01*
X0193801Y0094276D01*
X0193653Y0094336D01*
X0193507Y0094400D01*
X0193362Y0094468D01*
X0193219Y0094539D01*
X0193078Y0094613D01*
X0192939Y0094691D01*
X0192802Y0094773D01*
X0192667Y0094858D01*
X0192534Y0094946D01*
X0192403Y0095037D01*
X0192275Y0095132D01*
X0192149Y0095230D01*
X0192025Y0095331D01*
X0191905Y0095435D01*
X0191786Y0095542D01*
X0191671Y0095652D01*
X0191558Y0095765D01*
X0191448Y0095880D01*
X0191341Y0095999D01*
X0191237Y0096119D01*
X0191136Y0096243D01*
X0191038Y0096369D01*
X0190943Y0096497D01*
X0190852Y0096628D01*
X0190764Y0096761D01*
X0190679Y0096896D01*
X0190597Y0097033D01*
X0190519Y0097172D01*
X0190445Y0097313D01*
X0190374Y0097456D01*
X0190306Y0097601D01*
X0190242Y0097747D01*
X0190182Y0097895D01*
X0190126Y0098044D01*
X0190073Y0098194D01*
X0190024Y0098346D01*
X0189979Y0098499D01*
X0189938Y0098653D01*
X0189900Y0098808D01*
X0189867Y0098964D01*
X0189837Y0099121D01*
X0189811Y0099278D01*
X0189790Y0099436D01*
X0189772Y0099595D01*
X0189758Y0099754D01*
X0189748Y0099913D01*
X0189742Y0100072D01*
X0189740Y0100232D01*
X0218895Y0067988D02*
X0218897Y0068146D01*
X0218903Y0068304D01*
X0218913Y0068462D01*
X0218927Y0068620D01*
X0218945Y0068777D01*
X0218966Y0068934D01*
X0218992Y0069090D01*
X0219022Y0069246D01*
X0219055Y0069401D01*
X0219093Y0069554D01*
X0219134Y0069707D01*
X0219179Y0069859D01*
X0219228Y0070010D01*
X0219281Y0070159D01*
X0219337Y0070307D01*
X0219397Y0070453D01*
X0219461Y0070598D01*
X0219529Y0070741D01*
X0219600Y0070883D01*
X0219674Y0071023D01*
X0219752Y0071160D01*
X0219834Y0071296D01*
X0219918Y0071430D01*
X0220007Y0071561D01*
X0220098Y0071690D01*
X0220193Y0071817D01*
X0220290Y0071942D01*
X0220391Y0072064D01*
X0220495Y0072183D01*
X0220602Y0072300D01*
X0220712Y0072414D01*
X0220825Y0072525D01*
X0220940Y0072634D01*
X0221058Y0072739D01*
X0221179Y0072841D01*
X0221302Y0072941D01*
X0221428Y0073037D01*
X0221556Y0073130D01*
X0221686Y0073220D01*
X0221819Y0073306D01*
X0221954Y0073390D01*
X0222090Y0073469D01*
X0222229Y0073546D01*
X0222370Y0073618D01*
X0222512Y0073688D01*
X0222656Y0073753D01*
X0222802Y0073815D01*
X0222949Y0073873D01*
X0223098Y0073928D01*
X0223248Y0073979D01*
X0223399Y0074026D01*
X0223551Y0074069D01*
X0223704Y0074108D01*
X0223859Y0074144D01*
X0224014Y0074175D01*
X0224170Y0074203D01*
X0224326Y0074227D01*
X0224483Y0074247D01*
X0224641Y0074263D01*
X0224798Y0074275D01*
X0224957Y0074283D01*
X0225115Y0074287D01*
X0225273Y0074287D01*
X0225431Y0074283D01*
X0225590Y0074275D01*
X0225747Y0074263D01*
X0225905Y0074247D01*
X0226062Y0074227D01*
X0226218Y0074203D01*
X0226374Y0074175D01*
X0226529Y0074144D01*
X0226684Y0074108D01*
X0226837Y0074069D01*
X0226989Y0074026D01*
X0227140Y0073979D01*
X0227290Y0073928D01*
X0227439Y0073873D01*
X0227586Y0073815D01*
X0227732Y0073753D01*
X0227876Y0073688D01*
X0228018Y0073618D01*
X0228159Y0073546D01*
X0228298Y0073469D01*
X0228434Y0073390D01*
X0228569Y0073306D01*
X0228702Y0073220D01*
X0228832Y0073130D01*
X0228960Y0073037D01*
X0229086Y0072941D01*
X0229209Y0072841D01*
X0229330Y0072739D01*
X0229448Y0072634D01*
X0229563Y0072525D01*
X0229676Y0072414D01*
X0229786Y0072300D01*
X0229893Y0072183D01*
X0229997Y0072064D01*
X0230098Y0071942D01*
X0230195Y0071817D01*
X0230290Y0071690D01*
X0230381Y0071561D01*
X0230470Y0071430D01*
X0230554Y0071296D01*
X0230636Y0071160D01*
X0230714Y0071023D01*
X0230788Y0070883D01*
X0230859Y0070741D01*
X0230927Y0070598D01*
X0230991Y0070453D01*
X0231051Y0070307D01*
X0231107Y0070159D01*
X0231160Y0070010D01*
X0231209Y0069859D01*
X0231254Y0069707D01*
X0231295Y0069554D01*
X0231333Y0069401D01*
X0231366Y0069246D01*
X0231396Y0069090D01*
X0231422Y0068934D01*
X0231443Y0068777D01*
X0231461Y0068620D01*
X0231475Y0068462D01*
X0231485Y0068304D01*
X0231491Y0068146D01*
X0231493Y0067988D01*
X0231491Y0067830D01*
X0231485Y0067672D01*
X0231475Y0067514D01*
X0231461Y0067356D01*
X0231443Y0067199D01*
X0231422Y0067042D01*
X0231396Y0066886D01*
X0231366Y0066730D01*
X0231333Y0066575D01*
X0231295Y0066422D01*
X0231254Y0066269D01*
X0231209Y0066117D01*
X0231160Y0065966D01*
X0231107Y0065817D01*
X0231051Y0065669D01*
X0230991Y0065523D01*
X0230927Y0065378D01*
X0230859Y0065235D01*
X0230788Y0065093D01*
X0230714Y0064953D01*
X0230636Y0064816D01*
X0230554Y0064680D01*
X0230470Y0064546D01*
X0230381Y0064415D01*
X0230290Y0064286D01*
X0230195Y0064159D01*
X0230098Y0064034D01*
X0229997Y0063912D01*
X0229893Y0063793D01*
X0229786Y0063676D01*
X0229676Y0063562D01*
X0229563Y0063451D01*
X0229448Y0063342D01*
X0229330Y0063237D01*
X0229209Y0063135D01*
X0229086Y0063035D01*
X0228960Y0062939D01*
X0228832Y0062846D01*
X0228702Y0062756D01*
X0228569Y0062670D01*
X0228434Y0062586D01*
X0228298Y0062507D01*
X0228159Y0062430D01*
X0228018Y0062358D01*
X0227876Y0062288D01*
X0227732Y0062223D01*
X0227586Y0062161D01*
X0227439Y0062103D01*
X0227290Y0062048D01*
X0227140Y0061997D01*
X0226989Y0061950D01*
X0226837Y0061907D01*
X0226684Y0061868D01*
X0226529Y0061832D01*
X0226374Y0061801D01*
X0226218Y0061773D01*
X0226062Y0061749D01*
X0225905Y0061729D01*
X0225747Y0061713D01*
X0225590Y0061701D01*
X0225431Y0061693D01*
X0225273Y0061689D01*
X0225115Y0061689D01*
X0224957Y0061693D01*
X0224798Y0061701D01*
X0224641Y0061713D01*
X0224483Y0061729D01*
X0224326Y0061749D01*
X0224170Y0061773D01*
X0224014Y0061801D01*
X0223859Y0061832D01*
X0223704Y0061868D01*
X0223551Y0061907D01*
X0223399Y0061950D01*
X0223248Y0061997D01*
X0223098Y0062048D01*
X0222949Y0062103D01*
X0222802Y0062161D01*
X0222656Y0062223D01*
X0222512Y0062288D01*
X0222370Y0062358D01*
X0222229Y0062430D01*
X0222090Y0062507D01*
X0221954Y0062586D01*
X0221819Y0062670D01*
X0221686Y0062756D01*
X0221556Y0062846D01*
X0221428Y0062939D01*
X0221302Y0063035D01*
X0221179Y0063135D01*
X0221058Y0063237D01*
X0220940Y0063342D01*
X0220825Y0063451D01*
X0220712Y0063562D01*
X0220602Y0063676D01*
X0220495Y0063793D01*
X0220391Y0063912D01*
X0220290Y0064034D01*
X0220193Y0064159D01*
X0220098Y0064286D01*
X0220007Y0064415D01*
X0219918Y0064546D01*
X0219834Y0064680D01*
X0219752Y0064816D01*
X0219674Y0064953D01*
X0219600Y0065093D01*
X0219529Y0065235D01*
X0219461Y0065378D01*
X0219397Y0065523D01*
X0219337Y0065669D01*
X0219281Y0065817D01*
X0219228Y0065966D01*
X0219179Y0066117D01*
X0219134Y0066269D01*
X0219093Y0066422D01*
X0219055Y0066575D01*
X0219022Y0066730D01*
X0218992Y0066886D01*
X0218966Y0067042D01*
X0218945Y0067199D01*
X0218927Y0067356D01*
X0218913Y0067514D01*
X0218903Y0067672D01*
X0218897Y0067830D01*
X0218895Y0067988D01*
X0218895Y0162476D02*
X0218897Y0162634D01*
X0218903Y0162792D01*
X0218913Y0162950D01*
X0218927Y0163108D01*
X0218945Y0163265D01*
X0218966Y0163422D01*
X0218992Y0163578D01*
X0219022Y0163734D01*
X0219055Y0163889D01*
X0219093Y0164042D01*
X0219134Y0164195D01*
X0219179Y0164347D01*
X0219228Y0164498D01*
X0219281Y0164647D01*
X0219337Y0164795D01*
X0219397Y0164941D01*
X0219461Y0165086D01*
X0219529Y0165229D01*
X0219600Y0165371D01*
X0219674Y0165511D01*
X0219752Y0165648D01*
X0219834Y0165784D01*
X0219918Y0165918D01*
X0220007Y0166049D01*
X0220098Y0166178D01*
X0220193Y0166305D01*
X0220290Y0166430D01*
X0220391Y0166552D01*
X0220495Y0166671D01*
X0220602Y0166788D01*
X0220712Y0166902D01*
X0220825Y0167013D01*
X0220940Y0167122D01*
X0221058Y0167227D01*
X0221179Y0167329D01*
X0221302Y0167429D01*
X0221428Y0167525D01*
X0221556Y0167618D01*
X0221686Y0167708D01*
X0221819Y0167794D01*
X0221954Y0167878D01*
X0222090Y0167957D01*
X0222229Y0168034D01*
X0222370Y0168106D01*
X0222512Y0168176D01*
X0222656Y0168241D01*
X0222802Y0168303D01*
X0222949Y0168361D01*
X0223098Y0168416D01*
X0223248Y0168467D01*
X0223399Y0168514D01*
X0223551Y0168557D01*
X0223704Y0168596D01*
X0223859Y0168632D01*
X0224014Y0168663D01*
X0224170Y0168691D01*
X0224326Y0168715D01*
X0224483Y0168735D01*
X0224641Y0168751D01*
X0224798Y0168763D01*
X0224957Y0168771D01*
X0225115Y0168775D01*
X0225273Y0168775D01*
X0225431Y0168771D01*
X0225590Y0168763D01*
X0225747Y0168751D01*
X0225905Y0168735D01*
X0226062Y0168715D01*
X0226218Y0168691D01*
X0226374Y0168663D01*
X0226529Y0168632D01*
X0226684Y0168596D01*
X0226837Y0168557D01*
X0226989Y0168514D01*
X0227140Y0168467D01*
X0227290Y0168416D01*
X0227439Y0168361D01*
X0227586Y0168303D01*
X0227732Y0168241D01*
X0227876Y0168176D01*
X0228018Y0168106D01*
X0228159Y0168034D01*
X0228298Y0167957D01*
X0228434Y0167878D01*
X0228569Y0167794D01*
X0228702Y0167708D01*
X0228832Y0167618D01*
X0228960Y0167525D01*
X0229086Y0167429D01*
X0229209Y0167329D01*
X0229330Y0167227D01*
X0229448Y0167122D01*
X0229563Y0167013D01*
X0229676Y0166902D01*
X0229786Y0166788D01*
X0229893Y0166671D01*
X0229997Y0166552D01*
X0230098Y0166430D01*
X0230195Y0166305D01*
X0230290Y0166178D01*
X0230381Y0166049D01*
X0230470Y0165918D01*
X0230554Y0165784D01*
X0230636Y0165648D01*
X0230714Y0165511D01*
X0230788Y0165371D01*
X0230859Y0165229D01*
X0230927Y0165086D01*
X0230991Y0164941D01*
X0231051Y0164795D01*
X0231107Y0164647D01*
X0231160Y0164498D01*
X0231209Y0164347D01*
X0231254Y0164195D01*
X0231295Y0164042D01*
X0231333Y0163889D01*
X0231366Y0163734D01*
X0231396Y0163578D01*
X0231422Y0163422D01*
X0231443Y0163265D01*
X0231461Y0163108D01*
X0231475Y0162950D01*
X0231485Y0162792D01*
X0231491Y0162634D01*
X0231493Y0162476D01*
X0231491Y0162318D01*
X0231485Y0162160D01*
X0231475Y0162002D01*
X0231461Y0161844D01*
X0231443Y0161687D01*
X0231422Y0161530D01*
X0231396Y0161374D01*
X0231366Y0161218D01*
X0231333Y0161063D01*
X0231295Y0160910D01*
X0231254Y0160757D01*
X0231209Y0160605D01*
X0231160Y0160454D01*
X0231107Y0160305D01*
X0231051Y0160157D01*
X0230991Y0160011D01*
X0230927Y0159866D01*
X0230859Y0159723D01*
X0230788Y0159581D01*
X0230714Y0159441D01*
X0230636Y0159304D01*
X0230554Y0159168D01*
X0230470Y0159034D01*
X0230381Y0158903D01*
X0230290Y0158774D01*
X0230195Y0158647D01*
X0230098Y0158522D01*
X0229997Y0158400D01*
X0229893Y0158281D01*
X0229786Y0158164D01*
X0229676Y0158050D01*
X0229563Y0157939D01*
X0229448Y0157830D01*
X0229330Y0157725D01*
X0229209Y0157623D01*
X0229086Y0157523D01*
X0228960Y0157427D01*
X0228832Y0157334D01*
X0228702Y0157244D01*
X0228569Y0157158D01*
X0228434Y0157074D01*
X0228298Y0156995D01*
X0228159Y0156918D01*
X0228018Y0156846D01*
X0227876Y0156776D01*
X0227732Y0156711D01*
X0227586Y0156649D01*
X0227439Y0156591D01*
X0227290Y0156536D01*
X0227140Y0156485D01*
X0226989Y0156438D01*
X0226837Y0156395D01*
X0226684Y0156356D01*
X0226529Y0156320D01*
X0226374Y0156289D01*
X0226218Y0156261D01*
X0226062Y0156237D01*
X0225905Y0156217D01*
X0225747Y0156201D01*
X0225590Y0156189D01*
X0225431Y0156181D01*
X0225273Y0156177D01*
X0225115Y0156177D01*
X0224957Y0156181D01*
X0224798Y0156189D01*
X0224641Y0156201D01*
X0224483Y0156217D01*
X0224326Y0156237D01*
X0224170Y0156261D01*
X0224014Y0156289D01*
X0223859Y0156320D01*
X0223704Y0156356D01*
X0223551Y0156395D01*
X0223399Y0156438D01*
X0223248Y0156485D01*
X0223098Y0156536D01*
X0222949Y0156591D01*
X0222802Y0156649D01*
X0222656Y0156711D01*
X0222512Y0156776D01*
X0222370Y0156846D01*
X0222229Y0156918D01*
X0222090Y0156995D01*
X0221954Y0157074D01*
X0221819Y0157158D01*
X0221686Y0157244D01*
X0221556Y0157334D01*
X0221428Y0157427D01*
X0221302Y0157523D01*
X0221179Y0157623D01*
X0221058Y0157725D01*
X0220940Y0157830D01*
X0220825Y0157939D01*
X0220712Y0158050D01*
X0220602Y0158164D01*
X0220495Y0158281D01*
X0220391Y0158400D01*
X0220290Y0158522D01*
X0220193Y0158647D01*
X0220098Y0158774D01*
X0220007Y0158903D01*
X0219918Y0159034D01*
X0219834Y0159168D01*
X0219752Y0159304D01*
X0219674Y0159441D01*
X0219600Y0159581D01*
X0219529Y0159723D01*
X0219461Y0159866D01*
X0219397Y0160011D01*
X0219337Y0160157D01*
X0219281Y0160305D01*
X0219228Y0160454D01*
X0219179Y0160605D01*
X0219134Y0160757D01*
X0219093Y0160910D01*
X0219055Y0161063D01*
X0219022Y0161218D01*
X0218992Y0161374D01*
X0218966Y0161530D01*
X0218945Y0161687D01*
X0218927Y0161844D01*
X0218913Y0162002D01*
X0218903Y0162160D01*
X0218897Y0162318D01*
X0218895Y0162476D01*
D11*
X0237005Y0056177D02*
X0059839Y0056177D01*
X0059839Y0174287D01*
X0237005Y0174287D01*
X0237005Y0056177D01*
D12*
X0171138Y0107732D03*
X0161138Y0112732D03*
X0171138Y0117732D03*
X0161138Y0122732D03*
D13*
X0107271Y0125232D02*
X0099021Y0125232D01*
X0099021Y0105232D02*
X0107271Y0105232D01*
X0107271Y0085232D02*
X0099021Y0085232D01*
X0099021Y0145232D02*
X0107271Y0145232D01*
D14*
X0131099Y0130232D02*
X0138186Y0130232D01*
X0138186Y0120232D02*
X0131099Y0120232D01*
X0131099Y0110232D02*
X0138186Y0110232D01*
X0138186Y0100232D02*
X0131099Y0100232D01*
D15*
X0119288Y0094563D03*
X0119288Y0108343D03*
X0119288Y0122122D03*
X0119288Y0135902D03*
D16*
X0134642Y0120232D02*
X0149327Y0120232D01*
X0156827Y0112732D01*
X0161138Y0112732D01*
X0171138Y0117732D02*
X0179386Y0117732D01*
X0181886Y0115232D01*
X0181886Y0087673D01*
X0177949Y0083736D01*
X0154327Y0083736D01*
X0150390Y0087673D01*
X0150390Y0107358D01*
X0147516Y0110232D01*
X0134642Y0110232D01*
D17*
X0129839Y0146177D03*
X0139839Y0146177D03*
X0149839Y0146177D03*
X0159839Y0146177D03*
X0159839Y0156177D03*
X0149839Y0156177D03*
X0139839Y0156177D03*
X0129839Y0156177D03*
X0129839Y0166177D03*
X0119839Y0166177D03*
X0109839Y0166177D03*
X0099839Y0166177D03*
X0089839Y0166177D03*
X0079839Y0146177D03*
X0069839Y0146177D03*
X0069839Y0136177D03*
X0079839Y0136177D03*
X0079839Y0126177D03*
X0069839Y0126177D03*
X0069839Y0116177D03*
X0079839Y0116177D03*
X0079839Y0106177D03*
X0069839Y0106177D03*
X0069839Y0096177D03*
X0079839Y0096177D03*
X0169839Y0156177D03*
X0169839Y0166177D03*
X0159839Y0166177D03*
X0149839Y0166177D03*
X0139839Y0166177D03*
D18*
X0135094Y0164110D02*
X0134584Y0164110D01*
X0134839Y0164726D02*
X0135452Y0163246D01*
X0136908Y0161790D01*
X0138388Y0161177D01*
X0136908Y0160564D01*
X0135452Y0159108D01*
X0134839Y0157628D01*
X0134226Y0159108D01*
X0132771Y0160564D01*
X0131291Y0161177D01*
X0132771Y0161790D01*
X0134226Y0163246D01*
X0134839Y0164726D01*
X0134839Y0167628D02*
X0134566Y0168287D01*
X0135112Y0168287D01*
X0134839Y0167628D01*
X0132581Y0161712D02*
X0137097Y0161712D01*
X0135657Y0159313D02*
X0134022Y0159313D01*
X0134839Y0154726D02*
X0135452Y0153246D01*
X0136908Y0151790D01*
X0138388Y0151177D01*
X0136908Y0150564D01*
X0135452Y0149108D01*
X0134839Y0147628D01*
X0134226Y0149108D01*
X0132771Y0150564D01*
X0131291Y0151177D01*
X0132771Y0151790D01*
X0134226Y0153246D01*
X0134839Y0154726D01*
X0134752Y0154516D02*
X0134926Y0154516D01*
X0136580Y0152118D02*
X0133098Y0152118D01*
X0133616Y0149719D02*
X0136063Y0149719D01*
X0134839Y0144726D02*
X0135452Y0143246D01*
X0136908Y0141790D01*
X0138810Y0141002D01*
X0140869Y0141002D01*
X0142771Y0141790D01*
X0144226Y0143246D01*
X0144839Y0144726D01*
X0145452Y0143246D01*
X0146908Y0141790D01*
X0148810Y0141002D01*
X0150869Y0141002D01*
X0152771Y0141790D01*
X0154226Y0143246D01*
X0154839Y0144726D01*
X0155452Y0143246D01*
X0156908Y0141790D01*
X0158810Y0141002D01*
X0160869Y0141002D01*
X0162771Y0141790D01*
X0164226Y0143246D01*
X0165014Y0145148D01*
X0165014Y0147206D01*
X0164226Y0149108D01*
X0162771Y0150564D01*
X0161291Y0151177D01*
X0162771Y0151790D01*
X0164226Y0153246D01*
X0164839Y0154726D01*
X0165452Y0153246D01*
X0166908Y0151790D01*
X0168810Y0151002D01*
X0170869Y0151002D01*
X0172771Y0151790D01*
X0174226Y0153246D01*
X0175014Y0155148D01*
X0175014Y0157206D01*
X0174226Y0159108D01*
X0172771Y0160564D01*
X0171291Y0161177D01*
X0172771Y0161790D01*
X0174226Y0163246D01*
X0175014Y0165148D01*
X0175014Y0167206D01*
X0174566Y0168287D01*
X0215270Y0168287D01*
X0214478Y0166915D01*
X0213694Y0163990D01*
X0213694Y0160962D01*
X0214478Y0158038D01*
X0215992Y0155416D01*
X0218133Y0153275D01*
X0220755Y0151761D01*
X0223680Y0150977D01*
X0226707Y0150977D01*
X0229632Y0151761D01*
X0231005Y0152553D01*
X0231005Y0077911D01*
X0229632Y0078704D01*
X0226707Y0079487D01*
X0223680Y0079487D01*
X0220755Y0078704D01*
X0218133Y0077190D01*
X0215992Y0075049D01*
X0214478Y0072427D01*
X0213694Y0069502D01*
X0213694Y0066474D01*
X0214478Y0063550D01*
X0215270Y0062177D01*
X0081573Y0062177D01*
X0082366Y0063550D01*
X0083149Y0066474D01*
X0083149Y0069502D01*
X0082366Y0072427D01*
X0080852Y0075049D01*
X0078711Y0077190D01*
X0076089Y0078704D01*
X0073164Y0079487D01*
X0070136Y0079487D01*
X0067212Y0078704D01*
X0065839Y0077911D01*
X0065839Y0092859D01*
X0066908Y0091790D01*
X0068810Y0091002D01*
X0070869Y0091002D01*
X0072771Y0091790D01*
X0074226Y0093246D01*
X0074839Y0094726D01*
X0075452Y0093246D01*
X0076908Y0091790D01*
X0078810Y0091002D01*
X0080869Y0091002D01*
X0082771Y0091790D01*
X0084226Y0093246D01*
X0085014Y0095148D01*
X0085014Y0097206D01*
X0084226Y0099108D01*
X0082771Y0100564D01*
X0081291Y0101177D01*
X0082771Y0101790D01*
X0084226Y0103246D01*
X0085014Y0105148D01*
X0085014Y0107206D01*
X0084226Y0109108D01*
X0082771Y0110564D01*
X0081291Y0111177D01*
X0082771Y0111790D01*
X0084226Y0113246D01*
X0085014Y0115148D01*
X0085014Y0117206D01*
X0084226Y0119108D01*
X0082771Y0120564D01*
X0081291Y0121177D01*
X0082771Y0121790D01*
X0084226Y0123246D01*
X0085014Y0125148D01*
X0085014Y0127206D01*
X0084226Y0129108D01*
X0082771Y0130564D01*
X0081291Y0131177D01*
X0082771Y0131790D01*
X0084226Y0133246D01*
X0085014Y0135148D01*
X0085014Y0137206D01*
X0084226Y0139108D01*
X0082771Y0140564D01*
X0081291Y0141177D01*
X0082771Y0141790D01*
X0084226Y0143246D01*
X0085014Y0145148D01*
X0085014Y0147206D01*
X0084226Y0149108D01*
X0082771Y0150564D01*
X0080869Y0151352D01*
X0078810Y0151352D01*
X0076908Y0150564D01*
X0075452Y0149108D01*
X0074839Y0147628D01*
X0074226Y0149108D01*
X0072771Y0150564D01*
X0071773Y0150977D01*
X0073164Y0150977D01*
X0076089Y0151761D01*
X0078711Y0153275D01*
X0080852Y0155416D01*
X0082366Y0158038D01*
X0083149Y0160962D01*
X0083149Y0163990D01*
X0082366Y0166915D01*
X0081573Y0168287D01*
X0085112Y0168287D01*
X0084664Y0167206D01*
X0084664Y0165148D01*
X0085452Y0163246D01*
X0086908Y0161790D01*
X0088810Y0161002D01*
X0090869Y0161002D01*
X0092771Y0161790D01*
X0094226Y0163246D01*
X0094839Y0164726D01*
X0095452Y0163246D01*
X0096908Y0161790D01*
X0098810Y0161002D01*
X0100869Y0161002D01*
X0102771Y0161790D01*
X0104226Y0163246D01*
X0104839Y0164726D01*
X0105452Y0163246D01*
X0106908Y0161790D01*
X0108810Y0161002D01*
X0110869Y0161002D01*
X0112771Y0161790D01*
X0114226Y0163246D01*
X0114839Y0164726D01*
X0115452Y0163246D01*
X0116908Y0161790D01*
X0118810Y0161002D01*
X0120869Y0161002D01*
X0122771Y0161790D01*
X0124226Y0163246D01*
X0124839Y0164726D01*
X0125452Y0163246D01*
X0126908Y0161790D01*
X0128388Y0161177D01*
X0126908Y0160564D01*
X0125452Y0159108D01*
X0124664Y0157206D01*
X0124664Y0155148D01*
X0125452Y0153246D01*
X0126908Y0151790D01*
X0128388Y0151177D01*
X0126908Y0150564D01*
X0125452Y0149108D01*
X0124664Y0147206D01*
X0124664Y0145148D01*
X0125452Y0143246D01*
X0126908Y0141790D01*
X0128810Y0141002D01*
X0130869Y0141002D01*
X0132771Y0141790D01*
X0134226Y0143246D01*
X0134839Y0144726D01*
X0133504Y0142524D02*
X0136175Y0142524D01*
X0139447Y0136576D02*
X0129837Y0136576D01*
X0127506Y0135610D01*
X0125721Y0133825D01*
X0124756Y0131494D01*
X0124756Y0128971D01*
X0125721Y0126639D01*
X0127128Y0125232D01*
X0125721Y0123825D01*
X0125434Y0123133D01*
X0125434Y0123345D01*
X0124499Y0125604D01*
X0122770Y0127333D01*
X0120511Y0128268D01*
X0118065Y0128268D01*
X0115806Y0127333D01*
X0114196Y0125723D01*
X0114196Y0126610D01*
X0113142Y0129155D01*
X0111194Y0131103D01*
X0108649Y0132157D01*
X0097644Y0132157D01*
X0095099Y0131103D01*
X0093151Y0129155D01*
X0092096Y0126610D01*
X0092096Y0123855D01*
X0093151Y0121310D01*
X0095099Y0119362D01*
X0097644Y0118307D01*
X0108649Y0118307D01*
X0111194Y0119362D01*
X0113142Y0121309D01*
X0113142Y0120899D01*
X0114077Y0118640D01*
X0115806Y0116911D01*
X0118065Y0115976D01*
X0120511Y0115976D01*
X0122770Y0116911D01*
X0124499Y0118640D01*
X0124756Y0119261D01*
X0124756Y0118971D01*
X0125721Y0116639D01*
X0127128Y0115232D01*
X0125721Y0113825D01*
X0124756Y0111494D01*
X0124756Y0111204D01*
X0124499Y0111824D01*
X0122770Y0113553D01*
X0120511Y0114489D01*
X0118065Y0114489D01*
X0115806Y0113553D01*
X0114077Y0111824D01*
X0113142Y0109565D01*
X0113142Y0109155D01*
X0111194Y0111103D01*
X0108649Y0112157D01*
X0097644Y0112157D01*
X0095099Y0111103D01*
X0093151Y0109155D01*
X0092096Y0106610D01*
X0092096Y0103855D01*
X0093151Y0101310D01*
X0095099Y0099362D01*
X0097644Y0098307D01*
X0108649Y0098307D01*
X0111194Y0099362D01*
X0113142Y0101310D01*
X0114196Y0103855D01*
X0114196Y0104742D01*
X0115806Y0103132D01*
X0118065Y0102196D01*
X0120511Y0102196D01*
X0122770Y0103132D01*
X0124499Y0104861D01*
X0125434Y0107120D01*
X0125434Y0107332D01*
X0125721Y0106639D01*
X0127128Y0105232D01*
X0125721Y0103825D01*
X0124756Y0101494D01*
X0124756Y0098971D01*
X0125721Y0096639D01*
X0127506Y0094855D01*
X0129837Y0093889D01*
X0139447Y0093889D01*
X0141779Y0094855D01*
X0143563Y0096639D01*
X0144529Y0098971D01*
X0144529Y0101494D01*
X0143563Y0103825D01*
X0142456Y0104932D01*
X0145090Y0104932D01*
X0145090Y0086619D01*
X0145897Y0084671D01*
X0149834Y0080734D01*
X0151325Y0079243D01*
X0153273Y0078436D01*
X0179004Y0078436D01*
X0180952Y0079243D01*
X0184889Y0083180D01*
X0186380Y0084671D01*
X0187186Y0086619D01*
X0187186Y0092783D01*
X0189017Y0090952D01*
X0191662Y0089425D01*
X0194612Y0088635D01*
X0197665Y0088635D01*
X0200615Y0089425D01*
X0203260Y0090952D01*
X0205419Y0093111D01*
X0206946Y0095756D01*
X0207736Y0098705D01*
X0207736Y0101759D01*
X0206946Y0104709D01*
X0205419Y0107353D01*
X0203260Y0109513D01*
X0200615Y0111040D01*
X0197665Y0111830D01*
X0194612Y0111830D01*
X0191662Y0111040D01*
X0189017Y0109513D01*
X0187186Y0107682D01*
X0187186Y0116287D01*
X0186380Y0118234D01*
X0184889Y0119725D01*
X0183880Y0120734D01*
X0183880Y0120734D01*
X0182389Y0122225D01*
X0180441Y0123032D01*
X0172903Y0123032D01*
X0172247Y0123304D01*
X0170030Y0123304D01*
X0167982Y0122456D01*
X0166415Y0120888D01*
X0165567Y0118841D01*
X0165567Y0116624D01*
X0166415Y0114576D01*
X0167982Y0113009D01*
X0168650Y0112732D01*
X0167982Y0112456D01*
X0166415Y0110888D01*
X0165567Y0108841D01*
X0165567Y0106624D01*
X0166415Y0104576D01*
X0167982Y0103009D01*
X0170030Y0102161D01*
X0172247Y0102161D01*
X0174295Y0103009D01*
X0175862Y0104576D01*
X0176586Y0106326D01*
X0176586Y0089869D01*
X0175754Y0089036D01*
X0156523Y0089036D01*
X0155690Y0089869D01*
X0155690Y0107467D01*
X0155773Y0107432D01*
X0159374Y0107432D01*
X0160030Y0107161D01*
X0162247Y0107161D01*
X0164295Y0108009D01*
X0165862Y0109576D01*
X0166710Y0111624D01*
X0166710Y0113841D01*
X0165862Y0115888D01*
X0164295Y0117456D01*
X0163627Y0117732D01*
X0164295Y0118009D01*
X0165862Y0119576D01*
X0166710Y0121624D01*
X0166710Y0123841D01*
X0165862Y0125888D01*
X0164295Y0127456D01*
X0162247Y0128304D01*
X0160030Y0128304D01*
X0157982Y0127456D01*
X0156415Y0125888D01*
X0155567Y0123841D01*
X0155567Y0121624D01*
X0155663Y0121392D01*
X0153821Y0123234D01*
X0152330Y0124725D01*
X0150382Y0125532D01*
X0142456Y0125532D01*
X0143563Y0126639D01*
X0144529Y0128971D01*
X0144529Y0131494D01*
X0143563Y0133825D01*
X0141779Y0135610D01*
X0139447Y0136576D01*
X0142061Y0135328D02*
X0185689Y0135328D01*
X0185331Y0134709D02*
X0184541Y0131759D01*
X0184541Y0128705D01*
X0185331Y0125756D01*
X0186858Y0123111D01*
X0189017Y0120952D01*
X0191662Y0119425D01*
X0194612Y0118635D01*
X0197665Y0118635D01*
X0200615Y0119425D01*
X0203260Y0120952D01*
X0205419Y0123111D01*
X0206946Y0125756D01*
X0207736Y0128705D01*
X0207736Y0131759D01*
X0206946Y0134709D01*
X0205419Y0137353D01*
X0203260Y0139513D01*
X0200615Y0141040D01*
X0197665Y0141830D01*
X0194612Y0141830D01*
X0191662Y0141040D01*
X0189017Y0139513D01*
X0186858Y0137353D01*
X0185331Y0134709D01*
X0184854Y0132930D02*
X0143934Y0132930D01*
X0144529Y0130531D02*
X0184541Y0130531D01*
X0184694Y0128133D02*
X0162661Y0128133D01*
X0165926Y0125734D02*
X0185344Y0125734D01*
X0186729Y0123335D02*
X0166710Y0123335D01*
X0166464Y0120937D02*
X0166426Y0120937D01*
X0165567Y0118538D02*
X0164824Y0118538D01*
X0165610Y0116140D02*
X0165767Y0116140D01*
X0166710Y0113741D02*
X0167250Y0113741D01*
X0166870Y0111343D02*
X0166594Y0111343D01*
X0165610Y0108944D02*
X0165230Y0108944D01*
X0165599Y0106546D02*
X0155690Y0106546D01*
X0155690Y0104147D02*
X0166844Y0104147D01*
X0175433Y0104147D02*
X0176586Y0104147D01*
X0176586Y0101749D02*
X0155690Y0101749D01*
X0155690Y0099350D02*
X0176586Y0099350D01*
X0176586Y0096952D02*
X0155690Y0096952D01*
X0155690Y0094553D02*
X0176586Y0094553D01*
X0176586Y0092155D02*
X0155690Y0092155D01*
X0155803Y0089756D02*
X0176474Y0089756D01*
X0184269Y0082561D02*
X0231005Y0082561D01*
X0231005Y0080162D02*
X0181871Y0080162D01*
X0186499Y0084959D02*
X0231005Y0084959D01*
X0231005Y0087358D02*
X0187186Y0087358D01*
X0187186Y0089756D02*
X0191088Y0089756D01*
X0187814Y0092155D02*
X0187186Y0092155D01*
X0201189Y0089756D02*
X0231005Y0089756D01*
X0231005Y0092155D02*
X0204463Y0092155D01*
X0206252Y0094553D02*
X0231005Y0094553D01*
X0231005Y0096952D02*
X0207266Y0096952D01*
X0207736Y0099350D02*
X0231005Y0099350D01*
X0231005Y0101749D02*
X0207736Y0101749D01*
X0207096Y0104147D02*
X0231005Y0104147D01*
X0231005Y0106546D02*
X0205885Y0106546D01*
X0203828Y0108944D02*
X0231005Y0108944D01*
X0231005Y0111343D02*
X0199483Y0111343D01*
X0192794Y0111343D02*
X0187186Y0111343D01*
X0187186Y0113741D02*
X0231005Y0113741D01*
X0231005Y0116140D02*
X0187186Y0116140D01*
X0186076Y0118538D02*
X0231005Y0118538D01*
X0231005Y0120937D02*
X0203234Y0120937D01*
X0205548Y0123335D02*
X0231005Y0123335D01*
X0231005Y0125734D02*
X0206933Y0125734D01*
X0207583Y0128133D02*
X0231005Y0128133D01*
X0231005Y0130531D02*
X0207736Y0130531D01*
X0207422Y0132930D02*
X0231005Y0132930D01*
X0231005Y0135328D02*
X0206588Y0135328D01*
X0205046Y0137727D02*
X0231005Y0137727D01*
X0231005Y0140125D02*
X0202199Y0140125D01*
X0190078Y0140125D02*
X0123757Y0140125D01*
X0124499Y0139383D02*
X0122770Y0141112D01*
X0120511Y0142048D01*
X0118065Y0142048D01*
X0115806Y0141112D01*
X0114077Y0139383D01*
X0113142Y0137124D01*
X0113142Y0134679D01*
X0114077Y0132420D01*
X0115806Y0130691D01*
X0118065Y0129755D01*
X0120511Y0129755D01*
X0122770Y0130691D01*
X0124499Y0132420D01*
X0125434Y0134679D01*
X0125434Y0137124D01*
X0124499Y0139383D01*
X0125185Y0137727D02*
X0187231Y0137727D01*
X0173098Y0152118D02*
X0220137Y0152118D01*
X0216891Y0154516D02*
X0174752Y0154516D01*
X0175014Y0156915D02*
X0215126Y0156915D01*
X0214136Y0159313D02*
X0174022Y0159313D01*
X0172581Y0161712D02*
X0213694Y0161712D01*
X0213726Y0164110D02*
X0174584Y0164110D01*
X0175014Y0166509D02*
X0214369Y0166509D01*
X0230250Y0152118D02*
X0231005Y0152118D01*
X0231005Y0149719D02*
X0163616Y0149719D01*
X0164967Y0147321D02*
X0231005Y0147321D01*
X0231005Y0144922D02*
X0164921Y0144922D01*
X0163504Y0142524D02*
X0231005Y0142524D01*
X0189043Y0120937D02*
X0183677Y0120937D01*
X0184889Y0119725D02*
X0184889Y0119725D01*
X0176586Y0112432D02*
X0176586Y0109139D01*
X0175862Y0110888D01*
X0174318Y0112432D01*
X0176586Y0112432D01*
X0176586Y0111343D02*
X0175407Y0111343D01*
X0187186Y0108944D02*
X0188449Y0108944D01*
X0159616Y0128133D02*
X0144182Y0128133D01*
X0142658Y0125734D02*
X0156351Y0125734D01*
X0155567Y0123335D02*
X0153720Y0123335D01*
X0145090Y0104147D02*
X0143241Y0104147D01*
X0144423Y0101749D02*
X0145090Y0101749D01*
X0145090Y0099350D02*
X0144529Y0099350D01*
X0145090Y0096952D02*
X0143693Y0096952D01*
X0145090Y0094553D02*
X0141051Y0094553D01*
X0145090Y0092155D02*
X0124943Y0092155D01*
X0124499Y0091081D02*
X0125434Y0093340D01*
X0125434Y0095786D01*
X0124499Y0098045D01*
X0122770Y0099774D01*
X0120511Y0100709D01*
X0118065Y0100709D01*
X0115806Y0099774D01*
X0114077Y0098045D01*
X0113142Y0095786D01*
X0113142Y0093340D01*
X0114077Y0091081D01*
X0115806Y0089352D01*
X0118065Y0088417D01*
X0120511Y0088417D01*
X0122770Y0089352D01*
X0124499Y0091081D01*
X0123174Y0089756D02*
X0145090Y0089756D01*
X0145090Y0087358D02*
X0113886Y0087358D01*
X0114196Y0086610D02*
X0113142Y0089155D01*
X0111194Y0091103D01*
X0108649Y0092157D01*
X0097644Y0092157D01*
X0095099Y0091103D01*
X0093151Y0089155D01*
X0092096Y0086610D01*
X0092096Y0083855D01*
X0093151Y0081310D01*
X0095099Y0079362D01*
X0097644Y0078307D01*
X0108649Y0078307D01*
X0111194Y0079362D01*
X0113142Y0081310D01*
X0114196Y0083855D01*
X0114196Y0086610D01*
X0114196Y0084959D02*
X0145778Y0084959D01*
X0148008Y0082561D02*
X0113660Y0082561D01*
X0111995Y0080162D02*
X0150406Y0080162D01*
X0128233Y0094553D02*
X0125434Y0094553D01*
X0125592Y0096952D02*
X0124951Y0096952D01*
X0124756Y0099350D02*
X0123193Y0099350D01*
X0124861Y0101749D02*
X0113324Y0101749D01*
X0115383Y0099350D02*
X0111167Y0099350D01*
X0113625Y0096952D02*
X0085014Y0096952D01*
X0084768Y0094553D02*
X0113142Y0094553D01*
X0113633Y0092155D02*
X0108655Y0092155D01*
X0112541Y0089756D02*
X0115402Y0089756D01*
X0097638Y0092155D02*
X0083135Y0092155D01*
X0076543Y0092155D02*
X0073135Y0092155D01*
X0074768Y0094553D02*
X0074911Y0094553D01*
X0074839Y0097628D02*
X0074226Y0099108D01*
X0072771Y0100564D01*
X0071291Y0101177D01*
X0072771Y0101790D01*
X0074226Y0103246D01*
X0074839Y0104726D01*
X0075452Y0103246D01*
X0076908Y0101790D01*
X0078388Y0101177D01*
X0076908Y0100564D01*
X0075452Y0099108D01*
X0074839Y0097628D01*
X0073984Y0099350D02*
X0075694Y0099350D01*
X0077008Y0101749D02*
X0072671Y0101749D01*
X0074600Y0104147D02*
X0075079Y0104147D01*
X0074839Y0107628D02*
X0074226Y0109108D01*
X0072771Y0110564D01*
X0071291Y0111177D01*
X0072771Y0111790D01*
X0074226Y0113246D01*
X0074839Y0114726D01*
X0075452Y0113246D01*
X0076908Y0111790D01*
X0078388Y0111177D01*
X0076908Y0110564D01*
X0075452Y0109108D01*
X0074839Y0107628D01*
X0074294Y0108944D02*
X0075384Y0108944D01*
X0077988Y0111343D02*
X0071691Y0111343D01*
X0068388Y0111177D02*
X0066908Y0110564D01*
X0065839Y0109495D01*
X0065839Y0112859D01*
X0066908Y0111790D01*
X0068388Y0111177D01*
X0067988Y0111343D02*
X0065839Y0111343D01*
X0065839Y0119495D02*
X0065839Y0122859D01*
X0066908Y0121790D01*
X0068388Y0121177D01*
X0066908Y0120564D01*
X0065839Y0119495D01*
X0065839Y0120937D02*
X0067808Y0120937D01*
X0071291Y0121177D02*
X0072771Y0121790D01*
X0074226Y0123246D01*
X0074839Y0124726D01*
X0075452Y0123246D01*
X0076908Y0121790D01*
X0078388Y0121177D01*
X0076908Y0120564D01*
X0075452Y0119108D01*
X0074839Y0117628D01*
X0074226Y0119108D01*
X0072771Y0120564D01*
X0071291Y0121177D01*
X0071870Y0120937D02*
X0077808Y0120937D01*
X0075415Y0123335D02*
X0074263Y0123335D01*
X0074462Y0118538D02*
X0075216Y0118538D01*
X0075247Y0113741D02*
X0074431Y0113741D01*
X0081691Y0111343D02*
X0095678Y0111343D01*
X0093063Y0108944D02*
X0084294Y0108944D01*
X0085014Y0106546D02*
X0092096Y0106546D01*
X0092096Y0104147D02*
X0084600Y0104147D01*
X0082671Y0101749D02*
X0092969Y0101749D01*
X0095126Y0099350D02*
X0083984Y0099350D01*
X0093752Y0089756D02*
X0065839Y0089756D01*
X0065839Y0087358D02*
X0092406Y0087358D01*
X0092096Y0084959D02*
X0065839Y0084959D01*
X0065839Y0082561D02*
X0092632Y0082561D01*
X0094298Y0080162D02*
X0065839Y0080162D01*
X0077717Y0077764D02*
X0219127Y0077764D01*
X0216308Y0075365D02*
X0080536Y0075365D01*
X0082054Y0072967D02*
X0214790Y0072967D01*
X0213980Y0070568D02*
X0082864Y0070568D01*
X0083149Y0068170D02*
X0213694Y0068170D01*
X0213883Y0065771D02*
X0082961Y0065771D01*
X0082264Y0063373D02*
X0214580Y0063373D01*
X0126043Y0104147D02*
X0123785Y0104147D01*
X0125197Y0106546D02*
X0125815Y0106546D01*
X0124756Y0111343D02*
X0124698Y0111343D01*
X0125687Y0113741D02*
X0122315Y0113741D01*
X0120907Y0116140D02*
X0126221Y0116140D01*
X0124935Y0118538D02*
X0124397Y0118538D01*
X0125434Y0123335D02*
X0125519Y0123335D01*
X0126627Y0125734D02*
X0124368Y0125734D01*
X0125103Y0128133D02*
X0120839Y0128133D01*
X0122384Y0130531D02*
X0124756Y0130531D01*
X0124710Y0132930D02*
X0125350Y0132930D01*
X0125434Y0135328D02*
X0127224Y0135328D01*
X0126175Y0142524D02*
X0113645Y0142524D01*
X0113142Y0141310D02*
X0114196Y0143855D01*
X0114196Y0146610D01*
X0113142Y0149155D01*
X0111194Y0151103D01*
X0108649Y0152157D01*
X0097644Y0152157D01*
X0095099Y0151103D01*
X0093151Y0149155D01*
X0092096Y0146610D01*
X0092096Y0143855D01*
X0093151Y0141310D01*
X0095099Y0139362D01*
X0097644Y0138307D01*
X0108649Y0138307D01*
X0111194Y0139362D01*
X0113142Y0141310D01*
X0111958Y0140125D02*
X0114819Y0140125D01*
X0113391Y0137727D02*
X0084799Y0137727D01*
X0083210Y0140125D02*
X0094335Y0140125D01*
X0092648Y0142524D02*
X0083504Y0142524D01*
X0084921Y0144922D02*
X0092096Y0144922D01*
X0092391Y0147321D02*
X0084967Y0147321D01*
X0083616Y0149719D02*
X0093715Y0149719D01*
X0097548Y0152118D02*
X0076707Y0152118D01*
X0079952Y0154516D02*
X0124926Y0154516D01*
X0124664Y0156915D02*
X0081717Y0156915D01*
X0082708Y0159313D02*
X0125657Y0159313D01*
X0127097Y0161712D02*
X0122581Y0161712D01*
X0124584Y0164110D02*
X0125094Y0164110D01*
X0124839Y0167628D02*
X0124566Y0168287D01*
X0125112Y0168287D01*
X0124839Y0167628D01*
X0117097Y0161712D02*
X0112581Y0161712D01*
X0114584Y0164110D02*
X0115094Y0164110D01*
X0114839Y0167628D02*
X0114566Y0168287D01*
X0115112Y0168287D01*
X0114839Y0167628D01*
X0107097Y0161712D02*
X0102581Y0161712D01*
X0104584Y0164110D02*
X0105094Y0164110D01*
X0104839Y0167628D02*
X0104566Y0168287D01*
X0105112Y0168287D01*
X0104839Y0167628D01*
X0097097Y0161712D02*
X0092581Y0161712D01*
X0094584Y0164110D02*
X0095094Y0164110D01*
X0094839Y0167628D02*
X0094566Y0168287D01*
X0095112Y0168287D01*
X0094839Y0167628D01*
X0087097Y0161712D02*
X0083149Y0161712D01*
X0083117Y0164110D02*
X0085094Y0164110D01*
X0084664Y0166509D02*
X0082475Y0166509D01*
X0067212Y0151761D02*
X0065839Y0152553D01*
X0065839Y0149495D01*
X0066908Y0150564D01*
X0068782Y0151340D01*
X0067212Y0151761D01*
X0066594Y0152118D02*
X0065839Y0152118D01*
X0065839Y0149719D02*
X0066063Y0149719D01*
X0073616Y0149719D02*
X0076063Y0149719D01*
X0074839Y0144726D02*
X0075452Y0143246D01*
X0076908Y0141790D01*
X0078388Y0141177D01*
X0076908Y0140564D01*
X0075452Y0139108D01*
X0074839Y0137628D01*
X0074226Y0139108D01*
X0072771Y0140564D01*
X0071291Y0141177D01*
X0072771Y0141790D01*
X0074226Y0143246D01*
X0074839Y0144726D01*
X0073504Y0142524D02*
X0076175Y0142524D01*
X0076469Y0140125D02*
X0073210Y0140125D01*
X0074799Y0137727D02*
X0074880Y0137727D01*
X0074839Y0134726D02*
X0075452Y0133246D01*
X0076908Y0131790D01*
X0078388Y0131177D01*
X0076908Y0130564D01*
X0075452Y0129108D01*
X0074839Y0127628D01*
X0074226Y0129108D01*
X0072771Y0130564D01*
X0071291Y0131177D01*
X0072771Y0131790D01*
X0074226Y0133246D01*
X0074839Y0134726D01*
X0073910Y0132930D02*
X0075769Y0132930D01*
X0076875Y0130531D02*
X0072804Y0130531D01*
X0074630Y0128133D02*
X0075048Y0128133D01*
X0068388Y0131177D02*
X0066908Y0130564D01*
X0065839Y0129495D01*
X0065839Y0132859D01*
X0066908Y0131790D01*
X0068388Y0131177D01*
X0066875Y0130531D02*
X0065839Y0130531D01*
X0065839Y0139495D02*
X0065839Y0142859D01*
X0066908Y0141790D01*
X0068388Y0141177D01*
X0066908Y0140564D01*
X0065839Y0139495D01*
X0065839Y0140125D02*
X0066469Y0140125D01*
X0066175Y0142524D02*
X0065839Y0142524D01*
X0082804Y0130531D02*
X0094527Y0130531D01*
X0092727Y0128133D02*
X0084630Y0128133D01*
X0085014Y0125734D02*
X0092096Y0125734D01*
X0092311Y0123335D02*
X0084263Y0123335D01*
X0081870Y0120937D02*
X0093523Y0120937D01*
X0097086Y0118538D02*
X0084462Y0118538D01*
X0085014Y0116140D02*
X0117669Y0116140D01*
X0116261Y0113741D02*
X0084431Y0113741D01*
X0068388Y0101177D02*
X0066908Y0100564D01*
X0065839Y0099495D01*
X0065839Y0102859D01*
X0066908Y0101790D01*
X0068388Y0101177D01*
X0067008Y0101749D02*
X0065839Y0101749D01*
X0065839Y0092155D02*
X0066543Y0092155D01*
X0109207Y0118538D02*
X0114179Y0118538D01*
X0113142Y0120937D02*
X0112769Y0120937D01*
X0114196Y0125734D02*
X0114208Y0125734D01*
X0113566Y0128133D02*
X0117737Y0128133D01*
X0116192Y0130531D02*
X0111766Y0130531D01*
X0113866Y0132930D02*
X0083910Y0132930D01*
X0085014Y0135328D02*
X0113142Y0135328D01*
X0114196Y0144922D02*
X0124758Y0144922D01*
X0124712Y0147321D02*
X0113902Y0147321D01*
X0112578Y0149719D02*
X0126063Y0149719D01*
X0126580Y0152118D02*
X0108745Y0152118D01*
X0141291Y0151177D02*
X0142771Y0151790D01*
X0144226Y0153246D01*
X0144839Y0154726D01*
X0145452Y0153246D01*
X0146908Y0151790D01*
X0148388Y0151177D01*
X0146908Y0150564D01*
X0145452Y0149108D01*
X0144839Y0147628D01*
X0144226Y0149108D01*
X0142771Y0150564D01*
X0141291Y0151177D01*
X0143098Y0152118D02*
X0146580Y0152118D01*
X0144926Y0154516D02*
X0144752Y0154516D01*
X0144839Y0157628D02*
X0144226Y0159108D01*
X0142771Y0160564D01*
X0141291Y0161177D01*
X0142771Y0161790D01*
X0144226Y0163246D01*
X0144839Y0164726D01*
X0145452Y0163246D01*
X0146908Y0161790D01*
X0148388Y0161177D01*
X0146908Y0160564D01*
X0145452Y0159108D01*
X0144839Y0157628D01*
X0144022Y0159313D02*
X0145657Y0159313D01*
X0147097Y0161712D02*
X0142581Y0161712D01*
X0144584Y0164110D02*
X0145094Y0164110D01*
X0144839Y0167628D02*
X0144566Y0168287D01*
X0145112Y0168287D01*
X0144839Y0167628D01*
X0151291Y0161177D02*
X0152771Y0161790D01*
X0154226Y0163246D01*
X0154839Y0164726D01*
X0155452Y0163246D01*
X0156908Y0161790D01*
X0158388Y0161177D01*
X0156908Y0160564D01*
X0155452Y0159108D01*
X0154839Y0157628D01*
X0154226Y0159108D01*
X0152771Y0160564D01*
X0151291Y0161177D01*
X0152581Y0161712D02*
X0157097Y0161712D01*
X0155657Y0159313D02*
X0154022Y0159313D01*
X0154584Y0164110D02*
X0155094Y0164110D01*
X0154839Y0167628D02*
X0154566Y0168287D01*
X0155112Y0168287D01*
X0154839Y0167628D01*
X0161291Y0161177D02*
X0162771Y0161790D01*
X0164226Y0163246D01*
X0164839Y0164726D01*
X0165452Y0163246D01*
X0166908Y0161790D01*
X0168388Y0161177D01*
X0166908Y0160564D01*
X0165452Y0159108D01*
X0164839Y0157628D01*
X0164226Y0159108D01*
X0162771Y0160564D01*
X0161291Y0161177D01*
X0162581Y0161712D02*
X0167097Y0161712D01*
X0165657Y0159313D02*
X0164022Y0159313D01*
X0164584Y0164110D02*
X0165094Y0164110D01*
X0164839Y0167628D02*
X0164566Y0168287D01*
X0165112Y0168287D01*
X0164839Y0167628D01*
X0164752Y0154516D02*
X0164926Y0154516D01*
X0166580Y0152118D02*
X0163098Y0152118D01*
X0158388Y0151177D02*
X0156908Y0150564D01*
X0155452Y0149108D01*
X0154839Y0147628D01*
X0154226Y0149108D01*
X0152771Y0150564D01*
X0151291Y0151177D01*
X0152771Y0151790D01*
X0154226Y0153246D01*
X0154839Y0154726D01*
X0155452Y0153246D01*
X0156908Y0151790D01*
X0158388Y0151177D01*
X0156580Y0152118D02*
X0153098Y0152118D01*
X0154752Y0154516D02*
X0154926Y0154516D01*
X0156063Y0149719D02*
X0153616Y0149719D01*
X0146063Y0149719D02*
X0143616Y0149719D01*
X0143504Y0142524D02*
X0146175Y0142524D01*
X0153504Y0142524D02*
X0156175Y0142524D01*
X0113878Y0111343D02*
X0110615Y0111343D01*
X0114196Y0104147D02*
X0114791Y0104147D01*
M02*
