  0
SECTION
  2
HEADER
  9
$ACADVER
  1
AC1021
  9
$ACADMAINTVER
 70
    25
  9
$DWGCODEPAGE
  3
ANSI_1252
  9
$INSBASE
 10
0.0
 20
0.0
 30
0.0
  9
$EXTMIN
 10
-30.725
 20
-56.5251
 30
0.0
  9
$EXTMAX
 10
30.725
 20
56.525
 30
0.0
  9
$LIMMIN
 10
0.0
 20
0.0
  9
$LIMMAX
 10
12.0
 20
9.0
  9
$ORTHOMODE
 70
     0
  9
$REGENMODE
 70
     1
  9
$FILLMODE
 70
     1
  9
$QTEXTMODE
 70
     0
  9
$MIRRTEXT
 70
     1
  9
$LTSCALE
 40
1.0
  9
$ATTMODE
 70
     1
  9
$TEXTSIZE
 40
0.2
  9
$TRACEWID
 40
0.05
  9
$TEXTSTYLE
  7
Standard
  9
$CLAYER
  8
0
  9
$CELTYPE
  6
ByLayer
  9
$CECOLOR
 62
   256
  9
$CELTSCALE
 40
1.0
  9
$DISPSILH
 70
     0
  9
$DIMSCALE
 40
1.0
  9
$DIMASZ
 40
0.18
  9
$DIMEXO
 40
0.0625
  9
$DIMDLI
 40
0.38
  9
$DIMRND
 40
0.0
  9
$DIMDLE
 40
0.0
  9
$DIMEXE
 40
0.18
  9
$DIMTP
 40
0.0
  9
$DIMTM
 40
0.0
  9
$DIMTXT
 40
0.18
  9
$DIMCEN
 40
0.09
  9
$DIMTSZ
 40
0.0
  9
$DIMTOL
 70
     0
  9
$DIMLIM
 70
     0
  9
$DIMTIH
 70
     1
  9
$DIMTOH
 70
     1
  9
$DIMSE1
 70
     0
  9
$DIMSE2
 70
     0
  9
$DIMTAD
 70
     0
  9
$DIMZIN
 70
     0
  9
$DIMBLK
  1

  9
$DIMASO
 70
     1
  9
$DIMSHO
 70
     1
  9
$DIMPOST
  1

  9
$DIMAPOST
  1

  9
$DIMALT
 70
     0
  9
$DIMALTD
 70
     2
  9
$DIMALTF
 40
25.4
  9
$DIMLFAC
 40
1.0
  9
$DIMTOFL
 70
     0
  9
$DIMTVP
 40
0.0
  9
$DIMTIX
 70
     0
  9
$DIMSOXD
 70
     0
  9
$DIMSAH
 70
     0
  9
$DIMBLK1
  1

  9
$DIMBLK2
  1

  9
$DIMSTYLE
  2
Standard
  9
$DIMCLRD
 70
     0
  9
$DIMCLRE
 70
     0
  9
$DIMCLRT
 70
     0
  9
$DIMTFAC
 40
1.0
  9
$DIMGAP
 40
0.09
  9
$DIMJUST
 70
     0
  9
$DIMSD1
 70
     0
  9
$DIMSD2
 70
     0
  9
$DIMTOLJ
 70
     1
  9
$DIMTZIN
 70
     0
  9
$DIMALTZ
 70
     0
  9
$DIMALTTZ
 70
     0
  9
$DIMUPT
 70
     0
  9
$DIMDEC
 70
     4
  9
$DIMTDEC
 70
     4
  9
$DIMALTU
 70
     2
  9
$DIMALTTD
 70
     2
  9
$DIMTXSTY
  7
Standard
  9
$DIMAUNIT
 70
     0
  9
$DIMADEC
 70
     0
  9
$DIMALTRND
 40
0.0
  9
$DIMAZIN
 70
     0
  9
$DIMDSEP
 70
    46
  9
$DIMATFIT
 70
     3
  9
$DIMFRAC
 70
     0
  9
$DIMLDRBLK
  1

  9
$DIMLUNIT
 70
     2
  9
$DIMLWD
 70
    -2
  9
$DIMLWE
 70
    -2
  9
$DIMTMOVE
 70
     0
  9
$DIMFXL
 40
1.0
  9
$DIMFXLON
 70
     0
  9
$DIMJOGANG
 40
0.7853981633974483
  9
$DIMTFILL
 70
     0
  9
$DIMTFILLCLR
 70
     0
  9
$DIMARCSYM
 70
     0
  9
$DIMLTYPE
  6

  9
$DIMLTEX1
  6

  9
$DIMLTEX2
  6

  9
$LUNITS
 70
     2
  9
$LUPREC
 70
     4
  9
$SKETCHINC
 40
0.1
  9
$FILLETRAD
 40
0.5
  9
$AUNITS
 70
     0
  9
$AUPREC
 70
     0
  9
$MENU
  1
.
  9
$ELEVATION
 40
0.0
  9
$PELEVATION
 40
0.0
  9
$THICKNESS
 40
0.0
  9
$LIMCHECK
 70
     0
  9
$CHAMFERA
 40
0.5
  9
$CHAMFERB
 40
0.5
  9
$CHAMFERC
 40
1.0
  9
$CHAMFERD
 40
0.0
  9
$SKPOLY
 70
     0
  9
$TDCREATE
 40
2458514.507152245
  9
$TDUCREATE
 40
2458514.465485579
  9
$TDUPDATE
 40
2458514.507152257
  9
$TDUUPDATE
 40
2458514.465485591
  9
$TDINDWG
 40
0.0000000116
  9
$TDUSRTIMER
 40
0.0000000116
  9
$USRTIMER
 70
     1
  9
$ANGBASE
 50
0.0
  9
$ANGDIR
 70
     0
  9
$PDMODE
 70
     0
  9
$PDSIZE
 40
0.0
  9
$PLINEWID
 40
0.0
  9
$SPLFRAME
 70
     0
  9
$SPLINETYPE
 70
     6
  9
$SPLINESEGS
 70
     8
  9
$HANDSEED
  5
E4
  9
$SURFTAB1
 70
     6
  9
$SURFTAB2
 70
     6
  9
$SURFTYPE
 70
     6
  9
$SURFU
 70
     6
  9
$SURFV
 70
     6
  9
$UCSBASE
  2

  9
$UCSNAME
  2

  9
$UCSORG
 10
0.0
 20
0.0
 30
0.0
  9
$UCSXDIR
 10
1.0
 20
0.0
 30
0.0
  9
$UCSYDIR
 10
0.0
 20
1.0
 30
0.0
  9
$UCSORTHOREF
  2

  9
$UCSORTHOVIEW
 70
     0
  9
$UCSORGTOP
 10
0.0
 20
0.0
 30
0.0
  9
$UCSORGBOTTOM
 10
0.0
 20
0.0
 30
0.0
  9
$UCSORGLEFT
 10
0.0
 20
0.0
 30
0.0
  9
$UCSORGRIGHT
 10
0.0
 20
0.0
 30
0.0
  9
$UCSORGFRONT
 10
0.0
 20
0.0
 30
0.0
  9
$UCSORGBACK
 10
0.0
 20
0.0
 30
0.0
  9
$PUCSBASE
  2

  9
$PUCSNAME
  2

  9
$PUCSORG
 10
0.0
 20
0.0
 30
0.0
  9
$PUCSXDIR
 10
1.0
 20
0.0
 30
0.0
  9
$PUCSYDIR
 10
0.0
 20
1.0
 30
0.0
  9
$PUCSORTHOREF
  2

  9
$PUCSORTHOVIEW
 70
     0
  9
$PUCSORGTOP
 10
0.0
 20
0.0
 30
0.0
  9
$PUCSORGBOTTOM
 10
0.0
 20
0.0
 30
0.0
  9
$PUCSORGLEFT
 10
0.0
 20
0.0
 30
0.0
  9
$PUCSORGRIGHT
 10
0.0
 20
0.0
 30
0.0
  9
$PUCSORGFRONT
 10
0.0
 20
0.0
 30
0.0
  9
$PUCSORGBACK
 10
0.0
 20
0.0
 30
0.0
  9
$USERI1
 70
     0
  9
$USERI2
 70
     0
  9
$USERI3
 70
     0
  9
$USERI4
 70
     0
  9
$USERI5
 70
     0
  9
$USERR1
 40
0.0
  9
$USERR2
 40
0.0
  9
$USERR3
 40
0.0
  9
$USERR4
 40
0.0
  9
$USERR5
 40
0.0
  9
$WORLDVIEW
 70
     1
  9
$SHADEDGE
 70
     3
  9
$SHADEDIF
 70
    70
  9
$TILEMODE
 70
     1
  9
$MAXACTVP
 70
    64
  9
$PINSBASE
 10
0.0
 20
0.0
 30
0.0
  9
$PLIMCHECK
 70
     0
  9
$PEXTMIN
 10
1.000000000000000E+20
 20
1.000000000000000E+20
 30
1.000000000000000E+20
  9
$PEXTMAX
 10
-1.000000000000000E+20
 20
-1.000000000000000E+20
 30
-1.000000000000000E+20
  9
$PLIMMIN
 10
0.0
 20
0.0
  9
$PLIMMAX
 10
12.0
 20
9.0
  9
$UNITMODE
 70
     0
  9
$VISRETAIN
 70
     1
  9
$PLINEGEN
 70
     0
  9
$PSLTSCALE
 70
     1
  9
$TREEDEPTH
 70
  3020
  9
$CMLSTYLE
  2
Standard
  9
$CMLJUST
 70
     0
  9
$CMLSCALE
 40
1.0
  9
$PROXYGRAPHICS
 70
     1
  9
$MEASUREMENT
 70
     0
  9
$CELWEIGHT
370
    -1
  9
$ENDCAPS
280
     0
  9
$JOINSTYLE
280
     0
  9
$LWDISPLAY
290
     0
  9
$INSUNITS
 70
     4
  9
$HYPERLINKBASE
  1

  9
$STYLESHEET
  1

  9
$XEDIT
290
     1
  9
$CEPSNTYPE
380
     0
  9
$PSTYLEMODE
290
     1
  9
$FINGERPRINTGUID
  2
{DEC41B96-F635-4A9E-BF92-BF64E90C9B84}
  9
$VERSIONGUID
  2
{FAEB1C32-E019-11D5-929B-00C0DF256EC4}
  9
$EXTNAMES
290
     1
  9
$PSVPSCALE
 40
0.0
  9
$OLESTARTUP
290
     0
  9
$SORTENTS
280
   127
  9
$INDEXCTL
280
     0
  9
$HIDETEXT
280
     1
  9
$XCLIPFRAME
290
     0
  9
$HALOGAP
280
     0
  9
$OBSCOLOR
 70
   257
  9
$OBSLTYPE
280
     0
  9
$INTERSECTIONDISPLAY
280
     0
  9
$INTERSECTIONCOLOR
 70
   257
  9
$DIMASSOC
280
     2
  9
$PROJECTNAME
  1

  9
$CAMERADISPLAY
290
     0
  9
$LENSLENGTH
 40
50.0
  9
$CAMERAHEIGHT
 40
0.0
  9
$STEPSPERSEC
 40
2.0
  9
$STEPSIZE
 40
6.0
  9
$3DDWFPREC
 40
2.0
  9
$PSOLWIDTH
 40
0.25
  9
$PSOLHEIGHT
 40
4.0
  9
$LOFTANG1
 40
1.570796326794897
  9
$LOFTANG2
 40
1.570796326794897
  9
$LOFTMAG1
 40
0.0
  9
$LOFTMAG2
 40
0.0
  9
$LOFTPARAM
 70
     7
  9
$LOFTNORMALS
280
     1
  9
$LATITUDE
 40
37.795
  9
$LONGITUDE
 40
-122.394
  9
$NORTHDIRECTION
 40
0.0
  9
$TIMEZONE
 70
 -8000
  9
$LIGHTGLYPHDISPLAY
280
     1
  9
$TILEMODELIGHTSYNCH
280
     1
  9
$SOLIDHIST
280
     1
  9
$SHOWHIST
280
     1
  9
$DWFFRAME
280
     2
  9
$DGNFRAME
280
     2
  9
$REALWORLDSCALE
290
     1
  9
$INTERFERECOLOR
 62
   256
  9
$CSHADOW
280
     0
  9
$SHADOWPLANELOCATION
 40
0.0
  0
ENDSEC
  0
SECTION
  2
CLASSES
  0
CLASS
  1
ACDBDICTIONARYWDFLT
  2
AcDbDictionaryWithDefault
  3
ObjectDBX Classes
 90
        0
 91
        3
280
     0
281
     0
  0
CLASS
  1
VISUALSTYLE
  2
AcDbVisualStyle
  3
ObjectDBX Classes
 90
     4095
 91
        3
280
     0
281
     0
  0
CLASS
  1
SCALE
  2
AcDbScale
  3
ObjectDBX Classes
 90
     1153
 91
        3
280
     0
281
     0
  0
ENDSEC
  0
SECTION
  2
TABLES
  0
TABLE
  2
VPORT
  5
8
330
0
100
AcDbSymbolTable
 70
     1
  0
VPORT
  5
29
330
8
100
AcDbSymbolTableRecord
100
AcDbViewportTableRecord
  2
*Active
 70
     0
 10
0.0
 20
0.0
 11
1.0
 21
1.0
 12
10.42990654205607
 22
4.5
 13
0.0
 23
0.0
 14
0.5
 24
0.5
 15
0.5
 25
0.5
 16
0.0
 26
0.0
 36
1.0
 17
0.0
 27
0.0
 37
0.0
 40
9.0
 41
1.972972972850329
 42
50.0
 43
0.0
 44
0.0
 50
0.0
 51
0.0
 71
     0
 72
   100
 73
     1
 74
     3
 75
     0
 76
     0
 77
     0
 78
     0
281
     0
 65
     1
110
0.0
120
0.0
130
0.0
111
1.0
121
0.0
131
0.0
112
0.0
122
1.0
132
0.0
 79
     0
146
0.0
 60
     3
 61
     5
292
     1
282
     1
141
0.0
142
0.0
 63
   256
  0
ENDTAB
  0
TABLE
  2
LTYPE
  5
5
330
0
100
AcDbSymbolTable
 70
     1
  0
LTYPE
  5
14
330
5
100
AcDbSymbolTableRecord
100
AcDbLinetypeTableRecord
  2
ByBlock
 70
     0
  3

 72
    65
 73
     0
 40
0.0
  0
LTYPE
  5
15
330
5
100
AcDbSymbolTableRecord
100
AcDbLinetypeTableRecord
  2
ByLayer
 70
     0
  3

 72
    65
 73
     0
 40
0.0
  0
LTYPE
  5
16
330
5
100
AcDbSymbolTableRecord
100
AcDbLinetypeTableRecord
  2
Continuous
 70
     0
  3
Solid line
 72
    65
 73
     0
 40
0.0
  0
ENDTAB
  0
TABLE
  2
LAYER
  5
2
330
0
100
AcDbSymbolTable
 70
     2
  0
LAYER
  5
10
330
2
100
AcDbSymbolTableRecord
100
AcDbLayerTableRecord
  2
0
 70
     0
 62
     7
  6
Continuous
370
    -3
390
F
347
0
  0
LAYER
  5
5E
330
2
100
AcDbSymbolTableRecord
100
AcDbLayerTableRecord
  2
Defpoints
 70
     0
 62
     7
  6
Continuous
290
     0
370
    -3
390
F
347
0
  0
ENDTAB
  0
TABLE
  2
STYLE
  5
3
330
0
100
AcDbSymbolTable
 70
     1
  0
STYLE
  5
11
330
3
100
AcDbSymbolTableRecord
100
AcDbTextStyleTableRecord
  2
Standard
 70
     0
 40
0.0
 41
1.0
 50
0.0
 71
     0
 42
0.2
  3
txt
  4

  0
ENDTAB
  0
TABLE
  2
VIEW
  5
6
330
0
100
AcDbSymbolTable
 70
     0
  0
ENDTAB
  0
TABLE
  2
UCS
  5
7
330
0
100
AcDbSymbolTable
 70
     0
  0
ENDTAB
  0
TABLE
  2
APPID
  5
9
330
0
100
AcDbSymbolTable
 70
     2
  0
APPID
  5
12
330
9
100
AcDbSymbolTableRecord
100
AcDbRegAppTableRecord
  2
ACAD
 70
     0
  0
APPID
  5
5D
330
9
100
AcDbSymbolTableRecord
100
AcDbRegAppTableRecord
  2
ODA
 70
     0
  0
ENDTAB
  0
TABLE
  2
DIMSTYLE
  5
A
330
0
100
AcDbSymbolTable
 70
     1
100
AcDbDimStyleTable
  0
DIMSTYLE
105
27
330
A
100
AcDbSymbolTableRecord
100
AcDbDimStyleTableRecord
  2
Standard
 70
     0
340
11
  0
ENDTAB
  0
TABLE
  2
BLOCK_RECORD
  5
1
330
0
100
AcDbSymbolTable
 70
     1
  0
BLOCK_RECORD
  5
1F
330
1
100
AcDbSymbolTableRecord
100
AcDbBlockTableRecord
  2
*Model_Space
340
22
 70
     0
280
     1
281
     0
  0
BLOCK_RECORD
  5
1B
330
1
100
AcDbSymbolTableRecord
100
AcDbBlockTableRecord
  2
*Paper_Space
340
1E
 70
     0
280
     1
281
     0
  0
BLOCK_RECORD
  5
23
330
1
100
AcDbSymbolTableRecord
100
AcDbBlockTableRecord
  2
*Paper_Space0
340
26
 70
     0
280
     1
281
     0
  0
ENDTAB
  0
ENDSEC
  0
SECTION
  2
BLOCKS
  0
BLOCK
  5
20
330
1F
100
AcDbEntity
  8
0
100
AcDbBlockBegin
  2
*Model_Space
 70
     0
 10
0.0
 20
0.0
 30
0.0
  3
*Model_Space
  1

  0
ENDBLK
  5
21
330
1F
100
AcDbEntity
  8
0
100
AcDbBlockEnd
  0
BLOCK
  5
1C
330
1B
100
AcDbEntity
 67
     1
  8
0
100
AcDbBlockBegin
  2
*Paper_Space
 70
     0
 10
0.0
 20
0.0
 30
0.0
  3
*Paper_Space
  1

  0
ENDBLK
  5
1D
330
1B
100
AcDbEntity
 67
     1
  8
0
100
AcDbBlockEnd
  0
BLOCK
  5
24
330
23
100
AcDbEntity
  8
0
100
AcDbBlockBegin
  2
*Paper_Space0
 70
     0
 10
0.0
 20
0.0
 30
0.0
  3
*Paper_Space0
  1

  0
ENDBLK
  5
25
330
23
100
AcDbEntity
  8
0
100
AcDbBlockEnd
  0
ENDSEC
  0
SECTION
  2
ENTITIES
  0
SPLINE
  5
5F
330
1F
100
AcDbEntity
  8
Defpoints
370
    15
100
AcDbSpline
210
0.0
220
0.0
230
1.0
 70
    24
 71
     3
 72
     8
 73
     4
 74
     0
 42
0.0000000001
 43
0.0000000001
 40
0.0
 40
0.0
 40
0.0
 40
0.0
 40
1.0
 40
1.0
 40
1.0
 40
1.0
 10
-28.7547
 20
-27.3902
 30
0.0
 10
-28.7547
 20
-27.3902
 30
0.0
 10
-29.2499
 20
-27.3902
 30
0.0
 10
-29.2499
 20
-27.3902
 30
0.0
  0
SPLINE
  5
60
330
1F
100
AcDbEntity
  8
Defpoints
370
    15
100
AcDbSpline
210
0.0
220
0.0
230
1.0
 70
    24
 71
     3
 72
     8
 73
     4
 74
     0
 42
0.0000000001
 43
0.0000000001
 40
0.0
 40
0.0
 40
0.0
 40
0.0
 40
1.0
 40
1.0
 40
1.0
 40
1.0
 10
29.2499
 20
-27.3902
 30
0.0
 10
29.2499
 20
-27.3902
 30
0.0
 10
28.7547
 20
-27.3902
 30
0.0
 10
28.7547
 20
-27.3902
 30
0.0
  0
SPLINE
  5
61
330
1F
100
AcDbEntity
  8
Defpoints
370
    15
100
AcDbSpline
210
0.0
220
0.0
230
1.0
 70
    24
 71
     3
 72
     8
 73
     4
 74
     0
 42
0.0000000001
 43
0.0000000001
 40
0.0
 40
0.0
 40
0.0
 40
0.0
 40
1.0
 40
1.0
 40
1.0
 40
1.0
 10
-29.2499
 20
28.3097
 30
0.0
 10
-29.2499
 20
28.3097
 30
0.0
 10
-28.7547
 20
28.3097
 30
0.0
 10
-28.7547
 20
28.3097
 30
0.0
  0
SPLINE
  5
62
330
1F
100
AcDbEntity
  8
Defpoints
370
    15
100
AcDbSpline
210
0.0
220
0.0
230
1.0
 70
    24
 71
     3
 72
     8
 73
     4
 74
     0
 42
0.0000000001
 43
0.0000000001
 40
0.0
 40
0.0
 40
0.0
 40
0.0
 40
1.0
 40
1.0
 40
1.0
 40
1.0
 10
28.7547
 20
28.3097
 30
0.0
 10
28.7547
 20
28.3097
 30
0.0
 10
29.2499
 20
28.3097
 30
0.0
 10
29.2499
 20
28.3097
 30
0.0
  0
SPLINE
  5
63
330
1F
100
AcDbEntity
  8
Defpoints
370
    15
100
AcDbSpline
210
0.0
220
0.0
230
1.0
 70
    11
 71
     3
 72
    20
 73
    16
 74
     0
 42
0.0000000001
 43
0.0000000001
 40
0.0
 40
0.0
 40
0.0
 40
0.0
 40
0.25
 40
0.25
 40
0.25
 40
0.25
 40
0.5
 40
0.5
 40
0.5
 40
0.5
 40
0.75
 40
0.75
 40
0.75
 40
0.75
 40
1.0
 40
1.0
 40
1.0
 40
1.0
 10
26.6001
 20
7.7798
 30
0.0
 10
26.6001
 20
8.6634
 30
0.0
 10
25.8837
 20
9.3798
 30
0.0
 10
25.0001
 20
9.3798
 30
0.0
 10
25.0001
 20
9.3798
 30
0.0
 10
24.1164
 20
9.3798
 30
0.0
 10
23.4001
 20
8.6634
 30
0.0
 10
23.4001
 20
7.7798
 30
0.0
 10
23.4001
 20
7.7798
 30
0.0
 10
23.4001
 20
6.8961
 30
0.0
 10
24.1164
 20
6.1798
 30
0.0
 10
25.0
 20
6.1798
 30
0.0
 10
25.0
 20
6.1798
 30
0.0
 10
25.8837
 20
6.1798
 30
0.0
 10
26.6
 20
6.8961
 30
0.0
 10
26.6001
 20
7.7798
 30
0.0
  0
SPLINE
  5
64
330
1F
100
AcDbEntity
  8
Defpoints
370
    15
100
AcDbSpline
210
0.0
220
0.0
230
1.0
 70
    11
 71
     3
 72
    20
 73
    16
 74
     0
 42
0.0000000001
 43
0.0000000001
 40
0.0
 40
0.0
 40
0.0
 40
0.0
 40
0.25
 40
0.25
 40
0.25
 40
0.25
 40
0.5
 40
0.5
 40
0.5
 40
0.5
 40
0.75
 40
0.75
 40
0.75
 40
0.75
 40
1.0
 40
1.0
 40
1.0
 40
1.0
 10
27.7501
 20
7.7798
 30
0.0
 10
27.7501
 20
9.2986
 30
0.0
 10
26.5188
 20
10.5298
 30
0.0
 10
25.0001
 20
10.5298
 30
0.0
 10
25.0001
 20
10.5298
 30
0.0
 10
23.4813
 20
10.5298
 30
0.0
 10
22.2501
 20
9.2986
 30
0.0
 10
22.2501
 20
7.7798
 30
0.0
 10
22.2501
 20
7.7798
 30
0.0
 10
22.25
 20
6.261
 30
0.0
 10
23.4813
 20
5.0298
 30
0.0
 10
25.0
 20
5.0298
 30
0.0
 10
25.0
 20
5.0298
 30
0.0
 10
26.5188
 20
5.0298
 30
0.0
 10
27.75
 20
6.261
 30
0.0
 10
27.7501
 20
7.7798
 30
0.0
  0
SPLINE
  5
65
330
1F
100
AcDbEntity
  8
Defpoints
370
    15
100
AcDbSpline
210
0.0
220
0.0
230
1.0
 70
    11
 71
     3
 72
    20
 73
    16
 74
     0
 42
0.0000000001
 43
0.0000000001
 40
0.0
 40
0.0
 40
0.0
 40
0.0
 40
0.25
 40
0.25
 40
0.25
 40
0.25
 40
0.5
 40
0.5
 40
0.5
 40
0.5
 40
0.75
 40
0.75
 40
0.75
 40
0.75
 40
1.0
 40
1.0
 40
1.0
 40
1.0
 10
-23.3999
 20
7.7798
 30
0.0
 10
-23.3999
 20
8.6634
 30
0.0
 10
-24.1163
 20
9.3798
 30
0.0
 10
-24.9999
 20
9.3798
 30
0.0
 10
-24.9999
 20
9.3798
 30
0.0
 10
-25.8836
 20
9.3798
 30
0.0
 10
-26.5999
 20
8.6634
 30
0.0
 10
-26.5999
 20
7.7798
 30
0.0
 10
-26.5999
 20
7.7798
 30
0.0
 10
-26.5999
 20
6.8961
 30
0.0
 10
-25.8836
 20
6.1798
 30
0.0
 10
-25.0
 20
6.1798
 30
0.0
 10
-25.0
 20
6.1798
 30
0.0
 10
-24.1163
 20
6.1798
 30
0.0
 10
-23.4
 20
6.8961
 30
0.0
 10
-23.3999
 20
7.7798
 30
0.0
  0
SPLINE
  5
66
330
1F
100
AcDbEntity
  8
Defpoints
370
    15
100
AcDbSpline
210
0.0
220
0.0
230
1.0
 70
    11
 71
     3
 72
    20
 73
    16
 74
     0
 42
0.0000000001
 43
0.0000000001
 40
0.0
 40
0.0
 40
0.0
 40
0.0
 40
0.25
 40
0.25
 40
0.25
 40
0.25
 40
0.5
 40
0.5
 40
0.5
 40
0.5
 40
0.75
 40
0.75
 40
0.75
 40
0.75
 40
1.0
 40
1.0
 40
1.0
 40
1.0
 10
-22.2499
 20
7.7798
 30
0.0
 10
-22.2499
 20
9.2986
 30
0.0
 10
-23.4812
 20
10.5298
 30
0.0
 10
-24.9999
 20
10.5298
 30
0.0
 10
-24.9999
 20
10.5298
 30
0.0
 10
-26.5187
 20
10.5298
 30
0.0
 10
-27.7499
 20
9.2986
 30
0.0
 10
-27.7499
 20
7.7798
 30
0.0
 10
-27.7499
 20
7.7798
 30
0.0
 10
-27.75
 20
6.261
 30
0.0
 10
-26.5187
 20
5.0298
 30
0.0
 10
-25.0
 20
5.0298
 30
0.0
 10
-25.0
 20
5.0298
 30
0.0
 10
-23.4812
 20
5.0298
 30
0.0
 10
-22.25
 20
6.261
 30
0.0
 10
-22.2499
 20
7.7798
 30
0.0
  0
SPLINE
  5
67
330
1F
100
AcDbEntity
  8
Defpoints
370
    15
100
AcDbSpline
210
0.0
220
0.0
230
1.0
 70
    11
 71
     3
 72
    20
 73
    16
 74
     0
 42
0.0000000001
 43
0.0000000001
 40
0.0
 40
0.0
 40
0.0
 40
0.0
 40
0.25
 40
0.25
 40
0.25
 40
0.25
 40
0.5
 40
0.5
 40
0.5
 40
0.5
 40
0.75
 40
0.75
 40
0.75
 40
0.75
 40
1.0
 40
1.0
 40
1.0
 40
1.0
 10
16.2642
 20
14.4598
 30
0.0
 10
16.2642
 20
15.7103
 30
0.0
 10
15.2505
 20
16.724
 30
0.0
 10
14.0001
 20
16.724
 30
0.0
 10
14.0001
 20
16.724
 30
0.0
 10
12.7496
 20
16.724
 30
0.0
 10
11.7359
 20
15.7103
 30
0.0
 10
11.7359
 20
14.4598
 30
0.0
 10
11.7359
 20
14.4598
 30
0.0
 10
11.7359
 20
13.2093
 30
0.0
 10
12.7496
 20
12.1956
 30
0.0
 10
14.0
 20
12.1956
 30
0.0
 10
14.0
 20
12.1956
 30
0.0
 10
15.2505
 20
12.1956
 30
0.0
 10
16.2642
 20
13.2093
 30
0.0
 10
16.2642
 20
14.4598
 30
0.0
  0
SPLINE
  5
68
330
1F
100
AcDbEntity
  8
Defpoints
370
    15
100
AcDbSpline
210
0.0
220
0.0
230
1.0
 70
     8
 71
     3
 72
    76
 73
    72
 74
     0
 42
0.0000000001
 43
0.0000000001
 40
0.0
 40
0.0
 40
0.0
 40
0.0
 40
0.0555555555555556
 40
0.0555555555555556
 40
0.0555555555555556
 40
0.0555555555555556
 40
0.1111111111111111
 40
0.1111111111111111
 40
0.1111111111111111
 40
0.1111111111111111
 40
0.1666666666666667
 40
0.1666666666666667
 40
0.1666666666666667
 40
0.1666666666666667
 40
0.2222222222222222
 40
0.2222222222222222
 40
0.2222222222222222
 40
0.2222222222222222
 40
0.2777777777777778
 40
0.2777777777777778
 40
0.2777777777777778
 40
0.2777777777777778
 40
0.3333333333333334
 40
0.3333333333333334
 40
0.3333333333333334
 40
0.3333333333333334
 40
0.388888888888889
 40
0.388888888888889
 40
0.388888888888889
 40
0.388888888888889
 40
0.4444444444444445
 40
0.4444444444444445
 40
0.4444444444444445
 40
0.4444444444444445
 40
0.5000000000000001
 40
0.5000000000000001
 40
0.5000000000000001
 40
0.5000000000000001
 40
0.5555555555555557
 40
0.5555555555555557
 40
0.5555555555555557
 40
0.5555555555555557
 40
0.6111111111111113
 40
0.6111111111111113
 40
0.6111111111111113
 40
0.6111111111111113
 40
0.6666666666666669
 40
0.6666666666666669
 40
0.6666666666666669
 40
0.6666666666666669
 40
0.7222222222222224
 40
0.7222222222222224
 40
0.7222222222222224
 40
0.7222222222222224
 40
0.777777777777778
 40
0.777777777777778
 40
0.777777777777778
 40
0.777777777777778
 40
0.8333333333333336
 40
0.8333333333333336
 40
0.8333333333333336
 40
0.8333333333333336
 40
0.8888888888888892
 40
0.8888888888888892
 40
0.8888888888888892
 40
0.8888888888888892
 40
0.9444444444444448
 40
0.9444444444444448
 40
0.9444444444444448
 40
0.9444444444444448
 40
1.0
 40
1.0
 40
1.0
 40
1.0
 10
15.5001
 20
14.4598
 30
0.0
 10
15.4992
 20
14.4218
 30
0.0
 10
15.4984
 20
14.3839
 30
0.0
 10
15.4957
 20
14.3461
 30
0.0
 10
15.4957
 20
14.3461
 30
0.0
 10
15.4931
 20
14.3086
 30
0.0
 10
15.4888
 20
14.2712
 30
0.0
 10
15.4831
 20
14.234
 30
0.0
 10
15.4831
 20
14.234
 30
0.0
 10
15.4774
 20
14.1969
 30
0.0
 10
15.4704
 20
14.1601
 30
0.0
 10
15.462
 20
14.1236
 30
0.0
 10
15.462
 20
14.1236
 30
0.0
 10
15.4536
 20
14.0869
 30
0.0
 10
15.4437
 20
14.0507
 30
0.0
 10
15.4326
 20
14.0148
 30
0.0
 10
15.4326
 20
14.0148
 30
0.0
 10
15.4213
 20
13.9786
 30
0.0
 10
15.4087
 20
13.9429
 30
0.0
 10
15.3947
 20
13.9076
 30
0.0
 10
15.3947
 20
13.9076
 30
0.0
 10
15.3573
 20
13.8129
 30
0.0
 10
15.3103
 20
13.7218
 30
0.0
 10
15.2543
 20
13.6365
 30
0.0
 10
15.2543
 20
13.6365
 30
0.0
 10
15.1982
 20
13.551
 30
0.0
 10
15.1331
 20
13.4715
 30
0.0
 10
15.0607
 20
13.3991
 30
0.0
 10
15.0607
 20
13.3991
 30
0.0
 10
14.9886
 20
13.327
 30
0.0
 10
14.9093
 20
13.2621
 30
0.0
 10
14.8242
 20
13.2061
 30
0.0
 10
14.8242
 20
13.2061
 30
0.0
 10
14.7388
 20
13.1499
 30
0.0
 10
14.6475
 20
13.1027
 30
0.0
 10
14.5522
 20
13.0651
 30
0.0
 10
14.5522
 20
13.0651
 30
0.0
 10
14.3773
 20
12.9962
 30
0.0
 10
14.1887
 20
12.9598
 30
0.0
 10
14.0001
 20
12.9598
 30
0.0
 10
14.0001
 20
12.9598
 30
0.0
 10
13.8114
 20
12.9598
 30
0.0
 10
13.6228
 20
12.9962
 30
0.0
 10
13.4479
 20
13.0651
 30
0.0
 10
13.4479
 20
13.0651
 30
0.0
 10
13.3529
 20
13.1025
 30
0.0
 10
13.2619
 20
13.1496
 30
0.0
 10
13.1768
 20
13.2055
 30
0.0
 10
13.1768
 20
13.2055
 30
0.0
 10
13.0913
 20
13.2617
 30
0.0
 10
13.0118
 20
13.3268
 30
0.0
 10
12.9394
 20
13.3991
 30
0.0
 10
12.9394
 20
13.3991
 30
0.0
 10
12.8673
 20
13.4712
 30
0.0
 10
12.8024
 20
13.5505
 30
0.0
 10
12.7464
 20
13.6356
 30
0.0
 10
12.7464
 20
13.6356
 30
0.0
 10
12.6902
 20
13.7211
 30
0.0
 10
12.643
 20
13.8126
 30
0.0
 10
12.6054
 20
13.9076
 30
0.0
 10
12.6054
 20
13.9076
 30
0.0
 10
12.5823
 20
13.9661
 30
0.0
 10
12.5628
 20
14.0258
 30
0.0
 10
12.547
 20
14.0867
 30
0.0
 10
12.547
 20
14.0867
 30
0.0
 10
12.5312
 20
14.1472
 30
0.0
 10
12.5191
 20
14.2087
 30
0.0
 10
12.5119
 20
14.2707
 30
0.0
 10
12.5119
 20
14.2707
 30
0.0
 10
12.5046
 20
14.3334
 30
0.0
 10
12.5023
 20
14.3966
 30
0.0
 10
12.5001
 20
14.4598
 30
0.0
  0
SPLINE
  5
69
330
1F
100
AcDbEntity
  8
Defpoints
370
    15
100
AcDbSpline
210
0.0
220
0.0
230
1.0
 70
     8
 71
     3
 72
    76
 73
    72
 74
     0
 42
0.0000000001
 43
0.0000000001
 40
0.0
 40
0.0
 40
0.0
 40
0.0
 40
0.0555555555555556
 40
0.0555555555555556
 40
0.0555555555555556
 40
0.0555555555555556
 40
0.1111111111111111
 40
0.1111111111111111
 40
0.1111111111111111
 40
0.1111111111111111
 40
0.1666666666666667
 40
0.1666666666666667
 40
0.1666666666666667
 40
0.1666666666666667
 40
0.2222222222222222
 40
0.2222222222222222
 40
0.2222222222222222
 40
0.2222222222222222
 40
0.2777777777777778
 40
0.2777777777777778
 40
0.2777777777777778
 40
0.2777777777777778
 40
0.3333333333333334
 40
0.3333333333333334
 40
0.3333333333333334
 40
0.3333333333333334
 40
0.388888888888889
 40
0.388888888888889
 40
0.388888888888889
 40
0.388888888888889
 40
0.4444444444444445
 40
0.4444444444444445
 40
0.4444444444444445
 40
0.4444444444444445
 40
0.5000000000000001
 40
0.5000000000000001
 40
0.5000000000000001
 40
0.5000000000000001
 40
0.5555555555555557
 40
0.5555555555555557
 40
0.5555555555555557
 40
0.5555555555555557
 40
0.6111111111111113
 40
0.6111111111111113
 40
0.6111111111111113
 40
0.6111111111111113
 40
0.6666666666666669
 40
0.6666666666666669
 40
0.6666666666666669
 40
0.6666666666666669
 40
0.7222222222222224
 40
0.7222222222222224
 40
0.7222222222222224
 40
0.7222222222222224
 40
0.777777777777778
 40
0.777777777777778
 40
0.777777777777778
 40
0.777777777777778
 40
0.8333333333333336
 40
0.8333333333333336
 40
0.8333333333333336
 40
0.8333333333333336
 40
0.8888888888888892
 40
0.8888888888888892
 40
0.8888888888888892
 40
0.8888888888888892
 40
0.9444444444444448
 40
0.9444444444444448
 40
0.9444444444444448
 40
0.9444444444444448
 40
1.0
 40
1.0
 40
1.0
 40
1.0
 10
12.5001
 20
14.4598
 30
0.0
 10
12.5009
 20
14.4977
 30
0.0
 10
12.5017
 20
14.5357
 30
0.0
 10
12.5044
 20
14.5735
 30
0.0
 10
12.5044
 20
14.5735
 30
0.0
 10
12.507
 20
14.611
 30
0.0
 10
12.5113
 20
14.6484
 30
0.0
 10
12.517
 20
14.6856
 30
0.0
 10
12.517
 20
14.6856
 30
0.0
 10
12.5227
 20
14.7226
 30
0.0
 10
12.5297
 20
14.7595
 30
0.0
 10
12.5381
 20
14.796
 30
0.0
 10
12.5381
 20
14.796
 30
0.0
 10
12.5465
 20
14.8326
 30
0.0
 10
12.5564
 20
14.8689
 30
0.0
 10
12.5675
 20
14.9048
 30
0.0
 10
12.5675
 20
14.9048
 30
0.0
 10
12.5788
 20
14.941
 30
0.0
 10
12.5914
 20
14.9767
 30
0.0
 10
12.6054
 20
15.0119
 30
0.0
 10
12.6054
 20
15.0119
 30
0.0
 10
12.6428
 20
15.1066
 30
0.0
 10
12.6898
 20
15.1978
 30
0.0
 10
12.7458
 20
15.2831
 30
0.0
 10
12.7458
 20
15.2831
 30
0.0
 10
12.8019
 20
15.3686
 30
0.0
 10
12.867
 20
15.4481
 30
0.0
 10
12.9394
 20
15.5204
 30
0.0
 10
12.9394
 20
15.5204
 30
0.0
 10
13.0115
 20
15.5925
 30
0.0
 10
13.0908
 20
15.6575
 30
0.0
 10
13.1759
 20
15.7135
 30
0.0
 10
13.1759
 20
15.7135
 30
0.0
 10
13.2613
 20
15.7697
 30
0.0
 10
13.3526
 20
15.8169
 30
0.0
 10
13.4479
 20
15.8545
 30
0.0
 10
13.4479
 20
15.8545
 30
0.0
 10
13.6228
 20
15.9234
 30
0.0
 10
13.8114
 20
15.9598
 30
0.0
 10
14.0001
 20
15.9598
 30
0.0
 10
14.0001
 20
15.9598
 30
0.0
 10
14.1887
 20
15.9598
 30
0.0
 10
14.3773
 20
15.9234
 30
0.0
 10
14.5522
 20
15.8545
 30
0.0
 10
14.5522
 20
15.8545
 30
0.0
 10
14.6472
 20
15.817
 30
0.0
 10
14.7382
 20
15.77
 30
0.0
 10
14.8233
 20
15.7141
 30
0.0
 10
14.8233
 20
15.7141
 30
0.0
 10
14.9088
 20
15.6579
 30
0.0
 10
14.9884
 20
15.5928
 30
0.0
 10
15.0607
 20
15.5204
 30
0.0
 10
15.0607
 20
15.5204
 30
0.0
 10
15.1328
 20
15.4484
 30
0.0
 10
15.1978
 20
15.3691
 30
0.0
 10
15.2538
 20
15.2839
 30
0.0
 10
15.2538
 20
15.2839
 30
0.0
 10
15.31
 20
15.1985
 30
0.0
 10
15.3572
 20
15.107
 30
0.0
 10
15.3947
 20
15.0119
 30
0.0
 10
15.3947
 20
15.0119
 30
0.0
 10
15.4178
 20
14.9535
 30
0.0
 10
15.4373
 20
14.8937
 30
0.0
 10
15.4531
 20
14.8329
 30
0.0
 10
15.4531
 20
14.8329
 30
0.0
 10
15.4689
 20
14.7724
 30
0.0
 10
15.481
 20
14.7109
 30
0.0
 10
15.4882
 20
14.6489
 30
0.0
 10
15.4882
 20
14.6489
 30
0.0
 10
15.4955
 20
14.5862
 30
0.0
 10
15.4978
 20
14.523
 30
0.0
 10
15.5001
 20
14.4598
 30
0.0
  0
SPLINE
  5
6A
330
1F
100
AcDbEntity
  8
Defpoints
370
    15
100
AcDbSpline
210
0.0
220
0.0
230
1.0
 70
    11
 71
     3
 72
    20
 73
    16
 74
     0
 42
0.0000000001
 43
0.0000000001
 40
0.0
 40
0.0
 40
0.0
 40
0.0
 40
0.25
 40
0.25
 40
0.25
 40
0.25
 40
0.5
 40
0.5
 40
0.5
 40
0.5
 40
0.75
 40
0.75
 40
0.75
 40
0.75
 40
1.0
 40
1.0
 40
1.0
 40
1.0
 10
15.2501
 20
14.4598
 30
0.0
 10
15.2501
 20
15.1501
 30
0.0
 10
14.6904
 20
15.7098
 30
0.0
 10
14.0001
 20
15.7098
 30
0.0
 10
14.0001
 20
15.7098
 30
0.0
 10
13.3097
 20
15.7098
 30
0.0
 10
12.7501
 20
15.1501
 30
0.0
 10
12.7501
 20
14.4598
 30
0.0
 10
12.7501
 20
14.4598
 30
0.0
 10
12.7501
 20
13.7694
 30
0.0
 10
13.3097
 20
13.2098
 30
0.0
 10
14.0
 20
13.2098
 30
0.0
 10
14.0
 20
13.2098
 30
0.0
 10
14.6904
 20
13.2098
 30
0.0
 10
15.2501
 20
13.7694
 30
0.0
 10
15.2501
 20
14.4598
 30
0.0
  0
SPLINE
  5
6B
330
1F
100
AcDbEntity
  8
Defpoints
370
    15
100
AcDbSpline
210
0.0
220
0.0
230
1.0
 70
    11
 71
     3
 72
    20
 73
    16
 74
     0
 42
0.0000000001
 43
0.0000000001
 40
0.0
 40
0.0
 40
0.0
 40
0.0
 40
0.25
 40
0.25
 40
0.25
 40
0.25
 40
0.5
 40
0.5
 40
0.5
 40
0.5
 40
0.75
 40
0.75
 40
0.75
 40
0.75
 40
1.0
 40
1.0
 40
1.0
 40
1.0
 10
16.2642
 20
-13.5402
 30
0.0
 10
16.2642
 20
-12.2897
 30
0.0
 10
15.2505
 20
-11.276
 30
0.0
 10
14.0001
 20
-11.276
 30
0.0
 10
14.0001
 20
-11.276
 30
0.0
 10
12.7496
 20
-11.276
 30
0.0
 10
11.7359
 20
-12.2897
 30
0.0
 10
11.7359
 20
-13.5402
 30
0.0
 10
11.7359
 20
-13.5402
 30
0.0
 10
11.7359
 20
-14.7907
 30
0.0
 10
12.7496
 20
-15.8044
 30
0.0
 10
14.0
 20
-15.8044
 30
0.0
 10
14.0
 20
-15.8044
 30
0.0
 10
15.2505
 20
-15.8044
 30
0.0
 10
16.2642
 20
-14.7907
 30
0.0
 10
16.2642
 20
-13.5402
 30
0.0
  0
SPLINE
  5
6C
330
1F
100
AcDbEntity
  8
Defpoints
370
    15
100
AcDbSpline
210
0.0
220
0.0
230
1.0
 70
     8
 71
     3
 72
    76
 73
    72
 74
     0
 42
0.0000000001
 43
0.0000000001
 40
0.0
 40
0.0
 40
0.0
 40
0.0
 40
0.0555555555555556
 40
0.0555555555555556
 40
0.0555555555555556
 40
0.0555555555555556
 40
0.1111111111111111
 40
0.1111111111111111
 40
0.1111111111111111
 40
0.1111111111111111
 40
0.1666666666666667
 40
0.1666666666666667
 40
0.1666666666666667
 40
0.1666666666666667
 40
0.2222222222222222
 40
0.2222222222222222
 40
0.2222222222222222
 40
0.2222222222222222
 40
0.2777777777777778
 40
0.2777777777777778
 40
0.2777777777777778
 40
0.2777777777777778
 40
0.3333333333333334
 40
0.3333333333333334
 40
0.3333333333333334
 40
0.3333333333333334
 40
0.388888888888889
 40
0.388888888888889
 40
0.388888888888889
 40
0.388888888888889
 40
0.4444444444444445
 40
0.4444444444444445
 40
0.4444444444444445
 40
0.4444444444444445
 40
0.5000000000000001
 40
0.5000000000000001
 40
0.5000000000000001
 40
0.5000000000000001
 40
0.5555555555555557
 40
0.5555555555555557
 40
0.5555555555555557
 40
0.5555555555555557
 40
0.6111111111111113
 40
0.6111111111111113
 40
0.6111111111111113
 40
0.6111111111111113
 40
0.6666666666666669
 40
0.6666666666666669
 40
0.6666666666666669
 40
0.6666666666666669
 40
0.7222222222222224
 40
0.7222222222222224
 40
0.7222222222222224
 40
0.7222222222222224
 40
0.777777777777778
 40
0.777777777777778
 40
0.777777777777778
 40
0.777777777777778
 40
0.8333333333333336
 40
0.8333333333333336
 40
0.8333333333333336
 40
0.8333333333333336
 40
0.8888888888888892
 40
0.8888888888888892
 40
0.8888888888888892
 40
0.8888888888888892
 40
0.9444444444444448
 40
0.9444444444444448
 40
0.9444444444444448
 40
0.9444444444444448
 40
1.0
 40
1.0
 40
1.0
 40
1.0
 10
15.5001
 20
-13.5402
 30
0.0
 10
15.4992
 20
-13.5782
 30
0.0
 10
15.4984
 20
-13.6161
 30
0.0
 10
15.4957
 20
-13.6539
 30
0.0
 10
15.4957
 20
-13.6539
 30
0.0
 10
15.4931
 20
-13.6914
 30
0.0
 10
15.4888
 20
-13.7288
 30
0.0
 10
15.4831
 20
-13.766
 30
0.0
 10
15.4831
 20
-13.766
 30
0.0
 10
15.4774
 20
-13.8031
 30
0.0
 10
15.4704
 20
-13.8399
 30
0.0
 10
15.462
 20
-13.8764
 30
0.0
 10
15.462
 20
-13.8764
 30
0.0
 10
15.4536
 20
-13.9131
 30
0.0
 10
15.4437
 20
-13.9493
 30
0.0
 10
15.4326
 20
-13.9852
 30
0.0
 10
15.4326
 20
-13.9852
 30
0.0
 10
15.4213
 20
-14.0214
 30
0.0
 10
15.4087
 20
-14.0571
 30
0.0
 10
15.3947
 20
-14.0924
 30
0.0
 10
15.3947
 20
-14.0924
 30
0.0
 10
15.3573
 20
-14.1871
 30
0.0
 10
15.3103
 20
-14.2782
 30
0.0
 10
15.2543
 20
-14.3635
 30
0.0
 10
15.2543
 20
-14.3635
 30
0.0
 10
15.1982
 20
-14.449
 30
0.0
 10
15.1331
 20
-14.5285
 30
0.0
 10
15.0607
 20
-14.6009
 30
0.0
 10
15.0607
 20
-14.6009
 30
0.0
 10
14.9886
 20
-14.673
 30
0.0
 10
14.9093
 20
-14.7379
 30
0.0
 10
14.8242
 20
-14.7939
 30
0.0
 10
14.8242
 20
-14.7939
 30
0.0
 10
14.7388
 20
-14.8501
 30
0.0
 10
14.6475
 20
-14.8973
 30
0.0
 10
14.5522
 20
-14.9349
 30
0.0
 10
14.5522
 20
-14.9349
 30
0.0
 10
14.3773
 20
-15.0038
 30
0.0
 10
14.1887
 20
-15.0402
 30
0.0
 10
14.0001
 20
-15.0402
 30
0.0
 10
14.0001
 20
-15.0402
 30
0.0
 10
13.8114
 20
-15.0402
 30
0.0
 10
13.6228
 20
-15.0038
 30
0.0
 10
13.4479
 20
-14.9349
 30
0.0
 10
13.4479
 20
-14.9349
 30
0.0
 10
13.3529
 20
-14.8975
 30
0.0
 10
13.2619
 20
-14.8504
 30
0.0
 10
13.1768
 20
-14.7945
 30
0.0
 10
13.1768
 20
-14.7945
 30
0.0
 10
13.0913
 20
-14.7383
 30
0.0
 10
13.0118
 20
-14.6732
 30
0.0
 10
12.9394
 20
-14.6009
 30
0.0
 10
12.9394
 20
-14.6009
 30
0.0
 10
12.8673
 20
-14.5288
 30
0.0
 10
12.8024
 20
-14.4495
 30
0.0
 10
12.7464
 20
-14.3644
 30
0.0
 10
12.7464
 20
-14.3644
 30
0.0
 10
12.6902
 20
-14.2789
 30
0.0
 10
12.643
 20
-14.1874
 30
0.0
 10
12.6054
 20
-14.0924
 30
0.0
 10
12.6054
 20
-14.0924
 30
0.0
 10
12.5823
 20
-14.0339
 30
0.0
 10
12.5628
 20
-13.9742
 30
0.0
 10
12.547
 20
-13.9133
 30
0.0
 10
12.547
 20
-13.9133
 30
0.0
 10
12.5312
 20
-13.8528
 30
0.0
 10
12.5191
 20
-13.7913
 30
0.0
 10
12.5119
 20
-13.7293
 30
0.0
 10
12.5119
 20
-13.7293
 30
0.0
 10
12.5046
 20
-13.6666
 30
0.0
 10
12.5023
 20
-13.6034
 30
0.0
 10
12.5001
 20
-13.5402
 30
0.0
  0
SPLINE
  5
6D
330
1F
100
AcDbEntity
  8
Defpoints
370
    15
100
AcDbSpline
210
0.0
220
0.0
230
1.0
 70
     8
 71
     3
 72
    76
 73
    72
 74
     0
 42
0.0000000001
 43
0.0000000001
 40
0.0
 40
0.0
 40
0.0
 40
0.0
 40
0.0555555555555556
 40
0.0555555555555556
 40
0.0555555555555556
 40
0.0555555555555556
 40
0.1111111111111111
 40
0.1111111111111111
 40
0.1111111111111111
 40
0.1111111111111111
 40
0.1666666666666667
 40
0.1666666666666667
 40
0.1666666666666667
 40
0.1666666666666667
 40
0.2222222222222222
 40
0.2222222222222222
 40
0.2222222222222222
 40
0.2222222222222222
 40
0.2777777777777778
 40
0.2777777777777778
 40
0.2777777777777778
 40
0.2777777777777778
 40
0.3333333333333334
 40
0.3333333333333334
 40
0.3333333333333334
 40
0.3333333333333334
 40
0.388888888888889
 40
0.388888888888889
 40
0.388888888888889
 40
0.388888888888889
 40
0.4444444444444445
 40
0.4444444444444445
 40
0.4444444444444445
 40
0.4444444444444445
 40
0.5000000000000001
 40
0.5000000000000001
 40
0.5000000000000001
 40
0.5000000000000001
 40
0.5555555555555557
 40
0.5555555555555557
 40
0.5555555555555557
 40
0.5555555555555557
 40
0.6111111111111113
 40
0.6111111111111113
 40
0.6111111111111113
 40
0.6111111111111113
 40
0.6666666666666669
 40
0.6666666666666669
 40
0.6666666666666669
 40
0.6666666666666669
 40
0.7222222222222224
 40
0.7222222222222224
 40
0.7222222222222224
 40
0.7222222222222224
 40
0.777777777777778
 40
0.777777777777778
 40
0.777777777777778
 40
0.777777777777778
 40
0.8333333333333336
 40
0.8333333333333336
 40
0.8333333333333336
 40
0.8333333333333336
 40
0.8888888888888892
 40
0.8888888888888892
 40
0.8888888888888892
 40
0.8888888888888892
 40
0.9444444444444448
 40
0.9444444444444448
 40
0.9444444444444448
 40
0.9444444444444448
 40
1.0
 40
1.0
 40
1.0
 40
1.0
 10
12.5001
 20
-13.5402
 30
0.0
 10
12.5009
 20
-13.5023
 30
0.0
 10
12.5017
 20
-13.4643
 30
0.0
 10
12.5044
 20
-13.4265
 30
0.0
 10
12.5044
 20
-13.4265
 30
0.0
 10
12.507
 20
-13.389
 30
0.0
 10
12.5113
 20
-13.3516
 30
0.0
 10
12.517
 20
-13.3144
 30
0.0
 10
12.517
 20
-13.3144
 30
0.0
 10
12.5227
 20
-13.2774
 30
0.0
 10
12.5297
 20
-13.2405
 30
0.0
 10
12.5381
 20
-13.204
 30
0.0
 10
12.5381
 20
-13.204
 30
0.0
 10
12.5465
 20
-13.1674
 30
0.0
 10
12.5564
 20
-13.1311
 30
0.0
 10
12.5675
 20
-13.0952
 30
0.0
 10
12.5675
 20
-13.0952
 30
0.0
 10
12.5788
 20
-13.059
 30
0.0
 10
12.5914
 20
-13.0233
 30
0.0
 10
12.6054
 20
-12.9881
 30
0.0
 10
12.6054
 20
-12.9881
 30
0.0
 10
12.6428
 20
-12.8934
 30
0.0
 10
12.6898
 20
-12.8022
 30
0.0
 10
12.7458
 20
-12.7169
 30
0.0
 10
12.7458
 20
-12.7169
 30
0.0
 10
12.8019
 20
-12.6314
 30
0.0
 10
12.867
 20
-12.5519
 30
0.0
 10
12.9394
 20
-12.4796
 30
0.0
 10
12.9394
 20
-12.4796
 30
0.0
 10
13.0115
 20
-12.4075
 30
0.0
 10
13.0908
 20
-12.3425
 30
0.0
 10
13.1759
 20
-12.2865
 30
0.0
 10
13.1759
 20
-12.2865
 30
0.0
 10
13.2613
 20
-12.2303
 30
0.0
 10
13.3526
 20
-12.1831
 30
0.0
 10
13.4479
 20
-12.1455
 30
0.0
 10
13.4479
 20
-12.1455
 30
0.0
 10
13.6228
 20
-12.0766
 30
0.0
 10
13.8114
 20
-12.0402
 30
0.0
 10
14.0001
 20
-12.0402
 30
0.0
 10
14.0001
 20
-12.0402
 30
0.0
 10
14.1887
 20
-12.0402
 30
0.0
 10
14.3773
 20
-12.0766
 30
0.0
 10
14.5522
 20
-12.1455
 30
0.0
 10
14.5522
 20
-12.1455
 30
0.0
 10
14.6472
 20
-12.183
 30
0.0
 10
14.7382
 20
-12.23
 30
0.0
 10
14.8233
 20
-12.2859
 30
0.0
 10
14.8233
 20
-12.2859
 30
0.0
 10
14.9088
 20
-12.3421
 30
0.0
 10
14.9884
 20
-12.4072
 30
0.0
 10
15.0607
 20
-12.4796
 30
0.0
 10
15.0607
 20
-12.4796
 30
0.0
 10
15.1328
 20
-12.5516
 30
0.0
 10
15.1978
 20
-12.6309
 30
0.0
 10
15.2538
 20
-12.7161
 30
0.0
 10
15.2538
 20
-12.7161
 30
0.0
 10
15.31
 20
-12.8015
 30
0.0
 10
15.3572
 20
-12.893
 30
0.0
 10
15.3947
 20
-12.9881
 30
0.0
 10
15.3947
 20
-12.9881
 30
0.0
 10
15.4178
 20
-13.0465
 30
0.0
 10
15.4373
 20
-13.1063
 30
0.0
 10
15.4531
 20
-13.1671
 30
0.0
 10
15.4531
 20
-13.1671
 30
0.0
 10
15.4689
 20
-13.2276
 30
0.0
 10
15.481
 20
-13.2891
 30
0.0
 10
15.4882
 20
-13.3511
 30
0.0
 10
15.4882
 20
-13.3511
 30
0.0
 10
15.4955
 20
-13.4138
 30
0.0
 10
15.4978
 20
-13.477
 30
0.0
 10
15.5001
 20
-13.5402
 30
0.0
  0
SPLINE
  5
6E
330
1F
100
AcDbEntity
  8
Defpoints
370
    15
100
AcDbSpline
210
0.0
220
0.0
230
1.0
 70
    11
 71
     3
 72
    20
 73
    16
 74
     0
 42
0.0000000001
 43
0.0000000001
 40
0.0
 40
0.0
 40
0.0
 40
0.0
 40
0.25
 40
0.25
 40
0.25
 40
0.25
 40
0.5
 40
0.5
 40
0.5
 40
0.5
 40
0.75
 40
0.75
 40
0.75
 40
0.75
 40
1.0
 40
1.0
 40
1.0
 40
1.0
 10
15.2501
 20
-13.5402
 30
0.0
 10
15.2501
 20
-12.8499
 30
0.0
 10
14.6904
 20
-12.2902
 30
0.0
 10
14.0001
 20
-12.2902
 30
0.0
 10
14.0001
 20
-12.2902
 30
0.0
 10
13.3097
 20
-12.2902
 30
0.0
 10
12.7501
 20
-12.8499
 30
0.0
 10
12.7501
 20
-13.5402
 30
0.0
 10
12.7501
 20
-13.5402
 30
0.0
 10
12.7501
 20
-14.2306
 30
0.0
 10
13.3097
 20
-14.7902
 30
0.0
 10
14.0
 20
-14.7902
 30
0.0
 10
14.0
 20
-14.7902
 30
0.0
 10
14.6904
 20
-14.7902
 30
0.0
 10
15.2501
 20
-14.2306
 30
0.0
 10
15.2501
 20
-13.5402
 30
0.0
  0
SPLINE
  5
6F
330
1F
100
AcDbEntity
  8
Defpoints
370
    15
100
AcDbSpline
210
0.0
220
0.0
230
1.0
 70
    11
 71
     3
 72
    20
 73
    16
 74
     0
 42
0.0000000001
 43
0.0000000001
 40
0.0
 40
0.0
 40
0.0
 40
0.0
 40
0.25
 40
0.25
 40
0.25
 40
0.25
 40
0.5
 40
0.5
 40
0.5
 40
0.5
 40
0.75
 40
0.75
 40
0.75
 40
0.75
 40
1.0
 40
1.0
 40
1.0
 40
1.0
 10
-11.7358
 20
-13.5402
 30
0.0
 10
-11.7358
 20
-12.2897
 30
0.0
 10
-12.7495
 20
-11.276
 30
0.0
 10
-13.9999
 20
-11.276
 30
0.0
 10
-13.9999
 20
-11.276
 30
0.0
 10
-15.2504
 20
-11.276
 30
0.0
 10
-16.2641
 20
-12.2897
 30
0.0
 10
-16.2641
 20
-13.5402
 30
0.0
 10
-16.2641
 20
-13.5402
 30
0.0
 10
-16.2641
 20
-14.7907
 30
0.0
 10
-15.2504
 20
-15.8044
 30
0.0
 10
-14.0
 20
-15.8044
 30
0.0
 10
-14.0
 20
-15.8044
 30
0.0
 10
-12.7495
 20
-15.8044
 30
0.0
 10
-11.7358
 20
-14.7907
 30
0.0
 10
-11.7358
 20
-13.5402
 30
0.0
  0
SPLINE
  5
70
330
1F
100
AcDbEntity
  8
Defpoints
370
    15
100
AcDbSpline
210
0.0
220
0.0
230
1.0
 70
     8
 71
     3
 72
    76
 73
    72
 74
     0
 42
0.0000000001
 43
0.0000000001
 40
0.0
 40
0.0
 40
0.0
 40
0.0
 40
0.0555555555555556
 40
0.0555555555555556
 40
0.0555555555555556
 40
0.0555555555555556
 40
0.1111111111111111
 40
0.1111111111111111
 40
0.1111111111111111
 40
0.1111111111111111
 40
0.1666666666666667
 40
0.1666666666666667
 40
0.1666666666666667
 40
0.1666666666666667
 40
0.2222222222222222
 40
0.2222222222222222
 40
0.2222222222222222
 40
0.2222222222222222
 40
0.2777777777777778
 40
0.2777777777777778
 40
0.2777777777777778
 40
0.2777777777777778
 40
0.3333333333333334
 40
0.3333333333333334
 40
0.3333333333333334
 40
0.3333333333333334
 40
0.388888888888889
 40
0.388888888888889
 40
0.388888888888889
 40
0.388888888888889
 40
0.4444444444444445
 40
0.4444444444444445
 40
0.4444444444444445
 40
0.4444444444444445
 40
0.5000000000000001
 40
0.5000000000000001
 40
0.5000000000000001
 40
0.5000000000000001
 40
0.5555555555555557
 40
0.5555555555555557
 40
0.5555555555555557
 40
0.5555555555555557
 40
0.6111111111111113
 40
0.6111111111111113
 40
0.6111111111111113
 40
0.6111111111111113
 40
0.6666666666666669
 40
0.6666666666666669
 40
0.6666666666666669
 40
0.6666666666666669
 40
0.7222222222222224
 40
0.7222222222222224
 40
0.7222222222222224
 40
0.7222222222222224
 40
0.777777777777778
 40
0.777777777777778
 40
0.777777777777778
 40
0.777777777777778
 40
0.8333333333333336
 40
0.8333333333333336
 40
0.8333333333333336
 40
0.8333333333333336
 40
0.8888888888888892
 40
0.8888888888888892
 40
0.8888888888888892
 40
0.8888888888888892
 40
0.9444444444444448
 40
0.9444444444444448
 40
0.9444444444444448
 40
0.9444444444444448
 40
1.0
 40
1.0
 40
1.0
 40
1.0
 10
-12.4999
 20
-13.5402
 30
0.0
 10
-12.5008
 20
-13.5782
 30
0.0
 10
-12.5016
 20
-13.6161
 30
0.0
 10
-12.5043
 20
-13.6539
 30
0.0
 10
-12.5043
 20
-13.6539
 30
0.0
 10
-12.5069
 20
-13.6914
 30
0.0
 10
-12.5112
 20
-13.7288
 30
0.0
 10
-12.5169
 20
-13.766
 30
0.0
 10
-12.5169
 20
-13.766
 30
0.0
 10
-12.5226
 20
-13.8031
 30
0.0
 10
-12.5296
 20
-13.8399
 30
0.0
 10
-12.538
 20
-13.8764
 30
0.0
 10
-12.538
 20
-13.8764
 30
0.0
 10
-12.5464
 20
-13.9131
 30
0.0
 10
-12.5563
 20
-13.9493
 30
0.0
 10
-12.5674
 20
-13.9852
 30
0.0
 10
-12.5674
 20
-13.9852
 30
0.0
 10
-12.5787
 20
-14.0214
 30
0.0
 10
-12.5913
 20
-14.0571
 30
0.0
 10
-12.6053
 20
-14.0924
 30
0.0
 10
-12.6053
 20
-14.0924
 30
0.0
 10
-12.6427
 20
-14.1871
 30
0.0
 10
-12.6897
 20
-14.2782
 30
0.0
 10
-12.7457
 20
-14.3635
 30
0.0
 10
-12.7457
 20
-14.3635
 30
0.0
 10
-12.8018
 20
-14.449
 30
0.0
 10
-12.8669
 20
-14.5285
 30
0.0
 10
-12.9393
 20
-14.6009
 30
0.0
 10
-12.9393
 20
-14.6009
 30
0.0
 10
-13.0114
 20
-14.673
 30
0.0
 10
-13.0907
 20
-14.7379
 30
0.0
 10
-13.1758
 20
-14.7939
 30
0.0
 10
-13.1758
 20
-14.7939
 30
0.0
 10
-13.2612
 20
-14.8501
 30
0.0
 10
-13.3525
 20
-14.8973
 30
0.0
 10
-13.4478
 20
-14.9349
 30
0.0
 10
-13.4478
 20
-14.9349
 30
0.0
 10
-13.6227
 20
-15.0038
 30
0.0
 10
-13.8113
 20
-15.0402
 30
0.0
 10
-13.9999
 20
-15.0402
 30
0.0
 10
-13.9999
 20
-15.0402
 30
0.0
 10
-14.1886
 20
-15.0402
 30
0.0
 10
-14.3772
 20
-15.0038
 30
0.0
 10
-14.5521
 20
-14.9349
 30
0.0
 10
-14.5521
 20
-14.9349
 30
0.0
 10
-14.6471
 20
-14.8975
 30
0.0
 10
-14.7381
 20
-14.8504
 30
0.0
 10
-14.8232
 20
-14.7945
 30
0.0
 10
-14.8232
 20
-14.7945
 30
0.0
 10
-14.9087
 20
-14.7383
 30
0.0
 10
-14.9882
 20
-14.6732
 30
0.0
 10
-15.0606
 20
-14.6009
 30
0.0
 10
-15.0606
 20
-14.6009
 30
0.0
 10
-15.1327
 20
-14.5288
 30
0.0
 10
-15.1976
 20
-14.4495
 30
0.0
 10
-15.2536
 20
-14.3644
 30
0.0
 10
-15.2536
 20
-14.3644
 30
0.0
 10
-15.3098
 20
-14.2789
 30
0.0
 10
-15.357
 20
-14.1874
 30
0.0
 10
-15.3946
 20
-14.0924
 30
0.0
 10
-15.3946
 20
-14.0924
 30
0.0
 10
-15.4177
 20
-14.0339
 30
0.0
 10
-15.4372
 20
-13.9742
 30
0.0
 10
-15.453
 20
-13.9133
 30
0.0
 10
-15.453
 20
-13.9133
 30
0.0
 10
-15.4688
 20
-13.8528
 30
0.0
 10
-15.4809
 20
-13.7913
 30
0.0
 10
-15.4881
 20
-13.7293
 30
0.0
 10
-15.4881
 20
-13.7293
 30
0.0
 10
-15.4954
 20
-13.6666
 30
0.0
 10
-15.4977
 20
-13.6034
 30
0.0
 10
-15.4999
 20
-13.5402
 30
0.0
  0
SPLINE
  5
71
330
1F
100
AcDbEntity
  8
Defpoints
370
    15
100
AcDbSpline
210
0.0
220
0.0
230
1.0
 70
     8
 71
     3
 72
    76
 73
    72
 74
     0
 42
0.0000000001
 43
0.0000000001
 40
0.0
 40
0.0
 40
0.0
 40
0.0
 40
0.0555555555555556
 40
0.0555555555555556
 40
0.0555555555555556
 40
0.0555555555555556
 40
0.1111111111111111
 40
0.1111111111111111
 40
0.1111111111111111
 40
0.1111111111111111
 40
0.1666666666666667
 40
0.1666666666666667
 40
0.1666666666666667
 40
0.1666666666666667
 40
0.2222222222222222
 40
0.2222222222222222
 40
0.2222222222222222
 40
0.2222222222222222
 40
0.2777777777777778
 40
0.2777777777777778
 40
0.2777777777777778
 40
0.2777777777777778
 40
0.3333333333333334
 40
0.3333333333333334
 40
0.3333333333333334
 40
0.3333333333333334
 40
0.388888888888889
 40
0.388888888888889
 40
0.388888888888889
 40
0.388888888888889
 40
0.4444444444444445
 40
0.4444444444444445
 40
0.4444444444444445
 40
0.4444444444444445
 40
0.5000000000000001
 40
0.5000000000000001
 40
0.5000000000000001
 40
0.5000000000000001
 40
0.5555555555555557
 40
0.5555555555555557
 40
0.5555555555555557
 40
0.5555555555555557
 40
0.6111111111111113
 40
0.6111111111111113
 40
0.6111111111111113
 40
0.6111111111111113
 40
0.6666666666666669
 40
0.6666666666666669
 40
0.6666666666666669
 40
0.6666666666666669
 40
0.7222222222222224
 40
0.7222222222222224
 40
0.7222222222222224
 40
0.7222222222222224
 40
0.777777777777778
 40
0.777777777777778
 40
0.777777777777778
 40
0.777777777777778
 40
0.8333333333333336
 40
0.8333333333333336
 40
0.8333333333333336
 40
0.8333333333333336
 40
0.8888888888888892
 40
0.8888888888888892
 40
0.8888888888888892
 40
0.8888888888888892
 40
0.9444444444444448
 40
0.9444444444444448
 40
0.9444444444444448
 40
0.9444444444444448
 40
1.0
 40
1.0
 40
1.0
 40
1.0
 10
-15.4999
 20
-13.5402
 30
0.0
 10
-15.4991
 20
-13.5023
 30
0.0
 10
-15.4983
 20
-13.4643
 30
0.0
 10
-15.4956
 20
-13.4265
 30
0.0
 10
-15.4956
 20
-13.4265
 30
0.0
 10
-15.493
 20
-13.389
 30
0.0
 10
-15.4887
 20
-13.3516
 30
0.0
 10
-15.483
 20
-13.3144
 30
0.0
 10
-15.483
 20
-13.3144
 30
0.0
 10
-15.4773
 20
-13.2774
 30
0.0
 10
-15.4703
 20
-13.2405
 30
0.0
 10
-15.4619
 20
-13.204
 30
0.0
 10
-15.4619
 20
-13.204
 30
0.0
 10
-15.4535
 20
-13.1674
 30
0.0
 10
-15.4436
 20
-13.1311
 30
0.0
 10
-15.4325
 20
-13.0952
 30
0.0
 10
-15.4325
 20
-13.0952
 30
0.0
 10
-15.4212
 20
-13.059
 30
0.0
 10
-15.4086
 20
-13.0233
 30
0.0
 10
-15.3946
 20
-12.9881
 30
0.0
 10
-15.3946
 20
-12.9881
 30
0.0
 10
-15.3572
 20
-12.8934
 30
0.0
 10
-15.3102
 20
-12.8022
 30
0.0
 10
-15.2542
 20
-12.7169
 30
0.0
 10
-15.2542
 20
-12.7169
 30
0.0
 10
-15.1981
 20
-12.6314
 30
0.0
 10
-15.133
 20
-12.5519
 30
0.0
 10
-15.0606
 20
-12.4796
 30
0.0
 10
-15.0606
 20
-12.4796
 30
0.0
 10
-14.9885
 20
-12.4075
 30
0.0
 10
-14.9092
 20
-12.3425
 30
0.0
 10
-14.8241
 20
-12.2865
 30
0.0
 10
-14.8241
 20
-12.2865
 30
0.0
 10
-14.7387
 20
-12.2303
 30
0.0
 10
-14.6474
 20
-12.1831
 30
0.0
 10
-14.5521
 20
-12.1455
 30
0.0
 10
-14.5521
 20
-12.1455
 30
0.0
 10
-14.3772
 20
-12.0766
 30
0.0
 10
-14.1886
 20
-12.0402
 30
0.0
 10
-13.9999
 20
-12.0402
 30
0.0
 10
-13.9999
 20
-12.0402
 30
0.0
 10
-13.8113
 20
-12.0402
 30
0.0
 10
-13.6227
 20
-12.0766
 30
0.0
 10
-13.4478
 20
-12.1455
 30
0.0
 10
-13.4478
 20
-12.1455
 30
0.0
 10
-13.3528
 20
-12.183
 30
0.0
 10
-13.2618
 20
-12.23
 30
0.0
 10
-13.1767
 20
-12.2859
 30
0.0
 10
-13.1767
 20
-12.2859
 30
0.0
 10
-13.0912
 20
-12.3421
 30
0.0
 10
-13.0116
 20
-12.4072
 30
0.0
 10
-12.9393
 20
-12.4796
 30
0.0
 10
-12.9393
 20
-12.4796
 30
0.0
 10
-12.8672
 20
-12.5516
 30
0.0
 10
-12.8022
 20
-12.6309
 30
0.0
 10
-12.7462
 20
-12.7161
 30
0.0
 10
-12.7462
 20
-12.7161
 30
0.0
 10
-12.69
 20
-12.8015
 30
0.0
 10
-12.6428
 20
-12.893
 30
0.0
 10
-12.6053
 20
-12.9881
 30
0.0
 10
-12.6053
 20
-12.9881
 30
0.0
 10
-12.5822
 20
-13.0465
 30
0.0
 10
-12.5627
 20
-13.1063
 30
0.0
 10
-12.5469
 20
-13.1671
 30
0.0
 10
-12.5469
 20
-13.1671
 30
0.0
 10
-12.5311
 20
-13.2276
 30
0.0
 10
-12.519
 20
-13.2891
 30
0.0
 10
-12.5118
 20
-13.3511
 30
0.0
 10
-12.5118
 20
-13.3511
 30
0.0
 10
-12.5045
 20
-13.4138
 30
0.0
 10
-12.5022
 20
-13.477
 30
0.0
 10
-12.4999
 20
-13.5402
 30
0.0
  0
SPLINE
  5
72
330
1F
100
AcDbEntity
  8
Defpoints
370
    15
100
AcDbSpline
210
0.0
220
0.0
230
1.0
 70
    11
 71
     3
 72
    20
 73
    16
 74
     0
 42
0.0000000001
 43
0.0000000001
 40
0.0
 40
0.0
 40
0.0
 40
0.0
 40
0.25
 40
0.25
 40
0.25
 40
0.25
 40
0.5
 40
0.5
 40
0.5
 40
0.5
 40
0.75
 40
0.75
 40
0.75
 40
0.75
 40
1.0
 40
1.0
 40
1.0
 40
1.0
 10
-12.7499
 20
-13.5402
 30
0.0
 10
-12.7499
 20
-12.8499
 30
0.0
 10
-13.3096
 20
-12.2902
 30
0.0
 10
-13.9999
 20
-12.2902
 30
0.0
 10
-13.9999
 20
-12.2902
 30
0.0
 10
-14.6903
 20
-12.2902
 30
0.0
 10
-15.2499
 20
-12.8499
 30
0.0
 10
-15.2499
 20
-13.5402
 30
0.0
 10
-15.2499
 20
-13.5402
 30
0.0
 10
-15.2499
 20
-14.2306
 30
0.0
 10
-14.6903
 20
-14.7902
 30
0.0
 10
-14.0
 20
-14.7902
 30
0.0
 10
-14.0
 20
-14.7902
 30
0.0
 10
-13.3096
 20
-14.7902
 30
0.0
 10
-12.7499
 20
-14.2306
 30
0.0
 10
-12.7499
 20
-13.5402
 30
0.0
  0
SPLINE
  5
73
330
1F
100
AcDbEntity
  8
Defpoints
370
    15
100
AcDbSpline
210
0.0
220
0.0
230
1.0
 70
    11
 71
     3
 72
    20
 73
    16
 74
     0
 42
0.0000000001
 43
0.0000000001
 40
0.0
 40
0.0
 40
0.0
 40
0.0
 40
0.25
 40
0.25
 40
0.25
 40
0.25
 40
0.5
 40
0.5
 40
0.5
 40
0.5
 40
0.75
 40
0.75
 40
0.75
 40
0.75
 40
1.0
 40
1.0
 40
1.0
 40
1.0
 10
-11.7358
 20
14.4598
 30
0.0
 10
-11.7358
 20
15.7103
 30
0.0
 10
-12.7495
 20
16.724
 30
0.0
 10
-13.9999
 20
16.724
 30
0.0
 10
-13.9999
 20
16.724
 30
0.0
 10
-15.2504
 20
16.724
 30
0.0
 10
-16.2641
 20
15.7103
 30
0.0
 10
-16.2641
 20
14.4598
 30
0.0
 10
-16.2641
 20
14.4598
 30
0.0
 10
-16.2641
 20
13.2093
 30
0.0
 10
-15.2504
 20
12.1956
 30
0.0
 10
-14.0
 20
12.1956
 30
0.0
 10
-14.0
 20
12.1956
 30
0.0
 10
-12.7495
 20
12.1956
 30
0.0
 10
-11.7358
 20
13.2093
 30
0.0
 10
-11.7358
 20
14.4598
 30
0.0
  0
SPLINE
  5
74
330
1F
100
AcDbEntity
  8
Defpoints
370
    15
100
AcDbSpline
210
0.0
220
0.0
230
1.0
 70
     8
 71
     3
 72
    76
 73
    72
 74
     0
 42
0.0000000001
 43
0.0000000001
 40
0.0
 40
0.0
 40
0.0
 40
0.0
 40
0.0555555555555556
 40
0.0555555555555556
 40
0.0555555555555556
 40
0.0555555555555556
 40
0.1111111111111111
 40
0.1111111111111111
 40
0.1111111111111111
 40
0.1111111111111111
 40
0.1666666666666667
 40
0.1666666666666667
 40
0.1666666666666667
 40
0.1666666666666667
 40
0.2222222222222222
 40
0.2222222222222222
 40
0.2222222222222222
 40
0.2222222222222222
 40
0.2777777777777778
 40
0.2777777777777778
 40
0.2777777777777778
 40
0.2777777777777778
 40
0.3333333333333334
 40
0.3333333333333334
 40
0.3333333333333334
 40
0.3333333333333334
 40
0.388888888888889
 40
0.388888888888889
 40
0.388888888888889
 40
0.388888888888889
 40
0.4444444444444445
 40
0.4444444444444445
 40
0.4444444444444445
 40
0.4444444444444445
 40
0.5000000000000001
 40
0.5000000000000001
 40
0.5000000000000001
 40
0.5000000000000001
 40
0.5555555555555557
 40
0.5555555555555557
 40
0.5555555555555557
 40
0.5555555555555557
 40
0.6111111111111113
 40
0.6111111111111113
 40
0.6111111111111113
 40
0.6111111111111113
 40
0.6666666666666669
 40
0.6666666666666669
 40
0.6666666666666669
 40
0.6666666666666669
 40
0.7222222222222224
 40
0.7222222222222224
 40
0.7222222222222224
 40
0.7222222222222224
 40
0.777777777777778
 40
0.777777777777778
 40
0.777777777777778
 40
0.777777777777778
 40
0.8333333333333336
 40
0.8333333333333336
 40
0.8333333333333336
 40
0.8333333333333336
 40
0.8888888888888892
 40
0.8888888888888892
 40
0.8888888888888892
 40
0.8888888888888892
 40
0.9444444444444448
 40
0.9444444444444448
 40
0.9444444444444448
 40
0.9444444444444448
 40
1.0
 40
1.0
 40
1.0
 40
1.0
 10
-12.4999
 20
14.4598
 30
0.0
 10
-12.5008
 20
14.4218
 30
0.0
 10
-12.5016
 20
14.3839
 30
0.0
 10
-12.5043
 20
14.3461
 30
0.0
 10
-12.5043
 20
14.3461
 30
0.0
 10
-12.5069
 20
14.3086
 30
0.0
 10
-12.5112
 20
14.2712
 30
0.0
 10
-12.5169
 20
14.234
 30
0.0
 10
-12.5169
 20
14.234
 30
0.0
 10
-12.5226
 20
14.1969
 30
0.0
 10
-12.5296
 20
14.1601
 30
0.0
 10
-12.538
 20
14.1236
 30
0.0
 10
-12.538
 20
14.1236
 30
0.0
 10
-12.5464
 20
14.0869
 30
0.0
 10
-12.5563
 20
14.0507
 30
0.0
 10
-12.5674
 20
14.0148
 30
0.0
 10
-12.5674
 20
14.0148
 30
0.0
 10
-12.5787
 20
13.9786
 30
0.0
 10
-12.5913
 20
13.9429
 30
0.0
 10
-12.6053
 20
13.9076
 30
0.0
 10
-12.6053
 20
13.9076
 30
0.0
 10
-12.6427
 20
13.8129
 30
0.0
 10
-12.6897
 20
13.7218
 30
0.0
 10
-12.7457
 20
13.6365
 30
0.0
 10
-12.7457
 20
13.6365
 30
0.0
 10
-12.8018
 20
13.551
 30
0.0
 10
-12.8669
 20
13.4715
 30
0.0
 10
-12.9393
 20
13.3991
 30
0.0
 10
-12.9393
 20
13.3991
 30
0.0
 10
-13.0114
 20
13.327
 30
0.0
 10
-13.0907
 20
13.2621
 30
0.0
 10
-13.1758
 20
13.2061
 30
0.0
 10
-13.1758
 20
13.2061
 30
0.0
 10
-13.2612
 20
13.1499
 30
0.0
 10
-13.3525
 20
13.1027
 30
0.0
 10
-13.4478
 20
13.0651
 30
0.0
 10
-13.4478
 20
13.0651
 30
0.0
 10
-13.6227
 20
12.9962
 30
0.0
 10
-13.8113
 20
12.9598
 30
0.0
 10
-13.9999
 20
12.9598
 30
0.0
 10
-13.9999
 20
12.9598
 30
0.0
 10
-14.1886
 20
12.9598
 30
0.0
 10
-14.3772
 20
12.9962
 30
0.0
 10
-14.5521
 20
13.0651
 30
0.0
 10
-14.5521
 20
13.0651
 30
0.0
 10
-14.6471
 20
13.1025
 30
0.0
 10
-14.7381
 20
13.1496
 30
0.0
 10
-14.8232
 20
13.2055
 30
0.0
 10
-14.8232
 20
13.2055
 30
0.0
 10
-14.9087
 20
13.2617
 30
0.0
 10
-14.9882
 20
13.3268
 30
0.0
 10
-15.0606
 20
13.3991
 30
0.0
 10
-15.0606
 20
13.3991
 30
0.0
 10
-15.1327
 20
13.4712
 30
0.0
 10
-15.1976
 20
13.5505
 30
0.0
 10
-15.2536
 20
13.6356
 30
0.0
 10
-15.2536
 20
13.6356
 30
0.0
 10
-15.3098
 20
13.7211
 30
0.0
 10
-15.357
 20
13.8126
 30
0.0
 10
-15.3946
 20
13.9076
 30
0.0
 10
-15.3946
 20
13.9076
 30
0.0
 10
-15.4177
 20
13.9661
 30
0.0
 10
-15.4372
 20
14.0258
 30
0.0
 10
-15.453
 20
14.0867
 30
0.0
 10
-15.453
 20
14.0867
 30
0.0
 10
-15.4688
 20
14.1472
 30
0.0
 10
-15.4809
 20
14.2087
 30
0.0
 10
-15.4881
 20
14.2707
 30
0.0
 10
-15.4881
 20
14.2707
 30
0.0
 10
-15.4954
 20
14.3334
 30
0.0
 10
-15.4977
 20
14.3966
 30
0.0
 10
-15.4999
 20
14.4598
 30
0.0
  0
SPLINE
  5
75
330
1F
100
AcDbEntity
  8
Defpoints
370
    15
100
AcDbSpline
210
0.0
220
0.0
230
1.0
 70
     8
 71
     3
 72
    76
 73
    72
 74
     0
 42
0.0000000001
 43
0.0000000001
 40
0.0
 40
0.0
 40
0.0
 40
0.0
 40
0.0555555555555556
 40
0.0555555555555556
 40
0.0555555555555556
 40
0.0555555555555556
 40
0.1111111111111111
 40
0.1111111111111111
 40
0.1111111111111111
 40
0.1111111111111111
 40
0.1666666666666667
 40
0.1666666666666667
 40
0.1666666666666667
 40
0.1666666666666667
 40
0.2222222222222222
 40
0.2222222222222222
 40
0.2222222222222222
 40
0.2222222222222222
 40
0.2777777777777778
 40
0.2777777777777778
 40
0.2777777777777778
 40
0.2777777777777778
 40
0.3333333333333334
 40
0.3333333333333334
 40
0.3333333333333334
 40
0.3333333333333334
 40
0.388888888888889
 40
0.388888888888889
 40
0.388888888888889
 40
0.388888888888889
 40
0.4444444444444445
 40
0.4444444444444445
 40
0.4444444444444445
 40
0.4444444444444445
 40
0.5000000000000001
 40
0.5000000000000001
 40
0.5000000000000001
 40
0.5000000000000001
 40
0.5555555555555557
 40
0.5555555555555557
 40
0.5555555555555557
 40
0.5555555555555557
 40
0.6111111111111113
 40
0.6111111111111113
 40
0.6111111111111113
 40
0.6111111111111113
 40
0.6666666666666669
 40
0.6666666666666669
 40
0.6666666666666669
 40
0.6666666666666669
 40
0.7222222222222224
 40
0.7222222222222224
 40
0.7222222222222224
 40
0.7222222222222224
 40
0.777777777777778
 40
0.777777777777778
 40
0.777777777777778
 40
0.777777777777778
 40
0.8333333333333336
 40
0.8333333333333336
 40
0.8333333333333336
 40
0.8333333333333336
 40
0.8888888888888892
 40
0.8888888888888892
 40
0.8888888888888892
 40
0.8888888888888892
 40
0.9444444444444448
 40
0.9444444444444448
 40
0.9444444444444448
 40
0.9444444444444448
 40
1.0
 40
1.0
 40
1.0
 40
1.0
 10
-15.4999
 20
14.4598
 30
0.0
 10
-15.4991
 20
14.4977
 30
0.0
 10
-15.4983
 20
14.5357
 30
0.0
 10
-15.4956
 20
14.5735
 30
0.0
 10
-15.4956
 20
14.5735
 30
0.0
 10
-15.493
 20
14.611
 30
0.0
 10
-15.4887
 20
14.6484
 30
0.0
 10
-15.483
 20
14.6856
 30
0.0
 10
-15.483
 20
14.6856
 30
0.0
 10
-15.4773
 20
14.7226
 30
0.0
 10
-15.4703
 20
14.7595
 30
0.0
 10
-15.4619
 20
14.796
 30
0.0
 10
-15.4619
 20
14.796
 30
0.0
 10
-15.4535
 20
14.8326
 30
0.0
 10
-15.4436
 20
14.8689
 30
0.0
 10
-15.4325
 20
14.9048
 30
0.0
 10
-15.4325
 20
14.9048
 30
0.0
 10
-15.4212
 20
14.941
 30
0.0
 10
-15.4086
 20
14.9767
 30
0.0
 10
-15.3946
 20
15.0119
 30
0.0
 10
-15.3946
 20
15.0119
 30
0.0
 10
-15.3572
 20
15.1066
 30
0.0
 10
-15.3102
 20
15.1978
 30
0.0
 10
-15.2542
 20
15.2831
 30
0.0
 10
-15.2542
 20
15.2831
 30
0.0
 10
-15.1981
 20
15.3686
 30
0.0
 10
-15.133
 20
15.4481
 30
0.0
 10
-15.0606
 20
15.5204
 30
0.0
 10
-15.0606
 20
15.5204
 30
0.0
 10
-14.9885
 20
15.5925
 30
0.0
 10
-14.9092
 20
15.6575
 30
0.0
 10
-14.8241
 20
15.7135
 30
0.0
 10
-14.8241
 20
15.7135
 30
0.0
 10
-14.7387
 20
15.7697
 30
0.0
 10
-14.6474
 20
15.8169
 30
0.0
 10
-14.5521
 20
15.8545
 30
0.0
 10
-14.5521
 20
15.8545
 30
0.0
 10
-14.3772
 20
15.9234
 30
0.0
 10
-14.1886
 20
15.9598
 30
0.0
 10
-13.9999
 20
15.9598
 30
0.0
 10
-13.9999
 20
15.9598
 30
0.0
 10
-13.8113
 20
15.9598
 30
0.0
 10
-13.6227
 20
15.9234
 30
0.0
 10
-13.4478
 20
15.8545
 30
0.0
 10
-13.4478
 20
15.8545
 30
0.0
 10
-13.3528
 20
15.817
 30
0.0
 10
-13.2618
 20
15.77
 30
0.0
 10
-13.1767
 20
15.7141
 30
0.0
 10
-13.1767
 20
15.7141
 30
0.0
 10
-13.0912
 20
15.6579
 30
0.0
 10
-13.0116
 20
15.5928
 30
0.0
 10
-12.9393
 20
15.5204
 30
0.0
 10
-12.9393
 20
15.5204
 30
0.0
 10
-12.8672
 20
15.4484
 30
0.0
 10
-12.8022
 20
15.3691
 30
0.0
 10
-12.7462
 20
15.2839
 30
0.0
 10
-12.7462
 20
15.2839
 30
0.0
 10
-12.69
 20
15.1985
 30
0.0
 10
-12.6428
 20
15.107
 30
0.0
 10
-12.6053
 20
15.0119
 30
0.0
 10
-12.6053
 20
15.0119
 30
0.0
 10
-12.5822
 20
14.9535
 30
0.0
 10
-12.5627
 20
14.8937
 30
0.0
 10
-12.5469
 20
14.8329
 30
0.0
 10
-12.5469
 20
14.8329
 30
0.0
 10
-12.5311
 20
14.7724
 30
0.0
 10
-12.519
 20
14.7109
 30
0.0
 10
-12.5118
 20
14.6489
 30
0.0
 10
-12.5118
 20
14.6489
 30
0.0
 10
-12.5045
 20
14.5862
 30
0.0
 10
-12.5022
 20
14.523
 30
0.0
 10
-12.4999
 20
14.4598
 30
0.0
  0
SPLINE
  5
76
330
1F
100
AcDbEntity
  8
Defpoints
370
    15
100
AcDbSpline
210
0.0
220
0.0
230
1.0
 70
    11
 71
     3
 72
    20
 73
    16
 74
     0
 42
0.0000000001
 43
0.0000000001
 40
0.0
 40
0.0
 40
0.0
 40
0.0
 40
0.25
 40
0.25
 40
0.25
 40
0.25
 40
0.5
 40
0.5
 40
0.5
 40
0.5
 40
0.75
 40
0.75
 40
0.75
 40
0.75
 40
1.0
 40
1.0
 40
1.0
 40
1.0
 10
-12.7499
 20
14.4598
 30
0.0
 10
-12.7499
 20
15.1501
 30
0.0
 10
-13.3096
 20
15.7098
 30
0.0
 10
-13.9999
 20
15.7098
 30
0.0
 10
-13.9999
 20
15.7098
 30
0.0
 10
-14.6903
 20
15.7098
 30
0.0
 10
-15.2499
 20
15.1501
 30
0.0
 10
-15.2499
 20
14.4598
 30
0.0
 10
-15.2499
 20
14.4598
 30
0.0
 10
-15.2499
 20
13.7694
 30
0.0
 10
-14.6903
 20
13.2098
 30
0.0
 10
-14.0
 20
13.2098
 30
0.0
 10
-14.0
 20
13.2098
 30
0.0
 10
-13.3096
 20
13.2098
 30
0.0
 10
-12.7499
 20
13.7694
 30
0.0
 10
-12.7499
 20
14.4598
 30
0.0
  0
SPLINE
  5
77
330
1F
100
AcDbEntity
  8
Defpoints
370
    15
100
AcDbSpline
210
0.0
220
0.0
230
1.0
 70
    11
 71
     3
 72
    20
 73
    16
 74
     0
 42
0.0000000001
 43
0.0000000001
 40
0.0
 40
0.0
 40
0.0
 40
0.0
 40
0.25
 40
0.25
 40
0.25
 40
0.25
 40
0.5
 40
0.5
 40
0.5
 40
0.5
 40
0.75
 40
0.75
 40
0.75
 40
0.75
 40
1.0
 40
1.0
 40
1.0
 40
1.0
 10
16.5001
 20
-13.5402
 30
0.0
 10
16.5001
 20
-12.1595
 30
0.0
 10
15.3808
 20
-11.0402
 30
0.0
 10
14.0001
 20
-11.0402
 30
0.0
 10
14.0001
 20
-11.0402
 30
0.0
 10
12.6193
 20
-11.0402
 30
0.0
 10
11.5001
 20
-12.1595
 30
0.0
 10
11.5001
 20
-13.5402
 30
0.0
 10
11.5001
 20
-13.5402
 30
0.0
 10
11.5001
 20
-14.9209
 30
0.0
 10
12.6193
 20
-16.0402
 30
0.0
 10
14.0
 20
-16.0402
 30
0.0
 10
14.0
 20
-16.0402
 30
0.0
 10
15.3808
 20
-16.0402
 30
0.0
 10
16.5
 20
-14.9209
 30
0.0
 10
16.5001
 20
-13.5402
 30
0.0
  0
SPLINE
  5
78
330
1F
100
AcDbEntity
  8
Defpoints
370
    15
100
AcDbSpline
210
0.0
220
0.0
230
1.0
 70
    11
 71
     3
 72
    20
 73
    16
 74
     0
 42
0.0000000001
 43
0.0000000001
 40
0.0
 40
0.0
 40
0.0
 40
0.0
 40
0.25
 40
0.25
 40
0.25
 40
0.25
 40
0.5
 40
0.5
 40
0.5
 40
0.5
 40
0.75
 40
0.75
 40
0.75
 40
0.75
 40
1.0
 40
1.0
 40
1.0
 40
1.0
 10
16.5001
 20
14.4598
 30
0.0
 10
16.5001
 20
15.8405
 30
0.0
 10
15.3808
 20
16.9598
 30
0.0
 10
14.0001
 20
16.9598
 30
0.0
 10
14.0001
 20
16.9598
 30
0.0
 10
12.6193
 20
16.9598
 30
0.0
 10
11.5001
 20
15.8405
 30
0.0
 10
11.5001
 20
14.4598
 30
0.0
 10
11.5001
 20
14.4598
 30
0.0
 10
11.5001
 20
13.0791
 30
0.0
 10
12.6193
 20
11.9598
 30
0.0
 10
14.0
 20
11.9598
 30
0.0
 10
14.0
 20
11.9598
 30
0.0
 10
15.3808
 20
11.9598
 30
0.0
 10
16.5
 20
13.0791
 30
0.0
 10
16.5001
 20
14.4598
 30
0.0
  0
SPLINE
  5
79
330
1F
100
AcDbEntity
  8
Defpoints
370
    15
100
AcDbSpline
210
0.0
220
0.0
230
1.0
 70
    11
 71
     3
 72
    20
 73
    16
 74
     0
 42
0.0000000001
 43
0.0000000001
 40
0.0
 40
0.0
 40
0.0
 40
0.0
 40
0.25
 40
0.25
 40
0.25
 40
0.25
 40
0.5
 40
0.5
 40
0.5
 40
0.5
 40
0.75
 40
0.75
 40
0.75
 40
0.75
 40
1.0
 40
1.0
 40
1.0
 40
1.0
 10
-11.4999
 20
14.4598
 30
0.0
 10
-11.4999
 20
15.8405
 30
0.0
 10
-12.6192
 20
16.9598
 30
0.0
 10
-13.9999
 20
16.9598
 30
0.0
 10
-13.9999
 20
16.9598
 30
0.0
 10
-15.3807
 20
16.9598
 30
0.0
 10
-16.4999
 20
15.8405
 30
0.0
 10
-16.4999
 20
14.4598
 30
0.0
 10
-16.4999
 20
14.4598
 30
0.0
 10
-16.4999
 20
13.0791
 30
0.0
 10
-15.3807
 20
11.9598
 30
0.0
 10
-14.0
 20
11.9598
 30
0.0
 10
-14.0
 20
11.9598
 30
0.0
 10
-12.6192
 20
11.9598
 30
0.0
 10
-11.5
 20
13.0791
 30
0.0
 10
-11.4999
 20
14.4598
 30
0.0
  0
SPLINE
  5
7A
330
1F
100
AcDbEntity
  8
Defpoints
370
    15
100
AcDbSpline
210
0.0
220
0.0
230
1.0
 70
    11
 71
     3
 72
    20
 73
    16
 74
     0
 42
0.0000000001
 43
0.0000000001
 40
0.0
 40
0.0
 40
0.0
 40
0.0
 40
0.25
 40
0.25
 40
0.25
 40
0.25
 40
0.5
 40
0.5
 40
0.5
 40
0.5
 40
0.75
 40
0.75
 40
0.75
 40
0.75
 40
1.0
 40
1.0
 40
1.0
 40
1.0
 10
-11.4999
 20
-13.5402
 30
0.0
 10
-11.4999
 20
-12.1595
 30
0.0
 10
-12.6192
 20
-11.0402
 30
0.0
 10
-13.9999
 20
-11.0402
 30
0.0
 10
-13.9999
 20
-11.0402
 30
0.0
 10
-15.3807
 20
-11.0402
 30
0.0
 10
-16.4999
 20
-12.1595
 30
0.0
 10
-16.4999
 20
-13.5402
 30
0.0
 10
-16.4999
 20
-13.5402
 30
0.0
 10
-16.4999
 20
-14.9209
 30
0.0
 10
-15.3807
 20
-16.0402
 30
0.0
 10
-14.0
 20
-16.0402
 30
0.0
 10
-14.0
 20
-16.0402
 30
0.0
 10
-12.6192
 20
-16.0402
 30
0.0
 10
-11.5
 20
-14.9209
 30
0.0
 10
-11.4999
 20
-13.5402
 30
0.0
  0
SPLINE
  5
7B
330
1F
100
AcDbEntity
  8
Defpoints
370
    15
100
AcDbSpline
210
0.0
220
0.0
230
1.0
 70
    24
 71
     3
 72
     8
 73
     4
 74
     0
 42
0.0000000001
 43
0.0000000001
 40
0.0
 40
0.0
 40
0.0
 40
0.0
 40
1.0
 40
1.0
 40
1.0
 40
1.0
 10
-27.7969
 20
-27.3902
 30
0.0
 10
-27.7969
 20
-27.3902
 30
0.0
 10
-28.7547
 20
-27.3902
 30
0.0
 10
-28.7547
 20
-27.3902
 30
0.0
  0
SPLINE
  5
7C
330
1F
100
AcDbEntity
  8
Defpoints
370
    15
100
AcDbSpline
210
0.0
220
0.0
230
1.0
 70
    24
 71
     3
 72
     8
 73
     4
 74
     0
 42
0.0000000001
 43
0.0000000001
 40
0.0
 40
0.0
 40
0.0
 40
0.0
 40
1.0
 40
1.0
 40
1.0
 40
1.0
 10
28.7547
 20
-27.3902
 30
0.0
 10
28.7547
 20
-27.3902
 30
0.0
 10
27.797
 20
-27.3902
 30
0.0
 10
27.797
 20
-27.3902
 30
0.0
  0
SPLINE
  5
7D
330
1F
100
AcDbEntity
  8
Defpoints
370
    15
100
AcDbSpline
210
0.0
220
0.0
230
1.0
 70
    24
 71
     3
 72
     8
 73
     4
 74
     0
 42
0.0000000001
 43
0.0000000001
 40
0.0
 40
0.0
 40
0.0
 40
0.0
 40
1.0
 40
1.0
 40
1.0
 40
1.0
 10
-28.7547
 20
28.3097
 30
0.0
 10
-28.7547
 20
28.3097
 30
0.0
 10
-27.7969
 20
28.3097
 30
0.0
 10
-27.7969
 20
28.3097
 30
0.0
  0
SPLINE
  5
7E
330
1F
100
AcDbEntity
  8
Defpoints
370
    15
100
AcDbSpline
210
0.0
220
0.0
230
1.0
 70
    24
 71
     3
 72
     8
 73
     4
 74
     0
 42
0.0000000001
 43
0.0000000001
 40
0.0
 40
0.0
 40
0.0
 40
0.0
 40
1.0
 40
1.0
 40
1.0
 40
1.0
 10
27.797
 20
28.3097
 30
0.0
 10
27.797
 20
28.3097
 30
0.0
 10
28.7547
 20
28.3097
 30
0.0
 10
28.7547
 20
28.3097
 30
0.0
  0
SPLINE
  5
7F
330
1F
100
AcDbEntity
  8
Defpoints
370
    15
100
AcDbSpline
210
0.0
220
0.0
230
1.0
 70
    24
 71
     3
 72
     8
 73
     4
 74
     0
 42
0.0000000001
 43
0.0000000001
 40
0.0
 40
0.0
 40
0.0
 40
0.0
 40
1.0
 40
1.0
 40
1.0
 40
1.0
 10
29.2499
 20
-27.3902
 30
0.0
 10
29.2499
 20
-27.3902
 30
0.0
 10
29.2499
 20
28.3097
 30
0.0
 10
29.2499
 20
28.3097
 30
0.0
  0
SPLINE
  5
80
330
1F
100
AcDbEntity
  8
Defpoints
370
    15
100
AcDbSpline
210
0.0
220
0.0
230
1.0
 70
    24
 71
     3
 72
     8
 73
     4
 74
     0
 42
0.0000000001
 43
0.0000000001
 40
0.0
 40
0.0
 40
0.0
 40
0.0
 40
1.0
 40
1.0
 40
1.0
 40
1.0
 10
-29.2499
 20
28.3097
 30
0.0
 10
-29.2499
 20
28.3097
 30
0.0
 10
-29.2499
 20
-27.3902
 30
0.0
 10
-29.2499
 20
-27.3902
 30
0.0
  0
SPLINE
  5
81
330
1F
100
AcDbEntity
  8
Defpoints
370
    15
100
AcDbSpline
210
0.0
220
0.0
230
1.0
 70
    24
 71
     3
 72
     8
 73
     4
 74
     0
 42
0.0000000001
 43
0.0000000001
 40
0.0
 40
0.0
 40
0.0
 40
0.0
 40
1.0
 40
1.0
 40
1.0
 40
1.0
 10
27.797
 20
-27.3902
 30
0.0
 10
27.797
 20
-27.3902
 30
0.0
 10
-27.7969
 20
-27.3902
 30
0.0
 10
-27.7969
 20
-27.3902
 30
0.0
  0
SPLINE
  5
82
330
1F
100
AcDbEntity
  8
Defpoints
370
    15
100
AcDbSpline
210
0.0
220
0.0
230
1.0
 70
    24
 71
     3
 72
     8
 73
     4
 74
     0
 42
0.0000000001
 43
0.0000000001
 40
0.0
 40
0.0
 40
0.0
 40
0.0
 40
1.0
 40
1.0
 40
1.0
 40
1.0
 10
-27.7969
 20
28.3097
 30
0.0
 10
-27.7969
 20
28.3097
 30
0.0
 10
27.797
 20
28.3097
 30
0.0
 10
27.797
 20
28.3097
 30
0.0
  0
SPLINE
  5
83
330
1F
100
AcDbEntity
  8
Defpoints
370
    15
100
AcDbSpline
210
0.0
220
0.0
230
1.0
 70
     8
 71
     3
 72
    76
 73
    72
 74
     0
 42
0.0000000001
 43
0.0000000001
 40
0.0
 40
0.0
 40
0.0
 40
0.0
 40
0.0555555555555556
 40
0.0555555555555556
 40
0.0555555555555556
 40
0.0555555555555556
 40
0.1111111111111111
 40
0.1111111111111111
 40
0.1111111111111111
 40
0.1111111111111111
 40
0.1666666666666667
 40
0.1666666666666667
 40
0.1666666666666667
 40
0.1666666666666667
 40
0.2222222222222222
 40
0.2222222222222222
 40
0.2222222222222222
 40
0.2222222222222222
 40
0.2777777777777778
 40
0.2777777777777778
 40
0.2777777777777778
 40
0.2777777777777778
 40
0.3333333333333334
 40
0.3333333333333334
 40
0.3333333333333334
 40
0.3333333333333334
 40
0.388888888888889
 40
0.388888888888889
 40
0.388888888888889
 40
0.388888888888889
 40
0.4444444444444445
 40
0.4444444444444445
 40
0.4444444444444445
 40
0.4444444444444445
 40
0.5000000000000001
 40
0.5000000000000001
 40
0.5000000000000001
 40
0.5000000000000001
 40
0.5555555555555557
 40
0.5555555555555557
 40
0.5555555555555557
 40
0.5555555555555557
 40
0.6111111111111113
 40
0.6111111111111113
 40
0.6111111111111113
 40
0.6111111111111113
 40
0.6666666666666669
 40
0.6666666666666669
 40
0.6666666666666669
 40
0.6666666666666669
 40
0.7222222222222224
 40
0.7222222222222224
 40
0.7222222222222224
 40
0.7222222222222224
 40
0.777777777777778
 40
0.777777777777778
 40
0.777777777777778
 40
0.777777777777778
 40
0.8333333333333336
 40
0.8333333333333336
 40
0.8333333333333336
 40
0.8333333333333336
 40
0.8888888888888892
 40
0.8888888888888892
 40
0.8888888888888892
 40
0.8888888888888892
 40
0.9444444444444448
 40
0.9444444444444448
 40
0.9444444444444448
 40
0.9444444444444448
 40
1.0
 40
1.0
 40
1.0
 40
1.0
 10
8.0001
 20
22.9598
 30
0.0
 10
8.0009
 20
22.9977
 30
0.0
 10
8.0017
 20
23.0357
 30
0.0
 10
8.0044
 20
23.0735
 30
0.0
 10
8.0044
 20
23.0735
 30
0.0
 10
8.007
 20
23.111
 30
0.0
 10
8.0113
 20
23.1484
 30
0.0
 10
8.017
 20
23.1856
 30
0.0
 10
8.017
 20
23.1856
 30
0.0
 10
8.0227
 20
23.2226
 30
0.0
 10
8.0297
 20
23.2595
 30
0.0
 10
8.0381
 20
23.296
 30
0.0
 10
8.0381
 20
23.296
 30
0.0
 10
8.0465
 20
23.3326
 30
0.0
 10
8.0564
 20
23.3689
 30
0.0
 10
8.0675
 20
23.4048
 30
0.0
 10
8.0675
 20
23.4048
 30
0.0
 10
8.0788
 20
23.441
 30
0.0
 10
8.0914
 20
23.4767
 30
0.0
 10
8.1054
 20
23.5119
 30
0.0
 10
8.1054
 20
23.5119
 30
0.0
 10
8.1428
 20
23.6066
 30
0.0
 10
8.1898
 20
23.6978
 30
0.0
 10
8.2458
 20
23.7831
 30
0.0
 10
8.2458
 20
23.7831
 30
0.0
 10
8.3019
 20
23.8686
 30
0.0
 10
8.367
 20
23.9481
 30
0.0
 10
8.4394
 20
24.0204
 30
0.0
 10
8.4394
 20
24.0204
 30
0.0
 10
8.5115
 20
24.0925
 30
0.0
 10
8.5908
 20
24.1575
 30
0.0
 10
8.6759
 20
24.2135
 30
0.0
 10
8.6759
 20
24.2135
 30
0.0
 10
8.7613
 20
24.2697
 30
0.0
 10
8.8526
 20
24.3169
 30
0.0
 10
8.9479
 20
24.3545
 30
0.0
 10
8.9479
 20
24.3545
 30
0.0
 10
9.1228
 20
24.4234
 30
0.0
 10
9.3114
 20
24.4598
 30
0.0
 10
9.5001
 20
24.4598
 30
0.0
 10
9.5001
 20
24.4598
 30
0.0
 10
9.6887
 20
24.4598
 30
0.0
 10
9.8773
 20
24.4234
 30
0.0
 10
10.0522
 20
24.3545
 30
0.0
 10
10.0522
 20
24.3545
 30
0.0
 10
10.1472
 20
24.317
 30
0.0
 10
10.2382
 20
24.27
 30
0.0
 10
10.3233
 20
24.2141
 30
0.0
 10
10.3233
 20
24.2141
 30
0.0
 10
10.4088
 20
24.1579
 30
0.0
 10
10.4884
 20
24.0928
 30
0.0
 10
10.5607
 20
24.0204
 30
0.0
 10
10.5607
 20
24.0204
 30
0.0
 10
10.6328
 20
23.9484
 30
0.0
 10
10.6978
 20
23.8691
 30
0.0
 10
10.7538
 20
23.7839
 30
0.0
 10
10.7538
 20
23.7839
 30
0.0
 10
10.81
 20
23.6985
 30
0.0
 10
10.8572
 20
23.607
 30
0.0
 10
10.8947
 20
23.5119
 30
0.0
 10
10.8947
 20
23.5119
 30
0.0
 10
10.9178
 20
23.4535
 30
0.0
 10
10.9373
 20
23.3937
 30
0.0
 10
10.9531
 20
23.3329
 30
0.0
 10
10.9531
 20
23.3329
 30
0.0
 10
10.9689
 20
23.2724
 30
0.0
 10
10.981
 20
23.2109
 30
0.0
 10
10.9882
 20
23.1489
 30
0.0
 10
10.9882
 20
23.1489
 30
0.0
 10
10.9955
 20
23.0862
 30
0.0
 10
10.9978
 20
23.023
 30
0.0
 10
11.0001
 20
22.9598
 30
0.0
  0
SPLINE
  5
84
330
1F
100
AcDbEntity
  8
Defpoints
370
    15
100
AcDbSpline
210
0.0
220
0.0
230
1.0
 70
     8
 71
     3
 72
    76
 73
    72
 74
     0
 42
0.0000000001
 43
0.0000000001
 40
0.0
 40
0.0
 40
0.0
 40
0.0
 40
0.0555555555555556
 40
0.0555555555555556
 40
0.0555555555555556
 40
0.0555555555555556
 40
0.1111111111111111
 40
0.1111111111111111
 40
0.1111111111111111
 40
0.1111111111111111
 40
0.1666666666666667
 40
0.1666666666666667
 40
0.1666666666666667
 40
0.1666666666666667
 40
0.2222222222222222
 40
0.2222222222222222
 40
0.2222222222222222
 40
0.2222222222222222
 40
0.2777777777777778
 40
0.2777777777777778
 40
0.2777777777777778
 40
0.2777777777777778
 40
0.3333333333333334
 40
0.3333333333333334
 40
0.3333333333333334
 40
0.3333333333333334
 40
0.388888888888889
 40
0.388888888888889
 40
0.388888888888889
 40
0.388888888888889
 40
0.4444444444444445
 40
0.4444444444444445
 40
0.4444444444444445
 40
0.4444444444444445
 40
0.5000000000000001
 40
0.5000000000000001
 40
0.5000000000000001
 40
0.5000000000000001
 40
0.5555555555555557
 40
0.5555555555555557
 40
0.5555555555555557
 40
0.5555555555555557
 40
0.6111111111111113
 40
0.6111111111111113
 40
0.6111111111111113
 40
0.6111111111111113
 40
0.6666666666666669
 40
0.6666666666666669
 40
0.6666666666666669
 40
0.6666666666666669
 40
0.7222222222222224
 40
0.7222222222222224
 40
0.7222222222222224
 40
0.7222222222222224
 40
0.777777777777778
 40
0.777777777777778
 40
0.777777777777778
 40
0.777777777777778
 40
0.8333333333333336
 40
0.8333333333333336
 40
0.8333333333333336
 40
0.8333333333333336
 40
0.8888888888888892
 40
0.8888888888888892
 40
0.8888888888888892
 40
0.8888888888888892
 40
0.9444444444444448
 40
0.9444444444444448
 40
0.9444444444444448
 40
0.9444444444444448
 40
1.0
 40
1.0
 40
1.0
 40
1.0
 10
11.0001
 20
22.9598
 30
0.0
 10
10.9992
 20
22.9218
 30
0.0
 10
10.9984
 20
22.8839
 30
0.0
 10
10.9957
 20
22.8461
 30
0.0
 10
10.9957
 20
22.8461
 30
0.0
 10
10.9931
 20
22.8086
 30
0.0
 10
10.9888
 20
22.7712
 30
0.0
 10
10.9831
 20
22.734
 30
0.0
 10
10.9831
 20
22.734
 30
0.0
 10
10.9774
 20
22.6969
 30
0.0
 10
10.9704
 20
22.6601
 30
0.0
 10
10.962
 20
22.6236
 30
0.0
 10
10.962
 20
22.6236
 30
0.0
 10
10.9536
 20
22.5869
 30
0.0
 10
10.9437
 20
22.5507
 30
0.0
 10
10.9326
 20
22.5148
 30
0.0
 10
10.9326
 20
22.5148
 30
0.0
 10
10.9213
 20
22.4786
 30
0.0
 10
10.9087
 20
22.4429
 30
0.0
 10
10.8947
 20
22.4076
 30
0.0
 10
10.8947
 20
22.4076
 30
0.0
 10
10.8573
 20
22.3129
 30
0.0
 10
10.8103
 20
22.2218
 30
0.0
 10
10.7543
 20
22.1365
 30
0.0
 10
10.7543
 20
22.1365
 30
0.0
 10
10.6982
 20
22.051
 30
0.0
 10
10.6331
 20
21.9715
 30
0.0
 10
10.5607
 20
21.8991
 30
0.0
 10
10.5607
 20
21.8991
 30
0.0
 10
10.4886
 20
21.827
 30
0.0
 10
10.4093
 20
21.7621
 30
0.0
 10
10.3242
 20
21.7061
 30
0.0
 10
10.3242
 20
21.7061
 30
0.0
 10
10.2388
 20
21.6499
 30
0.0
 10
10.1475
 20
21.6027
 30
0.0
 10
10.0522
 20
21.5651
 30
0.0
 10
10.0522
 20
21.5651
 30
0.0
 10
9.8773
 20
21.4962
 30
0.0
 10
9.6887
 20
21.4598
 30
0.0
 10
9.5001
 20
21.4598
 30
0.0
 10
9.5001
 20
21.4598
 30
0.0
 10
9.3114
 20
21.4598
 30
0.0
 10
9.1228
 20
21.4962
 30
0.0
 10
8.9479
 20
21.5651
 30
0.0
 10
8.9479
 20
21.5651
 30
0.0
 10
8.8529
 20
21.6025
 30
0.0
 10
8.7619
 20
21.6496
 30
0.0
 10
8.6768
 20
21.7055
 30
0.0
 10
8.6768
 20
21.7055
 30
0.0
 10
8.5913
 20
21.7617
 30
0.0
 10
8.5118
 20
21.8268
 30
0.0
 10
8.4394
 20
21.8991
 30
0.0
 10
8.4394
 20
21.8991
 30
0.0
 10
8.3673
 20
21.9712
 30
0.0
 10
8.3024
 20
22.0505
 30
0.0
 10
8.2464
 20
22.1356
 30
0.0
 10
8.2464
 20
22.1356
 30
0.0
 10
8.1902
 20
22.2211
 30
0.0
 10
8.143
 20
22.3126
 30
0.0
 10
8.1054
 20
22.4076
 30
0.0
 10
8.1054
 20
22.4076
 30
0.0
 10
8.0823
 20
22.4661
 30
0.0
 10
8.0628
 20
22.5258
 30
0.0
 10
8.047
 20
22.5867
 30
0.0
 10
8.047
 20
22.5867
 30
0.0
 10
8.0312
 20
22.6472
 30
0.0
 10
8.0191
 20
22.7087
 30
0.0
 10
8.0119
 20
22.7707
 30
0.0
 10
8.0119
 20
22.7707
 30
0.0
 10
8.0046
 20
22.8334
 30
0.0
 10
8.0023
 20
22.8966
 30
0.0
 10
8.0001
 20
22.9598
 30
0.0
  0
SPLINE
  5
85
330
1F
100
AcDbEntity
  8
Defpoints
370
    15
100
AcDbSpline
210
0.0
220
0.0
230
1.0
 70
    11
 71
     3
 72
    20
 73
    16
 74
     0
 42
0.0000000001
 43
0.0000000001
 40
0.0
 40
0.0
 40
0.0
 40
0.0
 40
0.25
 40
0.25
 40
0.25
 40
0.25
 40
0.5
 40
0.5
 40
0.5
 40
0.5
 40
0.75
 40
0.75
 40
0.75
 40
0.75
 40
1.0
 40
1.0
 40
1.0
 40
1.0
 10
12.5001
 20
22.9598
 30
0.0
 10
12.5001
 20
24.6166
 30
0.0
 10
11.1569
 20
25.9598
 30
0.0
 10
9.5001
 20
25.9598
 30
0.0
 10
9.5001
 20
25.9598
 30
0.0
 10
7.8432
 20
25.9598
 30
0.0
 10
6.5001
 20
24.6166
 30
0.0
 10
6.5001
 20
22.9598
 30
0.0
 10
6.5001
 20
22.9598
 30
0.0
 10
6.5
 20
21.3029
 30
0.0
 10
7.8432
 20
19.9598
 30
0.0
 10
9.5
 20
19.9598
 30
0.0
 10
9.5
 20
19.9598
 30
0.0
 10
11.1569
 20
19.9598
 30
0.0
 10
12.5
 20
21.3029
 30
0.0
 10
12.5001
 20
22.9598
 30
0.0
  0
SPLINE
  5
86
330
1F
100
AcDbEntity
  8
Defpoints
370
    15
100
AcDbSpline
210
0.0
220
0.0
230
1.0
 70
     8
 71
     3
 72
    76
 73
    72
 74
     0
 42
0.0000000001
 43
0.0000000001
 40
0.0
 40
0.0
 40
0.0
 40
0.0
 40
0.0555555555555556
 40
0.0555555555555556
 40
0.0555555555555556
 40
0.0555555555555556
 40
0.1111111111111111
 40
0.1111111111111111
 40
0.1111111111111111
 40
0.1111111111111111
 40
0.1666666666666667
 40
0.1666666666666667
 40
0.1666666666666667
 40
0.1666666666666667
 40
0.2222222222222222
 40
0.2222222222222222
 40
0.2222222222222222
 40
0.2222222222222222
 40
0.2777777777777778
 40
0.2777777777777778
 40
0.2777777777777778
 40
0.2777777777777778
 40
0.3333333333333334
 40
0.3333333333333334
 40
0.3333333333333334
 40
0.3333333333333334
 40
0.388888888888889
 40
0.388888888888889
 40
0.388888888888889
 40
0.388888888888889
 40
0.4444444444444445
 40
0.4444444444444445
 40
0.4444444444444445
 40
0.4444444444444445
 40
0.5000000000000001
 40
0.5000000000000001
 40
0.5000000000000001
 40
0.5000000000000001
 40
0.5555555555555557
 40
0.5555555555555557
 40
0.5555555555555557
 40
0.5555555555555557
 40
0.6111111111111113
 40
0.6111111111111113
 40
0.6111111111111113
 40
0.6111111111111113
 40
0.6666666666666669
 40
0.6666666666666669
 40
0.6666666666666669
 40
0.6666666666666669
 40
0.7222222222222224
 40
0.7222222222222224
 40
0.7222222222222224
 40
0.7222222222222224
 40
0.777777777777778
 40
0.777777777777778
 40
0.777777777777778
 40
0.777777777777778
 40
0.8333333333333336
 40
0.8333333333333336
 40
0.8333333333333336
 40
0.8333333333333336
 40
0.8888888888888892
 40
0.8888888888888892
 40
0.8888888888888892
 40
0.8888888888888892
 40
0.9444444444444448
 40
0.9444444444444448
 40
0.9444444444444448
 40
0.9444444444444448
 40
1.0
 40
1.0
 40
1.0
 40
1.0
 10
-10.9999
 20
22.9598
 30
0.0
 10
-10.9991
 20
22.9977
 30
0.0
 10
-10.9983
 20
23.0357
 30
0.0
 10
-10.9956
 20
23.0735
 30
0.0
 10
-10.9956
 20
23.0735
 30
0.0
 10
-10.993
 20
23.111
 30
0.0
 10
-10.9887
 20
23.1484
 30
0.0
 10
-10.983
 20
23.1856
 30
0.0
 10
-10.983
 20
23.1856
 30
0.0
 10
-10.9773
 20
23.2226
 30
0.0
 10
-10.9703
 20
23.2595
 30
0.0
 10
-10.9619
 20
23.296
 30
0.0
 10
-10.9619
 20
23.296
 30
0.0
 10
-10.9535
 20
23.3326
 30
0.0
 10
-10.9436
 20
23.3689
 30
0.0
 10
-10.9325
 20
23.4048
 30
0.0
 10
-10.9325
 20
23.4048
 30
0.0
 10
-10.9212
 20
23.441
 30
0.0
 10
-10.9086
 20
23.4767
 30
0.0
 10
-10.8946
 20
23.5119
 30
0.0
 10
-10.8946
 20
23.5119
 30
0.0
 10
-10.8572
 20
23.6066
 30
0.0
 10
-10.8102
 20
23.6978
 30
0.0
 10
-10.7542
 20
23.7831
 30
0.0
 10
-10.7542
 20
23.7831
 30
0.0
 10
-10.6981
 20
23.8686
 30
0.0
 10
-10.633
 20
23.9481
 30
0.0
 10
-10.5606
 20
24.0204
 30
0.0
 10
-10.5606
 20
24.0204
 30
0.0
 10
-10.4885
 20
24.0925
 30
0.0
 10
-10.4092
 20
24.1575
 30
0.0
 10
-10.3241
 20
24.2135
 30
0.0
 10
-10.3241
 20
24.2135
 30
0.0
 10
-10.2387
 20
24.2697
 30
0.0
 10
-10.1474
 20
24.3169
 30
0.0
 10
-10.0521
 20
24.3545
 30
0.0
 10
-10.0521
 20
24.3545
 30
0.0
 10
-9.8772
 20
24.4234
 30
0.0
 10
-9.6886
 20
24.4598
 30
0.0
 10
-9.4999
 20
24.4598
 30
0.0
 10
-9.4999
 20
24.4598
 30
0.0
 10
-9.3113
 20
24.4598
 30
0.0
 10
-9.1227
 20
24.4234
 30
0.0
 10
-8.9478
 20
24.3545
 30
0.0
 10
-8.9478
 20
24.3545
 30
0.0
 10
-8.8528
 20
24.317
 30
0.0
 10
-8.7618
 20
24.27
 30
0.0
 10
-8.6767
 20
24.2141
 30
0.0
 10
-8.6767
 20
24.2141
 30
0.0
 10
-8.5912
 20
24.1579
 30
0.0
 10
-8.5116
 20
24.0928
 30
0.0
 10
-8.4393
 20
24.0204
 30
0.0
 10
-8.4393
 20
24.0204
 30
0.0
 10
-8.3672
 20
23.9484
 30
0.0
 10
-8.3022
 20
23.8691
 30
0.0
 10
-8.2462
 20
23.7839
 30
0.0
 10
-8.2462
 20
23.7839
 30
0.0
 10
-8.19
 20
23.6985
 30
0.0
 10
-8.1428
 20
23.607
 30
0.0
 10
-8.1053
 20
23.5119
 30
0.0
 10
-8.1053
 20
23.5119
 30
0.0
 10
-8.0822
 20
23.4535
 30
0.0
 10
-8.0627
 20
23.3937
 30
0.0
 10
-8.0469
 20
23.3329
 30
0.0
 10
-8.0469
 20
23.3329
 30
0.0
 10
-8.0311
 20
23.2724
 30
0.0
 10
-8.019
 20
23.2109
 30
0.0
 10
-8.0118
 20
23.1489
 30
0.0
 10
-8.0118
 20
23.1489
 30
0.0
 10
-8.0045
 20
23.0862
 30
0.0
 10
-8.0022
 20
23.023
 30
0.0
 10
-7.9999
 20
22.9598
 30
0.0
  0
SPLINE
  5
87
330
1F
100
AcDbEntity
  8
Defpoints
370
    15
100
AcDbSpline
210
0.0
220
0.0
230
1.0
 70
     8
 71
     3
 72
    76
 73
    72
 74
     0
 42
0.0000000001
 43
0.0000000001
 40
0.0
 40
0.0
 40
0.0
 40
0.0
 40
0.0555555555555556
 40
0.0555555555555556
 40
0.0555555555555556
 40
0.0555555555555556
 40
0.1111111111111111
 40
0.1111111111111111
 40
0.1111111111111111
 40
0.1111111111111111
 40
0.1666666666666667
 40
0.1666666666666667
 40
0.1666666666666667
 40
0.1666666666666667
 40
0.2222222222222222
 40
0.2222222222222222
 40
0.2222222222222222
 40
0.2222222222222222
 40
0.2777777777777778
 40
0.2777777777777778
 40
0.2777777777777778
 40
0.2777777777777778
 40
0.3333333333333334
 40
0.3333333333333334
 40
0.3333333333333334
 40
0.3333333333333334
 40
0.388888888888889
 40
0.388888888888889
 40
0.388888888888889
 40
0.388888888888889
 40
0.4444444444444445
 40
0.4444444444444445
 40
0.4444444444444445
 40
0.4444444444444445
 40
0.5000000000000001
 40
0.5000000000000001
 40
0.5000000000000001
 40
0.5000000000000001
 40
0.5555555555555557
 40
0.5555555555555557
 40
0.5555555555555557
 40
0.5555555555555557
 40
0.6111111111111113
 40
0.6111111111111113
 40
0.6111111111111113
 40
0.6111111111111113
 40
0.6666666666666669
 40
0.6666666666666669
 40
0.6666666666666669
 40
0.6666666666666669
 40
0.7222222222222224
 40
0.7222222222222224
 40
0.7222222222222224
 40
0.7222222222222224
 40
0.777777777777778
 40
0.777777777777778
 40
0.777777777777778
 40
0.777777777777778
 40
0.8333333333333336
 40
0.8333333333333336
 40
0.8333333333333336
 40
0.8333333333333336
 40
0.8888888888888892
 40
0.8888888888888892
 40
0.8888888888888892
 40
0.8888888888888892
 40
0.9444444444444448
 40
0.9444444444444448
 40
0.9444444444444448
 40
0.9444444444444448
 40
1.0
 40
1.0
 40
1.0
 40
1.0
 10
-7.9999
 20
22.9598
 30
0.0
 10
-8.0008
 20
22.9218
 30
0.0
 10
-8.0016
 20
22.8839
 30
0.0
 10
-8.0043
 20
22.8461
 30
0.0
 10
-8.0043
 20
22.8461
 30
0.0
 10
-8.0069
 20
22.8086
 30
0.0
 10
-8.0112
 20
22.7712
 30
0.0
 10
-8.0169
 20
22.734
 30
0.0
 10
-8.0169
 20
22.734
 30
0.0
 10
-8.0226
 20
22.6969
 30
0.0
 10
-8.0296
 20
22.6601
 30
0.0
 10
-8.038
 20
22.6236
 30
0.0
 10
-8.038
 20
22.6236
 30
0.0
 10
-8.0464
 20
22.5869
 30
0.0
 10
-8.0563
 20
22.5507
 30
0.0
 10
-8.0674
 20
22.5148
 30
0.0
 10
-8.0674
 20
22.5148
 30
0.0
 10
-8.0787
 20
22.4786
 30
0.0
 10
-8.0913
 20
22.4429
 30
0.0
 10
-8.1053
 20
22.4076
 30
0.0
 10
-8.1053
 20
22.4076
 30
0.0
 10
-8.1427
 20
22.3129
 30
0.0
 10
-8.1897
 20
22.2218
 30
0.0
 10
-8.2457
 20
22.1365
 30
0.0
 10
-8.2457
 20
22.1365
 30
0.0
 10
-8.3018
 20
22.051
 30
0.0
 10
-8.3669
 20
21.9715
 30
0.0
 10
-8.4393
 20
21.8991
 30
0.0
 10
-8.4393
 20
21.8991
 30
0.0
 10
-8.5114
 20
21.827
 30
0.0
 10
-8.5907
 20
21.7621
 30
0.0
 10
-8.6758
 20
21.7061
 30
0.0
 10
-8.6758
 20
21.7061
 30
0.0
 10
-8.7612
 20
21.6499
 30
0.0
 10
-8.8525
 20
21.6027
 30
0.0
 10
-8.9478
 20
21.5651
 30
0.0
 10
-8.9478
 20
21.5651
 30
0.0
 10
-9.1227
 20
21.4962
 30
0.0
 10
-9.3113
 20
21.4598
 30
0.0
 10
-9.4999
 20
21.4598
 30
0.0
 10
-9.4999
 20
21.4598
 30
0.0
 10
-9.6886
 20
21.4598
 30
0.0
 10
-9.8772
 20
21.4962
 30
0.0
 10
-10.0521
 20
21.5651
 30
0.0
 10
-10.0521
 20
21.5651
 30
0.0
 10
-10.1471
 20
21.6025
 30
0.0
 10
-10.2381
 20
21.6496
 30
0.0
 10
-10.3232
 20
21.7055
 30
0.0
 10
-10.3232
 20
21.7055
 30
0.0
 10
-10.4087
 20
21.7617
 30
0.0
 10
-10.4882
 20
21.8268
 30
0.0
 10
-10.5606
 20
21.8991
 30
0.0
 10
-10.5606
 20
21.8991
 30
0.0
 10
-10.6327
 20
21.9712
 30
0.0
 10
-10.6976
 20
22.0505
 30
0.0
 10
-10.7536
 20
22.1356
 30
0.0
 10
-10.7536
 20
22.1356
 30
0.0
 10
-10.8098
 20
22.2211
 30
0.0
 10
-10.857
 20
22.3126
 30
0.0
 10
-10.8946
 20
22.4076
 30
0.0
 10
-10.8946
 20
22.4076
 30
0.0
 10
-10.9177
 20
22.4661
 30
0.0
 10
-10.9372
 20
22.5258
 30
0.0
 10
-10.953
 20
22.5867
 30
0.0
 10
-10.953
 20
22.5867
 30
0.0
 10
-10.9688
 20
22.6472
 30
0.0
 10
-10.9809
 20
22.7087
 30
0.0
 10
-10.9881
 20
22.7707
 30
0.0
 10
-10.9881
 20
22.7707
 30
0.0
 10
-10.9954
 20
22.8334
 30
0.0
 10
-10.9977
 20
22.8966
 30
0.0
 10
-10.9999
 20
22.9598
 30
0.0
  0
SPLINE
  5
88
330
1F
100
AcDbEntity
  8
Defpoints
370
    15
100
AcDbSpline
210
0.0
220
0.0
230
1.0
 70
    11
 71
     3
 72
    20
 73
    16
 74
     0
 42
0.0000000001
 43
0.0000000001
 40
0.0
 40
0.0
 40
0.0
 40
0.0
 40
0.25
 40
0.25
 40
0.25
 40
0.25
 40
0.5
 40
0.5
 40
0.5
 40
0.5
 40
0.75
 40
0.75
 40
0.75
 40
0.75
 40
1.0
 40
1.0
 40
1.0
 40
1.0
 10
-6.4999
 20
22.9598
 30
0.0
 10
-6.4999
 20
24.6166
 30
0.0
 10
-7.8431
 20
25.9598
 30
0.0
 10
-9.4999
 20
25.9598
 30
0.0
 10
-9.4999
 20
25.9598
 30
0.0
 10
-11.1568
 20
25.9598
 30
0.0
 10
-12.4999
 20
24.6166
 30
0.0
 10
-12.4999
 20
22.9598
 30
0.0
 10
-12.4999
 20
22.9598
 30
0.0
 10
-12.5
 20
21.3029
 30
0.0
 10
-11.1568
 20
19.9598
 30
0.0
 10
-9.5
 20
19.9598
 30
0.0
 10
-9.5
 20
19.9598
 30
0.0
 10
-7.8431
 20
19.9598
 30
0.0
 10
-6.5
 20
21.3029
 30
0.0
 10
-6.4999
 20
22.9598
 30
0.0
  0
SPLINE
  5
89
330
1F
100
AcDbEntity
  8
Defpoints
370
    15
100
AcDbSpline
210
0.0
220
0.0
230
1.0
 70
    11
 71
     3
 72
    20
 73
    16
 74
     0
 42
0.0000000001
 43
0.0000000001
 40
0.0
 40
0.0
 40
0.0
 40
0.0
 40
0.25
 40
0.25
 40
0.25
 40
0.25
 40
0.5
 40
0.5
 40
0.5
 40
0.5
 40
0.75
 40
0.75
 40
0.75
 40
0.75
 40
1.0
 40
1.0
 40
1.0
 40
1.0
 10
-12.0095
 20
-25.7973
 30
0.0
 10
-12.0095
 20
-25.6657
 30
0.0
 10
-12.1162
 20
-25.559
 30
0.0
 10
-12.2479
 20
-25.559
 30
0.0
 10
-12.2479
 20
-25.559
 30
0.0
 10
-12.3795
 20
-25.559
 30
0.0
 10
-12.4863
 20
-25.6657
 30
0.0
 10
-12.4863
 20
-25.7973
 30
0.0
 10
-12.4863
 20
-25.7973
 30
0.0
 10
-12.4863
 20
-25.929
 30
0.0
 10
-12.3795
 20
-26.0357
 30
0.0
 10
-12.2479
 20
-26.0357
 30
0.0
 10
-12.2479
 20
-26.0357
 30
0.0
 10
-12.1162
 20
-26.0357
 30
0.0
 10
-12.0095
 20
-25.929
 30
0.0
 10
-12.0095
 20
-25.7973
 30
0.0
  0
SPLINE
  5
8A
330
1F
100
AcDbEntity
  8
Defpoints
370
    15
100
AcDbSpline
210
0.0
220
0.0
230
1.0
 70
    11
 71
     3
 72
    20
 73
    16
 74
     0
 42
0.0000000001
 43
0.0000000001
 40
0.0
 40
0.0
 40
0.0
 40
0.0
 40
0.25
 40
0.25
 40
0.25
 40
0.25
 40
0.5
 40
0.5
 40
0.5
 40
0.5
 40
0.75
 40
0.75
 40
0.75
 40
0.75
 40
1.0
 40
1.0
 40
1.0
 40
1.0
 10
-12.0595
 20
-25.7973
 30
0.0
 10
-12.0595
 20
-25.6933
 30
0.0
 10
-12.1439
 20
-25.609
 30
0.0
 10
-12.2479
 20
-25.609
 30
0.0
 10
-12.2479
 20
-25.609
 30
0.0
 10
-12.3519
 20
-25.609
 30
0.0
 10
-12.4363
 20
-25.6933
 30
0.0
 10
-12.4363
 20
-25.7973
 30
0.0
 10
-12.4363
 20
-25.7973
 30
0.0
 10
-12.4363
 20
-25.9014
 30
0.0
 10
-12.3519
 20
-25.9857
 30
0.0
 10
-12.2479
 20
-25.9857
 30
0.0
 10
-12.2479
 20
-25.9857
 30
0.0
 10
-12.1439
 20
-25.9857
 30
0.0
 10
-12.0595
 20
-25.9014
 30
0.0
 10
-12.0595
 20
-25.7973
 30
0.0
  0
SPLINE
  5
8B
330
1F
100
AcDbEntity
  8
Defpoints
370
    15
100
AcDbSpline
210
0.0
220
0.0
230
1.0
 70
    11
 71
     3
 72
    20
 73
    16
 74
     0
 42
0.0000000001
 43
0.0000000001
 40
0.0
 40
0.0
 40
0.0
 40
0.0
 40
0.25
 40
0.25
 40
0.25
 40
0.25
 40
0.5
 40
0.5
 40
0.5
 40
0.5
 40
0.75
 40
0.75
 40
0.75
 40
0.75
 40
1.0
 40
1.0
 40
1.0
 40
1.0
 10
-2.384
 20
-25.8099
 30
0.0
 10
-2.384
 20
-25.6782
 30
0.0
 10
-2.4907
 20
-25.5715
 30
0.0
 10
-2.6224
 20
-25.5715
 30
0.0
 10
-2.6224
 20
-25.5715
 30
0.0
 10
-2.754
 20
-25.5715
 30
0.0
 10
-2.8607
 20
-25.6782
 30
0.0
 10
-2.8607
 20
-25.8099
 30
0.0
 10
-2.8607
 20
-25.8099
 30
0.0
 10
-2.8607
 20
-25.9416
 30
0.0
 10
-2.754
 20
-26.0483
 30
0.0
 10
-2.6224
 20
-26.0483
 30
0.0
 10
-2.6224
 20
-26.0483
 30
0.0
 10
-2.4907
 20
-26.0483
 30
0.0
 10
-2.384
 20
-25.9416
 30
0.0
 10
-2.384
 20
-25.8099
 30
0.0
  0
SPLINE
  5
8C
330
1F
100
AcDbEntity
  8
Defpoints
370
    15
100
AcDbSpline
210
0.0
220
0.0
230
1.0
 70
    11
 71
     3
 72
    20
 73
    16
 74
     0
 42
0.0000000001
 43
0.0000000001
 40
0.0
 40
0.0
 40
0.0
 40
0.0
 40
0.25
 40
0.25
 40
0.25
 40
0.25
 40
0.5
 40
0.5
 40
0.5
 40
0.5
 40
0.75
 40
0.75
 40
0.75
 40
0.75
 40
1.0
 40
1.0
 40
1.0
 40
1.0
 10
-2.434
 20
-25.8099
 30
0.0
 10
-2.434
 20
-25.7059
 30
0.0
 10
-2.5183
 20
-25.6215
 30
0.0
 10
-2.6224
 20
-25.6215
 30
0.0
 10
-2.6224
 20
-25.6215
 30
0.0
 10
-2.7264
 20
-25.6215
 30
0.0
 10
-2.8107
 20
-25.7059
 30
0.0
 10
-2.8107
 20
-25.8099
 30
0.0
 10
-2.8107
 20
-25.8099
 30
0.0
 10
-2.8107
 20
-25.9139
 30
0.0
 10
-2.7264
 20
-25.9983
 30
0.0
 10
-2.6224
 20
-25.9983
 30
0.0
 10
-2.6224
 20
-25.9983
 30
0.0
 10
-2.5183
 20
-25.9983
 30
0.0
 10
-2.434
 20
-25.9139
 30
0.0
 10
-2.434
 20
-25.8099
 30
0.0
  0
SPLINE
  5
8D
330
1F
100
AcDbEntity
  8
Defpoints
370
    15
100
AcDbSpline
210
0.0
220
0.0
230
1.0
 70
    11
 71
     3
 72
    20
 73
    16
 74
     0
 42
0.0000000001
 43
0.0000000001
 40
0.0
 40
0.0
 40
0.0
 40
0.0
 40
0.25
 40
0.25
 40
0.25
 40
0.25
 40
0.5
 40
0.5
 40
0.5
 40
0.5
 40
0.75
 40
0.75
 40
0.75
 40
0.75
 40
1.0
 40
1.0
 40
1.0
 40
1.0
 10
7.1937
 20
-25.8019
 30
0.0
 10
7.1937
 20
-25.6979
 30
0.0
 10
7.1093
 20
-25.6136
 30
0.0
 10
7.0053
 20
-25.6136
 30
0.0
 10
7.0053
 20
-25.6136
 30
0.0
 10
6.9013
 20
-25.6136
 30
0.0
 10
6.8169
 20
-25.6979
 30
0.0
 10
6.8169
 20
-25.8019
 30
0.0
 10
6.8169
 20
-25.8019
 30
0.0
 10
6.8169
 20
-25.906
 30
0.0
 10
6.9013
 20
-25.9903
 30
0.0
 10
7.0053
 20
-25.9903
 30
0.0
 10
7.0053
 20
-25.9903
 30
0.0
 10
7.1093
 20
-25.9903
 30
0.0
 10
7.1937
 20
-25.906
 30
0.0
 10
7.1937
 20
-25.8019
 30
0.0
  0
SPLINE
  5
8E
330
1F
100
AcDbEntity
  8
Defpoints
370
    15
100
AcDbSpline
210
0.0
220
0.0
230
1.0
 70
    11
 71
     3
 72
    20
 73
    16
 74
     0
 42
0.0000000001
 43
0.0000000001
 40
0.0
 40
0.0
 40
0.0
 40
0.0
 40
0.25
 40
0.25
 40
0.25
 40
0.25
 40
0.5
 40
0.5
 40
0.5
 40
0.5
 40
0.75
 40
0.75
 40
0.75
 40
0.75
 40
1.0
 40
1.0
 40
1.0
 40
1.0
 10
7.2437
 20
-25.8019
 30
0.0
 10
7.2437
 20
-25.6703
 30
0.0
 10
7.1369
 20
-25.5636
 30
0.0
 10
7.0053
 20
-25.5636
 30
0.0
 10
7.0053
 20
-25.5636
 30
0.0
 10
6.8736
 20
-25.5636
 30
0.0
 10
6.7669
 20
-25.6703
 30
0.0
 10
6.7669
 20
-25.8019
 30
0.0
 10
6.7669
 20
-25.8019
 30
0.0
 10
6.7669
 20
-25.9336
 30
0.0
 10
6.8736
 20
-26.0403
 30
0.0
 10
7.0053
 20
-26.0403
 30
0.0
 10
7.0053
 20
-26.0403
 30
0.0
 10
7.1369
 20
-26.0403
 30
0.0
 10
7.2437
 20
-25.9336
 30
0.0
 10
7.2437
 20
-25.8019
 30
0.0
  0
SPLINE
  5
8F
330
1F
100
AcDbEntity
  8
Defpoints
370
     9
100
AcDbSpline
210
0.0
220
0.0
230
1.0
 70
    24
 71
     3
 72
     8
 73
     4
 74
     0
 42
0.0000000001
 43
0.0000000001
 40
0.0
 40
0.0
 40
0.0
 40
0.0
 40
1.0
 40
1.0
 40
1.0
 40
1.0
 10
25.0001
 20
7.7798
 30
0.0
 10
25.0001
 20
7.7798
 30
0.0
 10
25.0001
 20
10.2798
 30
0.0
 10
25.0001
 20
10.2798
 30
0.0
  0
SPLINE
  5
90
330
1F
100
AcDbEntity
  8
Defpoints
370
     9
100
AcDbSpline
210
0.0
220
0.0
230
1.0
 70
    24
 71
     3
 72
     8
 73
     4
 74
     0
 42
0.0000000001
 43
0.0000000001
 40
0.0
 40
0.0
 40
0.0
 40
0.0
 40
1.0
 40
1.0
 40
1.0
 40
1.0
 10
25.0001
 20
7.7798
 30
0.0
 10
25.0001
 20
7.7798
 30
0.0
 10
22.5001
 20
7.7798
 30
0.0
 10
22.5001
 20
7.7798
 30
0.0
  0
SPLINE
  5
91
330
1F
100
AcDbEntity
  8
Defpoints
370
     9
100
AcDbSpline
210
0.0
220
0.0
230
1.0
 70
    24
 71
     3
 72
     8
 73
     4
 74
     0
 42
0.0000000001
 43
0.0000000001
 40
0.0
 40
0.0
 40
0.0
 40
0.0
 40
1.0
 40
1.0
 40
1.0
 40
1.0
 10
25.0001
 20
7.7798
 30
0.0
 10
25.0001
 20
7.7798
 30
0.0
 10
25.0001
 20
5.2798
 30
0.0
 10
25.0001
 20
5.2798
 30
0.0
  0
SPLINE
  5
92
330
1F
100
AcDbEntity
  8
Defpoints
370
     9
100
AcDbSpline
210
0.0
220
0.0
230
1.0
 70
    24
 71
     3
 72
     8
 73
     4
 74
     0
 42
0.0000000001
 43
0.0000000001
 40
0.0
 40
0.0
 40
0.0
 40
0.0
 40
1.0
 40
1.0
 40
1.0
 40
1.0
 10
25.0001
 20
7.7798
 30
0.0
 10
25.0001
 20
7.7798
 30
0.0
 10
27.5001
 20
7.7798
 30
0.0
 10
27.5001
 20
7.7798
 30
0.0
  0
SPLINE
  5
93
330
1F
100
AcDbEntity
  8
Defpoints
370
     9
100
AcDbSpline
210
0.0
220
0.0
230
1.0
 70
    24
 71
     3
 72
     8
 73
     4
 74
     0
 42
0.0000000001
 43
0.0000000001
 40
0.0
 40
0.0
 40
0.0
 40
0.0
 40
1.0
 40
1.0
 40
1.0
 40
1.0
 10
-24.9999
 20
7.7798
 30
0.0
 10
-24.9999
 20
7.7798
 30
0.0
 10
-24.9999
 20
10.2798
 30
0.0
 10
-24.9999
 20
10.2798
 30
0.0
  0
SPLINE
  5
94
330
1F
100
AcDbEntity
  8
Defpoints
370
     9
100
AcDbSpline
210
0.0
220
0.0
230
1.0
 70
    24
 71
     3
 72
     8
 73
     4
 74
     0
 42
0.0000000001
 43
0.0000000001
 40
0.0
 40
0.0
 40
0.0
 40
0.0
 40
1.0
 40
1.0
 40
1.0
 40
1.0
 10
-24.9999
 20
7.7798
 30
0.0
 10
-24.9999
 20
7.7798
 30
0.0
 10
-27.4999
 20
7.7798
 30
0.0
 10
-27.4999
 20
7.7798
 30
0.0
  0
SPLINE
  5
95
330
1F
100
AcDbEntity
  8
Defpoints
370
     9
100
AcDbSpline
210
0.0
220
0.0
230
1.0
 70
    24
 71
     3
 72
     8
 73
     4
 74
     0
 42
0.0000000001
 43
0.0000000001
 40
0.0
 40
0.0
 40
0.0
 40
0.0
 40
1.0
 40
1.0
 40
1.0
 40
1.0
 10
-24.9999
 20
7.7798
 30
0.0
 10
-24.9999
 20
7.7798
 30
0.0
 10
-24.9999
 20
5.2798
 30
0.0
 10
-24.9999
 20
5.2798
 30
0.0
  0
SPLINE
  5
96
330
1F
100
AcDbEntity
  8
Defpoints
370
     9
100
AcDbSpline
210
0.0
220
0.0
230
1.0
 70
    24
 71
     3
 72
     8
 73
     4
 74
     0
 42
0.0000000001
 43
0.0000000001
 40
0.0
 40
0.0
 40
0.0
 40
0.0
 40
1.0
 40
1.0
 40
1.0
 40
1.0
 10
-24.9999
 20
7.7798
 30
0.0
 10
-24.9999
 20
7.7798
 30
0.0
 10
-22.4999
 20
7.7798
 30
0.0
 10
-22.4999
 20
7.7798
 30
0.0
  0
SPLINE
  5
97
330
1F
100
AcDbEntity
  8
Defpoints
370
     9
100
AcDbSpline
210
0.0
220
0.0
230
1.0
 70
    24
 71
     3
 72
     8
 73
     4
 74
     0
 42
0.0000000001
 43
0.0000000001
 40
0.0
 40
0.0
 40
0.0
 40
0.0
 40
1.0
 40
1.0
 40
1.0
 40
1.0
 10
-12.2479
 20
-25.7973
 30
0.0
 10
-12.2479
 20
-25.7973
 30
0.0
 10
-12.2479
 20
-23.2973
 30
0.0
 10
-12.2479
 20
-23.2973
 30
0.0
  0
SPLINE
  5
98
330
1F
100
AcDbEntity
  8
Defpoints
370
     9
100
AcDbSpline
210
0.0
220
0.0
230
1.0
 70
    24
 71
     3
 72
     8
 73
     4
 74
     0
 42
0.0000000001
 43
0.0000000001
 40
0.0
 40
0.0
 40
0.0
 40
0.0
 40
1.0
 40
1.0
 40
1.0
 40
1.0
 10
-12.2479
 20
-25.7973
 30
0.0
 10
-12.2479
 20
-25.7973
 30
0.0
 10
-14.7479
 20
-25.7973
 30
0.0
 10
-14.7479
 20
-25.7973
 30
0.0
  0
SPLINE
  5
99
330
1F
100
AcDbEntity
  8
Defpoints
370
     9
100
AcDbSpline
210
0.0
220
0.0
230
1.0
 70
    24
 71
     3
 72
     8
 73
     4
 74
     0
 42
0.0000000001
 43
0.0000000001
 40
0.0
 40
0.0
 40
0.0
 40
0.0
 40
1.0
 40
1.0
 40
1.0
 40
1.0
 10
-12.2479
 20
-25.7973
 30
0.0
 10
-12.2479
 20
-25.7973
 30
0.0
 10
-12.2479
 20
-28.2973
 30
0.0
 10
-12.2479
 20
-28.2973
 30
0.0
  0
SPLINE
  5
9A
330
1F
100
AcDbEntity
  8
Defpoints
370
     9
100
AcDbSpline
210
0.0
220
0.0
230
1.0
 70
    24
 71
     3
 72
     8
 73
     4
 74
     0
 42
0.0000000001
 43
0.0000000001
 40
0.0
 40
0.0
 40
0.0
 40
0.0
 40
1.0
 40
1.0
 40
1.0
 40
1.0
 10
-12.2479
 20
-25.7973
 30
0.0
 10
-12.2479
 20
-25.7973
 30
0.0
 10
-9.7479
 20
-25.7973
 30
0.0
 10
-9.7479
 20
-25.7973
 30
0.0
  0
SPLINE
  5
9B
330
1F
100
AcDbEntity
  8
Defpoints
370
     9
100
AcDbSpline
210
0.0
220
0.0
230
1.0
 70
    24
 71
     3
 72
     8
 73
     4
 74
     0
 42
0.0000000001
 43
0.0000000001
 40
0.0
 40
0.0
 40
0.0
 40
0.0
 40
1.0
 40
1.0
 40
1.0
 40
1.0
 10
-12.2479
 20
-23.2973
 30
0.0
 10
-12.2479
 20
-23.2973
 30
0.0
 10
-12.2479
 20
-23.059
 30
0.0
 10
-12.2479
 20
-23.059
 30
0.0
  0
SPLINE
  5
9C
330
1F
100
AcDbEntity
  8
Defpoints
370
     9
100
AcDbSpline
210
0.0
220
0.0
230
1.0
 70
    24
 71
     3
 72
     8
 73
     4
 74
     0
 42
0.0000000001
 43
0.0000000001
 40
0.0
 40
0.0
 40
0.0
 40
0.0
 40
1.0
 40
1.0
 40
1.0
 40
1.0
 10
-14.7479
 20
-25.7973
 30
0.0
 10
-14.7479
 20
-25.7973
 30
0.0
 10
-14.9863
 20
-25.7973
 30
0.0
 10
-14.9863
 20
-25.7973
 30
0.0
  0
SPLINE
  5
9D
330
1F
100
AcDbEntity
  8
Defpoints
370
     9
100
AcDbSpline
210
0.0
220
0.0
230
1.0
 70
    24
 71
     3
 72
     8
 73
     4
 74
     0
 42
0.0000000001
 43
0.0000000001
 40
0.0
 40
0.0
 40
0.0
 40
0.0
 40
1.0
 40
1.0
 40
1.0
 40
1.0
 10
-9.7479
 20
-25.7973
 30
0.0
 10
-9.7479
 20
-25.7973
 30
0.0
 10
-9.5095
 20
-25.7973
 30
0.0
 10
-9.5095
 20
-25.7973
 30
0.0
  0
SPLINE
  5
9E
330
1F
100
AcDbEntity
  8
Defpoints
370
     9
100
AcDbSpline
210
0.0
220
0.0
230
1.0
 70
    24
 71
     3
 72
     8
 73
     4
 74
     0
 42
0.0000000001
 43
0.0000000001
 40
0.0
 40
0.0
 40
0.0
 40
0.0
 40
1.0
 40
1.0
 40
1.0
 40
1.0
 10
-2.6224
 20
-25.8099
 30
0.0
 10
-2.6224
 20
-25.8099
 30
0.0
 10
-2.6224
 20
-23.3099
 30
0.0
 10
-2.6224
 20
-23.3099
 30
0.0
  0
SPLINE
  5
9F
330
1F
100
AcDbEntity
  8
Defpoints
370
     9
100
AcDbSpline
210
0.0
220
0.0
230
1.0
 70
    24
 71
     3
 72
     8
 73
     4
 74
     0
 42
0.0000000001
 43
0.0000000001
 40
0.0
 40
0.0
 40
0.0
 40
0.0
 40
1.0
 40
1.0
 40
1.0
 40
1.0
 10
-2.6224
 20
-25.8099
 30
0.0
 10
-2.6224
 20
-25.8099
 30
0.0
 10
-5.1224
 20
-25.8099
 30
0.0
 10
-5.1224
 20
-25.8099
 30
0.0
  0
SPLINE
  5
A0
330
1F
100
AcDbEntity
  8
Defpoints
370
     9
100
AcDbSpline
210
0.0
220
0.0
230
1.0
 70
    24
 71
     3
 72
     8
 73
     4
 74
     0
 42
0.0000000001
 43
0.0000000001
 40
0.0
 40
0.0
 40
0.0
 40
0.0
 40
1.0
 40
1.0
 40
1.0
 40
1.0
 10
-2.6224
 20
-25.8099
 30
0.0
 10
-2.6224
 20
-25.8099
 30
0.0
 10
-2.6224
 20
-28.3099
 30
0.0
 10
-2.6224
 20
-28.3099
 30
0.0
  0
SPLINE
  5
A1
330
1F
100
AcDbEntity
  8
Defpoints
370
     9
100
AcDbSpline
210
0.0
220
0.0
230
1.0
 70
    24
 71
     3
 72
     8
 73
     4
 74
     0
 42
0.0000000001
 43
0.0000000001
 40
0.0
 40
0.0
 40
0.0
 40
0.0
 40
1.0
 40
1.0
 40
1.0
 40
1.0
 10
-2.6224
 20
-25.8099
 30
0.0
 10
-2.6224
 20
-25.8099
 30
0.0
 10
-0.1224
 20
-25.8099
 30
0.0
 10
-0.1224
 20
-25.8099
 30
0.0
  0
SPLINE
  5
A2
330
1F
100
AcDbEntity
  8
Defpoints
370
     9
100
AcDbSpline
210
0.0
220
0.0
230
1.0
 70
    24
 71
     3
 72
     8
 73
     4
 74
     0
 42
0.0000000001
 43
0.0000000001
 40
0.0
 40
0.0
 40
0.0
 40
0.0
 40
1.0
 40
1.0
 40
1.0
 40
1.0
 10
-2.6224
 20
-23.3099
 30
0.0
 10
-2.6224
 20
-23.3099
 30
0.0
 10
-2.6224
 20
-23.0715
 30
0.0
 10
-2.6224
 20
-23.0715
 30
0.0
  0
SPLINE
  5
A3
330
1F
100
AcDbEntity
  8
Defpoints
370
     9
100
AcDbSpline
210
0.0
220
0.0
230
1.0
 70
    24
 71
     3
 72
     8
 73
     4
 74
     0
 42
0.0000000001
 43
0.0000000001
 40
0.0
 40
0.0
 40
0.0
 40
0.0
 40
1.0
 40
1.0
 40
1.0
 40
1.0
 10
-5.1224
 20
-25.8099
 30
0.0
 10
-5.1224
 20
-25.8099
 30
0.0
 10
-5.3607
 20
-25.8099
 30
0.0
 10
-5.3607
 20
-25.8099
 30
0.0
  0
SPLINE
  5
A4
330
1F
100
AcDbEntity
  8
Defpoints
370
     9
100
AcDbSpline
210
0.0
220
0.0
230
1.0
 70
    24
 71
     3
 72
     8
 73
     4
 74
     0
 42
0.0000000001
 43
0.0000000001
 40
0.0
 40
0.0
 40
0.0
 40
0.0
 40
1.0
 40
1.0
 40
1.0
 40
1.0
 10
-0.1224
 20
-25.8099
 30
0.0
 10
-0.1224
 20
-25.8099
 30
0.0
 10
0.116
 20
-25.8099
 30
0.0
 10
0.116
 20
-25.8099
 30
0.0
  0
SPLINE
  5
A5
330
1F
100
AcDbEntity
  8
Defpoints
370
     9
100
AcDbSpline
210
0.0
220
0.0
230
1.0
 70
    24
 71
     3
 72
     8
 73
     4
 74
     0
 42
0.0000000001
 43
0.0000000001
 40
0.0
 40
0.0
 40
0.0
 40
0.0
 40
1.0
 40
1.0
 40
1.0
 40
1.0
 10
7.0053
 20
-25.8019
 30
0.0
 10
7.0053
 20
-25.8019
 30
0.0
 10
7.0053
 20
-23.3019
 30
0.0
 10
7.0053
 20
-23.3019
 30
0.0
  0
SPLINE
  5
A6
330
1F
100
AcDbEntity
  8
Defpoints
370
     9
100
AcDbSpline
210
0.0
220
0.0
230
1.0
 70
    24
 71
     3
 72
     8
 73
     4
 74
     0
 42
0.0000000001
 43
0.0000000001
 40
0.0
 40
0.0
 40
0.0
 40
0.0
 40
1.0
 40
1.0
 40
1.0
 40
1.0
 10
7.0053
 20
-25.8019
 30
0.0
 10
7.0053
 20
-25.8019
 30
0.0
 10
4.5053
 20
-25.8019
 30
0.0
 10
4.5053
 20
-25.8019
 30
0.0
  0
SPLINE
  5
A7
330
1F
100
AcDbEntity
  8
Defpoints
370
     9
100
AcDbSpline
210
0.0
220
0.0
230
1.0
 70
    24
 71
     3
 72
     8
 73
     4
 74
     0
 42
0.0000000001
 43
0.0000000001
 40
0.0
 40
0.0
 40
0.0
 40
0.0
 40
1.0
 40
1.0
 40
1.0
 40
1.0
 10
7.0053
 20
-25.8019
 30
0.0
 10
7.0053
 20
-25.8019
 30
0.0
 10
7.0053
 20
-28.3019
 30
0.0
 10
7.0053
 20
-28.3019
 30
0.0
  0
SPLINE
  5
A8
330
1F
100
AcDbEntity
  8
Defpoints
370
     9
100
AcDbSpline
210
0.0
220
0.0
230
1.0
 70
    24
 71
     3
 72
     8
 73
     4
 74
     0
 42
0.0000000001
 43
0.0000000001
 40
0.0
 40
0.0
 40
0.0
 40
0.0
 40
1.0
 40
1.0
 40
1.0
 40
1.0
 10
7.0053
 20
-25.8019
 30
0.0
 10
7.0053
 20
-25.8019
 30
0.0
 10
9.5053
 20
-25.8019
 30
0.0
 10
9.5053
 20
-25.8019
 30
0.0
  0
SPLINE
  5
A9
330
1F
100
AcDbEntity
  8
Defpoints
370
     9
100
AcDbSpline
210
0.0
220
0.0
230
1.0
 70
    24
 71
     3
 72
     8
 73
     4
 74
     0
 42
0.0000000001
 43
0.0000000001
 40
0.0
 40
0.0
 40
0.0
 40
0.0
 40
1.0
 40
1.0
 40
1.0
 40
1.0
 10
7.0053
 20
-23.3019
 30
0.0
 10
7.0053
 20
-23.3019
 30
0.0
 10
7.0053
 20
-23.0636
 30
0.0
 10
7.0053
 20
-23.0636
 30
0.0
  0
SPLINE
  5
AA
330
1F
100
AcDbEntity
  8
Defpoints
370
     9
100
AcDbSpline
210
0.0
220
0.0
230
1.0
 70
    24
 71
     3
 72
     8
 73
     4
 74
     0
 42
0.0000000001
 43
0.0000000001
 40
0.0
 40
0.0
 40
0.0
 40
0.0
 40
1.0
 40
1.0
 40
1.0
 40
1.0
 10
4.5053
 20
-25.8019
 30
0.0
 10
4.5053
 20
-25.8019
 30
0.0
 10
4.2669
 20
-25.8019
 30
0.0
 10
4.2669
 20
-25.8019
 30
0.0
  0
SPLINE
  5
AB
330
1F
100
AcDbEntity
  8
Defpoints
370
     9
100
AcDbSpline
210
0.0
220
0.0
230
1.0
 70
    24
 71
     3
 72
     8
 73
     4
 74
     0
 42
0.0000000001
 43
0.0000000001
 40
0.0
 40
0.0
 40
0.0
 40
0.0
 40
1.0
 40
1.0
 40
1.0
 40
1.0
 10
9.5053
 20
-25.8019
 30
0.0
 10
9.5053
 20
-25.8019
 30
0.0
 10
9.7437
 20
-25.8019
 30
0.0
 10
9.7437
 20
-25.8019
 30
0.0
  0
SPLINE
  5
AC
330
1F
100
AcDbEntity
  8
Defpoints
370
     9
100
AcDbSpline
210
0.0
220
0.0
230
1.0
 70
    24
 71
     3
 72
     8
 73
     4
 74
     0
 42
0.0000000001
 43
0.0000000001
 40
0.0
 40
0.0
 40
0.0
 40
0.0
 40
1.0
 40
1.0
 40
1.0
 40
1.0
 10
14.0001
 20
14.4598
 30
0.0
 10
14.0001
 20
14.4598
 30
0.0
 10
14.0001
 20
16.9598
 30
0.0
 10
14.0001
 20
16.9598
 30
0.0
  0
SPLINE
  5
AD
330
1F
100
AcDbEntity
  8
Defpoints
370
     9
100
AcDbSpline
210
0.0
220
0.0
230
1.0
 70
    24
 71
     3
 72
     8
 73
     4
 74
     0
 42
0.0000000001
 43
0.0000000001
 40
0.0
 40
0.0
 40
0.0
 40
0.0
 40
1.0
 40
1.0
 40
1.0
 40
1.0
 10
14.0001
 20
14.4598
 30
0.0
 10
14.0001
 20
14.4598
 30
0.0
 10
11.5001
 20
14.4598
 30
0.0
 10
11.5001
 20
14.4598
 30
0.0
  0
SPLINE
  5
AE
330
1F
100
AcDbEntity
  8
Defpoints
370
     9
100
AcDbSpline
210
0.0
220
0.0
230
1.0
 70
    24
 71
     3
 72
     8
 73
     4
 74
     0
 42
0.0000000001
 43
0.0000000001
 40
0.0
 40
0.0
 40
0.0
 40
0.0
 40
1.0
 40
1.0
 40
1.0
 40
1.0
 10
14.0001
 20
14.4598
 30
0.0
 10
14.0001
 20
14.4598
 30
0.0
 10
14.0001
 20
11.9598
 30
0.0
 10
14.0001
 20
11.9598
 30
0.0
  0
SPLINE
  5
AF
330
1F
100
AcDbEntity
  8
Defpoints
370
     9
100
AcDbSpline
210
0.0
220
0.0
230
1.0
 70
    24
 71
     3
 72
     8
 73
     4
 74
     0
 42
0.0000000001
 43
0.0000000001
 40
0.0
 40
0.0
 40
0.0
 40
0.0
 40
1.0
 40
1.0
 40
1.0
 40
1.0
 10
14.0001
 20
14.4598
 30
0.0
 10
14.0001
 20
14.4598
 30
0.0
 10
16.5001
 20
14.4598
 30
0.0
 10
16.5001
 20
14.4598
 30
0.0
  0
SPLINE
  5
B0
330
1F
100
AcDbEntity
  8
Defpoints
370
     9
100
AcDbSpline
210
0.0
220
0.0
230
1.0
 70
    24
 71
     3
 72
     8
 73
     4
 74
     0
 42
0.0000000001
 43
0.0000000001
 40
0.0
 40
0.0
 40
0.0
 40
0.0
 40
1.0
 40
1.0
 40
1.0
 40
1.0
 10
-13.9999
 20
-13.5402
 30
0.0
 10
-13.9999
 20
-13.5402
 30
0.0
 10
-13.9999
 20
-11.0402
 30
0.0
 10
-13.9999
 20
-11.0402
 30
0.0
  0
SPLINE
  5
B1
330
1F
100
AcDbEntity
  8
Defpoints
370
     9
100
AcDbSpline
210
0.0
220
0.0
230
1.0
 70
    24
 71
     3
 72
     8
 73
     4
 74
     0
 42
0.0000000001
 43
0.0000000001
 40
0.0
 40
0.0
 40
0.0
 40
0.0
 40
1.0
 40
1.0
 40
1.0
 40
1.0
 10
-13.9999
 20
-13.5402
 30
0.0
 10
-13.9999
 20
-13.5402
 30
0.0
 10
-16.4999
 20
-13.5402
 30
0.0
 10
-16.4999
 20
-13.5402
 30
0.0
  0
SPLINE
  5
B2
330
1F
100
AcDbEntity
  8
Defpoints
370
     9
100
AcDbSpline
210
0.0
220
0.0
230
1.0
 70
    24
 71
     3
 72
     8
 73
     4
 74
     0
 42
0.0000000001
 43
0.0000000001
 40
0.0
 40
0.0
 40
0.0
 40
0.0
 40
1.0
 40
1.0
 40
1.0
 40
1.0
 10
-13.9999
 20
-13.5402
 30
0.0
 10
-13.9999
 20
-13.5402
 30
0.0
 10
-13.9999
 20
-16.0402
 30
0.0
 10
-13.9999
 20
-16.0402
 30
0.0
  0
SPLINE
  5
B3
330
1F
100
AcDbEntity
  8
Defpoints
370
     9
100
AcDbSpline
210
0.0
220
0.0
230
1.0
 70
    24
 71
     3
 72
     8
 73
     4
 74
     0
 42
0.0000000001
 43
0.0000000001
 40
0.0
 40
0.0
 40
0.0
 40
0.0
 40
1.0
 40
1.0
 40
1.0
 40
1.0
 10
-13.9999
 20
-13.5402
 30
0.0
 10
-13.9999
 20
-13.5402
 30
0.0
 10
-11.4999
 20
-13.5402
 30
0.0
 10
-11.4999
 20
-13.5402
 30
0.0
  0
SPLINE
  5
B4
330
1F
100
AcDbEntity
  8
Defpoints
370
     9
100
AcDbSpline
210
0.0
220
0.0
230
1.0
 70
    24
 71
     3
 72
     8
 73
     4
 74
     0
 42
0.0000000001
 43
0.0000000001
 40
0.0
 40
0.0
 40
0.0
 40
0.0
 40
1.0
 40
1.0
 40
1.0
 40
1.0
 10
-13.9999
 20
14.4598
 30
0.0
 10
-13.9999
 20
14.4598
 30
0.0
 10
-13.9999
 20
16.9598
 30
0.0
 10
-13.9999
 20
16.9598
 30
0.0
  0
SPLINE
  5
B5
330
1F
100
AcDbEntity
  8
Defpoints
370
     9
100
AcDbSpline
210
0.0
220
0.0
230
1.0
 70
    24
 71
     3
 72
     8
 73
     4
 74
     0
 42
0.0000000001
 43
0.0000000001
 40
0.0
 40
0.0
 40
0.0
 40
0.0
 40
1.0
 40
1.0
 40
1.0
 40
1.0
 10
-13.9999
 20
14.4598
 30
0.0
 10
-13.9999
 20
14.4598
 30
0.0
 10
-16.4999
 20
14.4598
 30
0.0
 10
-16.4999
 20
14.4598
 30
0.0
  0
SPLINE
  5
B6
330
1F
100
AcDbEntity
  8
Defpoints
370
     9
100
AcDbSpline
210
0.0
220
0.0
230
1.0
 70
    24
 71
     3
 72
     8
 73
     4
 74
     0
 42
0.0000000001
 43
0.0000000001
 40
0.0
 40
0.0
 40
0.0
 40
0.0
 40
1.0
 40
1.0
 40
1.0
 40
1.0
 10
-13.9999
 20
14.4598
 30
0.0
 10
-13.9999
 20
14.4598
 30
0.0
 10
-13.9999
 20
11.9598
 30
0.0
 10
-13.9999
 20
11.9598
 30
0.0
  0
SPLINE
  5
B7
330
1F
100
AcDbEntity
  8
Defpoints
370
     9
100
AcDbSpline
210
0.0
220
0.0
230
1.0
 70
    24
 71
     3
 72
     8
 73
     4
 74
     0
 42
0.0000000001
 43
0.0000000001
 40
0.0
 40
0.0
 40
0.0
 40
0.0
 40
1.0
 40
1.0
 40
1.0
 40
1.0
 10
-13.9999
 20
14.4598
 30
0.0
 10
-13.9999
 20
14.4598
 30
0.0
 10
-11.4999
 20
14.4598
 30
0.0
 10
-11.4999
 20
14.4598
 30
0.0
  0
SPLINE
  5
B8
330
1F
100
AcDbEntity
  8
Defpoints
370
     9
100
AcDbSpline
210
0.0
220
0.0
230
1.0
 70
    24
 71
     3
 72
     8
 73
     4
 74
     0
 42
0.0000000001
 43
0.0000000001
 40
0.0
 40
0.0
 40
0.0
 40
0.0
 40
1.0
 40
1.0
 40
1.0
 40
1.0
 10
9.5001
 20
22.9598
 30
0.0
 10
9.5001
 20
22.9598
 30
0.0
 10
9.5001
 20
25.4598
 30
0.0
 10
9.5001
 20
25.4598
 30
0.0
  0
SPLINE
  5
B9
330
1F
100
AcDbEntity
  8
Defpoints
370
     9
100
AcDbSpline
210
0.0
220
0.0
230
1.0
 70
    24
 71
     3
 72
     8
 73
     4
 74
     0
 42
0.0000000001
 43
0.0000000001
 40
0.0
 40
0.0
 40
0.0
 40
0.0
 40
1.0
 40
1.0
 40
1.0
 40
1.0
 10
9.5001
 20
22.9598
 30
0.0
 10
9.5001
 20
22.9598
 30
0.0
 10
7.0001
 20
22.9598
 30
0.0
 10
7.0001
 20
22.9598
 30
0.0
  0
SPLINE
  5
BA
330
1F
100
AcDbEntity
  8
Defpoints
370
     9
100
AcDbSpline
210
0.0
220
0.0
230
1.0
 70
    24
 71
     3
 72
     8
 73
     4
 74
     0
 42
0.0000000001
 43
0.0000000001
 40
0.0
 40
0.0
 40
0.0
 40
0.0
 40
1.0
 40
1.0
 40
1.0
 40
1.0
 10
9.5001
 20
22.9598
 30
0.0
 10
9.5001
 20
22.9598
 30
0.0
 10
9.5001
 20
20.4598
 30
0.0
 10
9.5001
 20
20.4598
 30
0.0
  0
SPLINE
  5
BB
330
1F
100
AcDbEntity
  8
Defpoints
370
     9
100
AcDbSpline
210
0.0
220
0.0
230
1.0
 70
    24
 71
     3
 72
     8
 73
     4
 74
     0
 42
0.0000000001
 43
0.0000000001
 40
0.0
 40
0.0
 40
0.0
 40
0.0
 40
1.0
 40
1.0
 40
1.0
 40
1.0
 10
9.5001
 20
22.9598
 30
0.0
 10
9.5001
 20
22.9598
 30
0.0
 10
12.0001
 20
22.9598
 30
0.0
 10
12.0001
 20
22.9598
 30
0.0
  0
SPLINE
  5
BC
330
1F
100
AcDbEntity
  8
Defpoints
370
     9
100
AcDbSpline
210
0.0
220
0.0
230
1.0
 70
    24
 71
     3
 72
     8
 73
     4
 74
     0
 42
0.0000000001
 43
0.0000000001
 40
0.0
 40
0.0
 40
0.0
 40
0.0
 40
1.0
 40
1.0
 40
1.0
 40
1.0
 10
-9.4999
 20
22.9598
 30
0.0
 10
-9.4999
 20
22.9598
 30
0.0
 10
-9.4999
 20
25.4598
 30
0.0
 10
-9.4999
 20
25.4598
 30
0.0
  0
SPLINE
  5
BD
330
1F
100
AcDbEntity
  8
Defpoints
370
     9
100
AcDbSpline
210
0.0
220
0.0
230
1.0
 70
    24
 71
     3
 72
     8
 73
     4
 74
     0
 42
0.0000000001
 43
0.0000000001
 40
0.0
 40
0.0
 40
0.0
 40
0.0
 40
1.0
 40
1.0
 40
1.0
 40
1.0
 10
-9.4999
 20
22.9598
 30
0.0
 10
-9.4999
 20
22.9598
 30
0.0
 10
-11.9999
 20
22.9598
 30
0.0
 10
-11.9999
 20
22.9598
 30
0.0
  0
SPLINE
  5
BE
330
1F
100
AcDbEntity
  8
Defpoints
370
     9
100
AcDbSpline
210
0.0
220
0.0
230
1.0
 70
    24
 71
     3
 72
     8
 73
     4
 74
     0
 42
0.0000000001
 43
0.0000000001
 40
0.0
 40
0.0
 40
0.0
 40
0.0
 40
1.0
 40
1.0
 40
1.0
 40
1.0
 10
-9.4999
 20
22.9598
 30
0.0
 10
-9.4999
 20
22.9598
 30
0.0
 10
-9.4999
 20
20.4598
 30
0.0
 10
-9.4999
 20
20.4598
 30
0.0
  0
SPLINE
  5
BF
330
1F
100
AcDbEntity
  8
Defpoints
370
     9
100
AcDbSpline
210
0.0
220
0.0
230
1.0
 70
    24
 71
     3
 72
     8
 73
     4
 74
     0
 42
0.0000000001
 43
0.0000000001
 40
0.0
 40
0.0
 40
0.0
 40
0.0
 40
1.0
 40
1.0
 40
1.0
 40
1.0
 10
-9.4999
 20
22.9598
 30
0.0
 10
-9.4999
 20
22.9598
 30
0.0
 10
-6.9999
 20
22.9598
 30
0.0
 10
-6.9999
 20
22.9598
 30
0.0
  0
SPLINE
  5
C0
330
1F
100
AcDbEntity
  8
Defpoints
370
     9
100
AcDbSpline
210
0.0
220
0.0
230
1.0
 70
    24
 71
     3
 72
     8
 73
     4
 74
     0
 42
0.0000000001
 43
0.0000000001
 40
0.0
 40
0.0
 40
0.0
 40
0.0
 40
1.0
 40
1.0
 40
1.0
 40
1.0
 10
14.0001
 20
-13.5402
 30
0.0
 10
14.0001
 20
-13.5402
 30
0.0
 10
14.0001
 20
-11.0402
 30
0.0
 10
14.0001
 20
-11.0402
 30
0.0
  0
SPLINE
  5
C1
330
1F
100
AcDbEntity
  8
Defpoints
370
     9
100
AcDbSpline
210
0.0
220
0.0
230
1.0
 70
    24
 71
     3
 72
     8
 73
     4
 74
     0
 42
0.0000000001
 43
0.0000000001
 40
0.0
 40
0.0
 40
0.0
 40
0.0
 40
1.0
 40
1.0
 40
1.0
 40
1.0
 10
14.0001
 20
-13.5402
 30
0.0
 10
14.0001
 20
-13.5402
 30
0.0
 10
11.5001
 20
-13.5402
 30
0.0
 10
11.5001
 20
-13.5402
 30
0.0
  0
SPLINE
  5
C2
330
1F
100
AcDbEntity
  8
Defpoints
370
     9
100
AcDbSpline
210
0.0
220
0.0
230
1.0
 70
    24
 71
     3
 72
     8
 73
     4
 74
     0
 42
0.0000000001
 43
0.0000000001
 40
0.0
 40
0.0
 40
0.0
 40
0.0
 40
1.0
 40
1.0
 40
1.0
 40
1.0
 10
14.0001
 20
-13.5402
 30
0.0
 10
14.0001
 20
-13.5402
 30
0.0
 10
14.0001
 20
-16.0402
 30
0.0
 10
14.0001
 20
-16.0402
 30
0.0
  0
SPLINE
  5
C3
330
1F
100
AcDbEntity
  8
Defpoints
370
     9
100
AcDbSpline
210
0.0
220
0.0
230
1.0
 70
    24
 71
     3
 72
     8
 73
     4
 74
     0
 42
0.0000000001
 43
0.0000000001
 40
0.0
 40
0.0
 40
0.0
 40
0.0
 40
1.0
 40
1.0
 40
1.0
 40
1.0
 10
14.0001
 20
-13.5402
 30
0.0
 10
14.0001
 20
-13.5402
 30
0.0
 10
16.5001
 20
-13.5402
 30
0.0
 10
16.5001
 20
-13.5402
 30
0.0
  0
SPLINE
  5
C4
330
1F
100
AcDbEntity
  8
Defpoints
370
     9
100
AcDbSpline
210
0.0
220
0.0
230
1.0
 70
    11
 71
     3
 72
    20
 73
    16
 74
     0
 42
0.0000000001
 43
0.0000000001
 40
0.0
 40
0.0
 40
0.0
 40
0.0
 40
0.25
 40
0.25
 40
0.25
 40
0.25
 40
0.5
 40
0.5
 40
0.5
 40
0.5
 40
0.75
 40
0.75
 40
0.75
 40
0.75
 40
1.0
 40
1.0
 40
1.0
 40
1.0
 10
-9.4899
 20
22.9598
 30
0.0
 10
-9.4899
 20
22.9653
 30
0.0
 10
-9.4944
 20
22.9698
 30
0.0
 10
-9.4999
 20
22.9698
 30
0.0
 10
-9.4999
 20
22.9698
 30
0.0
 10
-9.5055
 20
22.9698
 30
0.0
 10
-9.5099
 20
22.9653
 30
0.0
 10
-9.5099
 20
22.9598
 30
0.0
 10
-9.5099
 20
22.9598
 30
0.0
 10
-9.5099
 20
22.9543
 30
0.0
 10
-9.5055
 20
22.9498
 30
0.0
 10
-9.4999
 20
22.9498
 30
0.0
 10
-9.4999
 20
22.9498
 30
0.0
 10
-9.4944
 20
22.9498
 30
0.0
 10
-9.4899
 20
22.9543
 30
0.0
 10
-9.4899
 20
22.9598
 30
0.0
  0
SPLINE
  5
C5
330
1F
100
AcDbEntity
  8
Defpoints
370
     9
100
AcDbSpline
210
0.0
220
0.0
230
1.0
 70
    11
 71
     3
 72
    20
 73
    16
 74
     0
 42
0.0000000001
 43
0.0000000001
 40
0.0
 40
0.0
 40
0.0
 40
0.0
 40
0.25
 40
0.25
 40
0.25
 40
0.25
 40
0.5
 40
0.5
 40
0.5
 40
0.5
 40
0.75
 40
0.75
 40
0.75
 40
0.75
 40
1.0
 40
1.0
 40
1.0
 40
1.0
 10
9.5101
 20
22.9598
 30
0.0
 10
9.5101
 20
22.9653
 30
0.0
 10
9.5056
 20
22.9698
 30
0.0
 10
9.5001
 20
22.9698
 30
0.0
 10
9.5001
 20
22.9698
 30
0.0
 10
9.4945
 20
22.9698
 30
0.0
 10
9.4901
 20
22.9653
 30
0.0
 10
9.4901
 20
22.9598
 30
0.0
 10
9.4901
 20
22.9598
 30
0.0
 10
9.4901
 20
22.9543
 30
0.0
 10
9.4945
 20
22.9498
 30
0.0
 10
9.5001
 20
22.9498
 30
0.0
 10
9.5001
 20
22.9498
 30
0.0
 10
9.5056
 20
22.9498
 30
0.0
 10
9.5101
 20
22.9543
 30
0.0
 10
9.5101
 20
22.9598
 30
0.0
  0
SPLINE
  5
C6
330
1F
100
AcDbEntity
  8
Defpoints
370
     9
100
AcDbSpline
210
0.0
220
0.0
230
1.0
 70
    11
 71
     3
 72
    20
 73
    16
 74
     0
 42
0.0000000001
 43
0.0000000001
 40
0.0
 40
0.0
 40
0.0
 40
0.0
 40
0.25
 40
0.25
 40
0.25
 40
0.25
 40
0.5
 40
0.5
 40
0.5
 40
0.5
 40
0.75
 40
0.75
 40
0.75
 40
0.75
 40
1.0
 40
1.0
 40
1.0
 40
1.0
 10
-13.9899
 20
10.7098
 30
0.0
 10
-13.9899
 20
10.7153
 30
0.0
 10
-13.9944
 20
10.7198
 30
0.0
 10
-13.9999
 20
10.7198
 30
0.0
 10
-13.9999
 20
10.7198
 30
0.0
 10
-14.0055
 20
10.7198
 30
0.0
 10
-14.0099
 20
10.7153
 30
0.0
 10
-14.0099
 20
10.7098
 30
0.0
 10
-14.0099
 20
10.7098
 30
0.0
 10
-14.0099
 20
10.7043
 30
0.0
 10
-14.0055
 20
10.6998
 30
0.0
 10
-13.9999
 20
10.6998
 30
0.0
 10
-13.9999
 20
10.6998
 30
0.0
 10
-13.9944
 20
10.6998
 30
0.0
 10
-13.9899
 20
10.7043
 30
0.0
 10
-13.9899
 20
10.7098
 30
0.0
  0
SPLINE
  5
C7
330
1F
100
AcDbEntity
  8
Defpoints
370
     9
100
AcDbSpline
210
0.0
220
0.0
230
1.0
 70
    11
 71
     3
 72
    20
 73
    16
 74
     0
 42
0.0000000001
 43
0.0000000001
 40
0.0
 40
0.0
 40
0.0
 40
0.0
 40
0.25
 40
0.25
 40
0.25
 40
0.25
 40
0.5
 40
0.5
 40
0.5
 40
0.5
 40
0.75
 40
0.75
 40
0.75
 40
0.75
 40
1.0
 40
1.0
 40
1.0
 40
1.0
 10
-13.0025
 20
13.6933
 30
0.0
 10
-13.0025
 20
13.6988
 30
0.0
 10
-13.007
 20
13.7033
 30
0.0
 10
-13.0125
 20
13.7033
 30
0.0
 10
-13.0125
 20
13.7033
 30
0.0
 10
-13.0181
 20
13.7033
 30
0.0
 10
-13.0225
 20
13.6988
 30
0.0
 10
-13.0225
 20
13.6933
 30
0.0
 10
-13.0225
 20
13.6933
 30
0.0
 10
-13.0225
 20
13.6878
 30
0.0
 10
-13.0181
 20
13.6833
 30
0.0
 10
-13.0125
 20
13.6833
 30
0.0
 10
-13.0125
 20
13.6833
 30
0.0
 10
-13.007
 20
13.6833
 30
0.0
 10
-13.0025
 20
13.6878
 30
0.0
 10
-13.0025
 20
13.6933
 30
0.0
  0
SPLINE
  5
C8
330
1F
100
AcDbEntity
  8
Defpoints
370
     9
100
AcDbSpline
210
0.0
220
0.0
230
1.0
 70
    11
 71
     3
 72
    20
 73
    16
 74
     0
 42
0.0000000001
 43
0.0000000001
 40
0.0
 40
0.0
 40
0.0
 40
0.0
 40
0.25
 40
0.25
 40
0.25
 40
0.25
 40
0.5
 40
0.5
 40
0.5
 40
0.5
 40
0.75
 40
0.75
 40
0.75
 40
0.75
 40
1.0
 40
1.0
 40
1.0
 40
1.0
 10
-14.9774
 20
15.2263
 30
0.0
 10
-14.9774
 20
15.2318
 30
0.0
 10
-14.9818
 20
15.2363
 30
0.0
 10
-14.9874
 20
15.2363
 30
0.0
 10
-14.9874
 20
15.2363
 30
0.0
 10
-14.9929
 20
15.2363
 30
0.0
 10
-14.9974
 20
15.2318
 30
0.0
 10
-14.9974
 20
15.2263
 30
0.0
 10
-14.9974
 20
15.2263
 30
0.0
 10
-14.9974
 20
15.2208
 30
0.0
 10
-14.9929
 20
15.2163
 30
0.0
 10
-14.9874
 20
15.2163
 30
0.0
 10
-14.9874
 20
15.2163
 30
0.0
 10
-14.9818
 20
15.2163
 30
0.0
 10
-14.9774
 20
15.2208
 30
0.0
 10
-14.9774
 20
15.2263
 30
0.0
  0
SPLINE
  5
C9
330
1F
100
AcDbEntity
  8
Defpoints
370
     9
100
AcDbSpline
210
0.0
220
0.0
230
1.0
 70
    11
 71
     3
 72
    20
 73
    16
 74
     0
 42
0.0000000001
 43
0.0000000001
 40
0.0
 40
0.0
 40
0.0
 40
0.0
 40
0.25
 40
0.25
 40
0.25
 40
0.25
 40
0.5
 40
0.5
 40
0.5
 40
0.5
 40
0.75
 40
0.75
 40
0.75
 40
0.75
 40
1.0
 40
1.0
 40
1.0
 40
1.0
 10
9.5101
 20
22.9598
 30
0.0
 10
9.5101
 20
22.9653
 30
0.0
 10
9.5056
 20
22.9698
 30
0.0
 10
9.5001
 20
22.9698
 30
0.0
 10
9.5001
 20
22.9698
 30
0.0
 10
9.4945
 20
22.9698
 30
0.0
 10
9.4901
 20
22.9653
 30
0.0
 10
9.4901
 20
22.9598
 30
0.0
 10
9.4901
 20
22.9598
 30
0.0
 10
9.4901
 20
22.9543
 30
0.0
 10
9.4945
 20
22.9498
 30
0.0
 10
9.5001
 20
22.9498
 30
0.0
 10
9.5001
 20
22.9498
 30
0.0
 10
9.5056
 20
22.9498
 30
0.0
 10
9.5101
 20
22.9543
 30
0.0
 10
9.5101
 20
22.9598
 30
0.0
  0
SPLINE
  5
CA
330
1F
100
AcDbEntity
  8
Defpoints
370
    15
100
AcDbSpline
210
0.0
220
0.0
230
1.0
 70
    24
 71
     3
 72
     8
 73
     4
 74
     0
 42
0.0000000001
 43
0.0000000001
 40
0.0
 40
0.0
 40
0.0
 40
0.0
 40
1.0
 40
1.0
 40
1.0
 40
1.0
 10
29.15
 20
-56.4501
 30
0.0
 10
29.15
 20
-56.4501
 30
0.0
 10
-29.15
 20
-56.4501
 30
0.0
 10
-29.15
 20
-56.4501
 30
0.0
  0
SPLINE
  5
CB
330
1F
100
AcDbEntity
  8
Defpoints
370
    15
100
AcDbSpline
210
0.0
220
0.0
230
1.0
 70
     8
 71
     3
 72
    12
 73
     8
 74
     0
 42
0.0000000001
 43
0.0000000001
 40
0.0
 40
0.0
 40
0.0
 40
0.0
 40
0.5
 40
0.5
 40
0.5
 40
0.5
 40
1.0
 40
1.0
 40
1.0
 40
1.0
 10
-30.65
 20
-54.9501
 30
0.0
 10
-30.65
 20
-55.3481
 30
0.0
 10
-30.492
 20
-55.7296
 30
0.0
 10
-30.2106
 20
-56.0107
 30
0.0
 10
-30.2106
 20
-56.0107
 30
0.0
 10
-29.9295
 20
-56.2921
 30
0.0
 10
-29.5478
 20
-56.4501
 30
0.0
 10
-29.15
 20
-56.4501
 30
0.0
  0
SPLINE
  5
CC
330
1F
100
AcDbEntity
  8
Defpoints
370
    15
100
AcDbSpline
210
0.0
220
0.0
230
1.0
 70
    24
 71
     3
 72
     8
 73
     4
 74
     0
 42
0.0000000001
 43
0.0000000001
 40
0.0
 40
0.0
 40
0.0
 40
0.0
 40
1.0
 40
1.0
 40
1.0
 40
1.0
 10
-30.6498
 20
-54.9501
 30
0.0
 10
-30.6498
 20
-54.9501
 30
0.0
 10
-30.6498
 20
-35.05
 30
0.0
 10
-30.6498
 20
-35.05
 30
0.0
  0
SPLINE
  5
CD
330
1F
100
AcDbEntity
  8
Defpoints
370
    15
100
AcDbSpline
210
0.0
220
0.0
230
1.0
 70
     8
 71
     3
 72
     8
 73
     4
 74
     0
 42
0.0000000001
 43
0.0000000001
 40
0.0
 40
0.0
 40
0.0
 40
0.0
 40
1.0
 40
1.0
 40
1.0
 40
1.0
 10
-29.15
 20
-33.5502
 30
0.0
 10
-29.9784
 20
-33.5502
 30
0.0
 10
-30.65
 20
-34.2218
 30
0.0
 10
-30.65
 20
-35.05
 30
0.0
  0
SPLINE
  5
CE
330
1F
100
AcDbEntity
  8
Defpoints
370
    15
100
AcDbSpline
210
0.0
220
0.0
230
1.0
 70
    24
 71
     3
 72
     8
 73
     4
 74
     0
 42
0.0000000001
 43
0.0000000001
 40
0.0
 40
0.0
 40
0.0
 40
0.0
 40
1.0
 40
1.0
 40
1.0
 40
1.0
 10
-29.15
 20
-33.5502
 30
0.0
 10
-29.15
 20
-33.5502
 30
0.0
 10
29.15
 20
-33.5502
 30
0.0
 10
29.15
 20
-33.5502
 30
0.0
  0
SPLINE
  5
CF
330
1F
100
AcDbEntity
  8
Defpoints
370
    15
100
AcDbSpline
210
0.0
220
0.0
230
1.0
 70
     8
 71
     3
 72
    12
 73
     8
 74
     0
 42
0.0000000001
 43
0.0000000001
 40
0.0
 40
0.0
 40
0.0
 40
0.0
 40
0.5
 40
0.5
 40
0.5
 40
0.5
 40
1.0
 40
1.0
 40
1.0
 40
1.0
 10
29.15
 20
-56.4501
 30
0.0
 10
29.5478
 20
-56.4501
 30
0.0
 10
29.9293
 20
-56.2921
 30
0.0
 10
30.2106
 20
-56.0107
 30
0.0
 10
30.2106
 20
-56.0107
 30
0.0
 10
30.492
 20
-55.7296
 30
0.0
 10
30.65
 20
-55.3481
 30
0.0
 10
30.65
 20
-54.9501
 30
0.0
  0
SPLINE
  5
D0
330
1F
100
AcDbEntity
  8
Defpoints
370
    15
100
AcDbSpline
210
0.0
220
0.0
230
1.0
 70
     8
 71
     3
 72
    12
 73
     8
 74
     0
 42
0.0000000001
 43
0.0000000001
 40
0.0
 40
0.0
 40
0.0
 40
0.0
 40
0.5
 40
0.5
 40
0.5
 40
0.5
 40
1.0
 40
1.0
 40
1.0
 40
1.0
 10
30.65
 20
-35.05
 30
0.0
 10
30.65
 20
-34.6523
 30
0.0
 10
30.492
 20
-34.2707
 30
0.0
 10
30.2106
 20
-33.9896
 30
0.0
 10
30.2106
 20
-33.9896
 30
0.0
 10
29.9293
 20
-33.7082
 30
0.0
 10
29.5478
 20
-33.5502
 30
0.0
 10
29.15
 20
-33.5502
 30
0.0
  0
SPLINE
  5
D1
330
1F
100
AcDbEntity
  8
Defpoints
370
    15
100
AcDbSpline
210
0.0
220
0.0
230
1.0
 70
    24
 71
     3
 72
     8
 73
     4
 74
     0
 42
0.0000000001
 43
0.0000000001
 40
0.0
 40
0.0
 40
0.0
 40
0.0
 40
1.0
 40
1.0
 40
1.0
 40
1.0
 10
30.6498
 20
-35.05
 30
0.0
 10
30.6498
 20
-35.05
 30
0.0
 10
30.6498
 20
-54.9501
 30
0.0
 10
30.6498
 20
-54.9501
 30
0.0
  0
SPLINE
  5
D2
330
1F
100
AcDbEntity
  8
Defpoints
370
     9
100
AcDbSpline
210
0.0
220
0.0
230
1.0
 70
    11
 71
     3
 72
    20
 73
    16
 74
     0
 42
0.0000000001
 43
0.0000000001
 40
0.0
 40
0.0
 40
0.0
 40
0.0
 40
0.25
 40
0.25
 40
0.25
 40
0.25
 40
0.5
 40
0.5
 40
0.5
 40
0.5
 40
0.75
 40
0.75
 40
0.75
 40
0.75
 40
1.0
 40
1.0
 40
1.0
 40
1.0
 10
-29.16
 20
-56.4501
 30
0.0
 10
-29.16
 20
-56.4556
 30
0.0
 10
-29.1555
 20
-56.4601
 30
0.0
 10
-29.15
 20
-56.4601
 30
0.0
 10
-29.15
 20
-56.4601
 30
0.0
 10
-29.1445
 20
-56.4601
 30
0.0
 10
-29.1401
 20
-56.4556
 30
0.0
 10
-29.1401
 20
-56.4501
 30
0.0
 10
-29.1401
 20
-56.4501
 30
0.0
 10
-29.1401
 20
-56.4447
 30
0.0
 10
-29.1445
 20
-56.4402
 30
0.0
 10
-29.15
 20
-56.4402
 30
0.0
 10
-29.15
 20
-56.4402
 30
0.0
 10
-29.1555
 20
-56.4402
 30
0.0
 10
-29.16
 20
-56.4447
 30
0.0
 10
-29.16
 20
-56.4501
 30
0.0
  0
SPLINE
  5
D3
330
1F
100
AcDbEntity
  8
Defpoints
370
     9
100
AcDbSpline
210
0.0
220
0.0
230
1.0
 70
    11
 71
     3
 72
    20
 73
    16
 74
     0
 42
0.0000000001
 43
0.0000000001
 40
0.0
 40
0.0
 40
0.0
 40
0.0
 40
0.25
 40
0.25
 40
0.25
 40
0.25
 40
0.5
 40
0.5
 40
0.5
 40
0.5
 40
0.75
 40
0.75
 40
0.75
 40
0.75
 40
1.0
 40
1.0
 40
1.0
 40
1.0
 10
-29.16
 20
-33.5502
 30
0.0
 10
-29.16
 20
-33.5557
 30
0.0
 10
-29.1555
 20
-33.5601
 30
0.0
 10
-29.15
 20
-33.5601
 30
0.0
 10
-29.15
 20
-33.5601
 30
0.0
 10
-29.1445
 20
-33.5601
 30
0.0
 10
-29.1401
 20
-33.5557
 30
0.0
 10
-29.1401
 20
-33.5502
 30
0.0
 10
-29.1401
 20
-33.5502
 30
0.0
 10
-29.1401
 20
-33.5445
 30
0.0
 10
-29.1445
 20
-33.54
 30
0.0
 10
-29.15
 20
-33.54
 30
0.0
 10
-29.15
 20
-33.54
 30
0.0
 10
-29.1555
 20
-33.54
 30
0.0
 10
-29.16
 20
-33.5445
 30
0.0
 10
-29.16
 20
-33.5502
 30
0.0
  0
SPLINE
  5
D4
330
1F
100
AcDbEntity
  8
Defpoints
370
     9
100
AcDbSpline
210
0.0
220
0.0
230
1.0
 70
    11
 71
     3
 72
    20
 73
    16
 74
     0
 42
0.0000000001
 43
0.0000000001
 40
0.0
 40
0.0
 40
0.0
 40
0.0
 40
0.25
 40
0.25
 40
0.25
 40
0.25
 40
0.5
 40
0.5
 40
0.5
 40
0.5
 40
0.75
 40
0.75
 40
0.75
 40
0.75
 40
1.0
 40
1.0
 40
1.0
 40
1.0
 10
30.6401
 20
-35.05
 30
0.0
 10
30.6401
 20
-35.0555
 30
0.0
 10
30.6446
 20
-35.0602
 30
0.0
 10
30.65
 20
-35.0602
 30
0.0
 10
30.65
 20
-35.0602
 30
0.0
 10
30.6555
 20
-35.0602
 30
0.0
 10
30.66
 20
-35.0555
 30
0.0
 10
30.66
 20
-35.05
 30
0.0
 10
30.66
 20
-35.05
 30
0.0
 10
30.66
 20
-35.0445
 30
0.0
 10
30.6555
 20
-35.0401
 30
0.0
 10
30.65
 20
-35.0401
 30
0.0
 10
30.65
 20
-35.0401
 30
0.0
 10
30.6446
 20
-35.0401
 30
0.0
 10
30.6401
 20
-35.0445
 30
0.0
 10
30.6401
 20
-35.05
 30
0.0
  0
SPLINE
  5
D5
330
1F
100
AcDbEntity
  8
Defpoints
370
     9
100
AcDbSpline
210
0.0
220
0.0
230
1.0
 70
    11
 71
     3
 72
    20
 73
    16
 74
     0
 42
0.0000000001
 43
0.0000000001
 40
0.0
 40
0.0
 40
0.0
 40
0.0
 40
0.25
 40
0.25
 40
0.25
 40
0.25
 40
0.5
 40
0.5
 40
0.5
 40
0.5
 40
0.75
 40
0.75
 40
0.75
 40
0.75
 40
1.0
 40
1.0
 40
1.0
 40
1.0
 10
-30.66
 20
-35.05
 30
0.0
 10
-30.66
 20
-35.0555
 30
0.0
 10
-30.6555
 20
-35.0602
 30
0.0
 10
-30.65
 20
-35.0602
 30
0.0
 10
-30.65
 20
-35.0602
 30
0.0
 10
-30.6446
 20
-35.0602
 30
0.0
 10
-30.6401
 20
-35.0555
 30
0.0
 10
-30.6401
 20
-35.05
 30
0.0
 10
-30.6401
 20
-35.05
 30
0.0
 10
-30.6401
 20
-35.0445
 30
0.0
 10
-30.6446
 20
-35.0401
 30
0.0
 10
-30.65
 20
-35.0401
 30
0.0
 10
-30.65
 20
-35.0401
 30
0.0
 10
-30.6555
 20
-35.0401
 30
0.0
 10
-30.66
 20
-35.0445
 30
0.0
 10
-30.66
 20
-35.05
 30
0.0
  0
SPLINE
  5
D6
330
1F
100
AcDbEntity
  8
Defpoints
370
    15
100
AcDbSpline
210
0.0
220
0.0
230
1.0
 70
    24
 71
     3
 72
     8
 73
     4
 74
     0
 42
0.0000000001
 43
0.0000000001
 40
0.0
 40
0.0
 40
0.0
 40
0.0
 40
1.0
 40
1.0
 40
1.0
 40
1.0
 10
29.15
 20
33.55
 30
0.0
 10
29.15
 20
33.55
 30
0.0
 10
-29.15
 20
33.55
 30
0.0
 10
-29.15
 20
33.55
 30
0.0
  0
SPLINE
  5
D7
330
1F
100
AcDbEntity
  8
Defpoints
370
    15
100
AcDbSpline
210
0.0
220
0.0
230
1.0
 70
     8
 71
     3
 72
    12
 73
     8
 74
     0
 42
0.0000000001
 43
0.0000000001
 40
0.0
 40
0.0
 40
0.0
 40
0.0
 40
0.5
 40
0.5
 40
0.5
 40
0.5
 40
1.0
 40
1.0
 40
1.0
 40
1.0
 10
-30.65
 20
35.05
 30
0.0
 10
-30.65
 20
34.6521
 30
0.0
 10
-30.492
 20
34.2706
 30
0.0
 10
-30.2107
 20
33.9893
 30
0.0
 10
-30.2107
 20
33.9893
 30
0.0
 10
-29.9294
 20
33.708
 30
0.0
 10
-29.5478
 20
33.55
 30
0.0
 10
-29.15
 20
33.55
 30
0.0
  0
SPLINE
  5
D8
330
1F
100
AcDbEntity
  8
Defpoints
370
    15
100
AcDbSpline
210
0.0
220
0.0
230
1.0
 70
    24
 71
     3
 72
     8
 73
     4
 74
     0
 42
0.0000000001
 43
0.0000000001
 40
0.0
 40
0.0
 40
0.0
 40
0.0
 40
1.0
 40
1.0
 40
1.0
 40
1.0
 10
-30.6499
 20
35.05
 30
0.0
 10
-30.6499
 20
35.05
 30
0.0
 10
-30.6499
 20
54.95
 30
0.0
 10
-30.6499
 20
54.95
 30
0.0
  0
SPLINE
  5
D9
330
1F
100
AcDbEntity
  8
Defpoints
370
    15
100
AcDbSpline
210
0.0
220
0.0
230
1.0
 70
     8
 71
     3
 72
     8
 73
     4
 74
     0
 42
0.0000000001
 43
0.0000000001
 40
0.0
 40
0.0
 40
0.0
 40
0.0
 40
1.0
 40
1.0
 40
1.0
 40
1.0
 10
-29.15
 20
56.45
 30
0.0
 10
-29.9784
 20
56.45
 30
0.0
 10
-30.65
 20
55.7784
 30
0.0
 10
-30.65
 20
54.95
 30
0.0
  0
SPLINE
  5
DA
330
1F
100
AcDbEntity
  8
Defpoints
370
    15
100
AcDbSpline
210
0.0
220
0.0
230
1.0
 70
    24
 71
     3
 72
     8
 73
     4
 74
     0
 42
0.0000000001
 43
0.0000000001
 40
0.0
 40
0.0
 40
0.0
 40
0.0
 40
1.0
 40
1.0
 40
1.0
 40
1.0
 10
-29.15
 20
56.45
 30
0.0
 10
-29.15
 20
56.45
 30
0.0
 10
29.15
 20
56.45
 30
0.0
 10
29.15
 20
56.45
 30
0.0
  0
SPLINE
  5
DB
330
1F
100
AcDbEntity
  8
Defpoints
370
    15
100
AcDbSpline
210
0.0
220
0.0
230
1.0
 70
     8
 71
     3
 72
    12
 73
     8
 74
     0
 42
0.0000000001
 43
0.0000000001
 40
0.0
 40
0.0
 40
0.0
 40
0.0
 40
0.5
 40
0.5
 40
0.5
 40
0.5
 40
1.0
 40
1.0
 40
1.0
 40
1.0
 10
29.15
 20
33.55
 30
0.0
 10
29.5478
 20
33.55
 30
0.0
 10
29.9293
 20
33.708
 30
0.0
 10
30.2106
 20
33.9893
 30
0.0
 10
30.2106
 20
33.9893
 30
0.0
 10
30.492
 20
34.2706
 30
0.0
 10
30.65
 20
34.6521
 30
0.0
 10
30.65
 20
35.05
 30
0.0
  0
SPLINE
  5
DC
330
1F
100
AcDbEntity
  8
Defpoints
370
    15
100
AcDbSpline
210
0.0
220
0.0
230
1.0
 70
     8
 71
     3
 72
    12
 73
     8
 74
     0
 42
0.0000000001
 43
0.0000000001
 40
0.0
 40
0.0
 40
0.0
 40
0.0
 40
0.5
 40
0.5
 40
0.5
 40
0.5
 40
1.0
 40
1.0
 40
1.0
 40
1.0
 10
30.65
 20
54.95
 30
0.0
 10
30.65
 20
55.3478
 30
0.0
 10
30.492
 20
55.7293
 30
0.0
 10
30.2106
 20
56.0106
 30
0.0
 10
30.2106
 20
56.0106
 30
0.0
 10
29.9293
 20
56.2919
 30
0.0
 10
29.5478
 20
56.45
 30
0.0
 10
29.15
 20
56.45
 30
0.0
  0
SPLINE
  5
DD
330
1F
100
AcDbEntity
  8
Defpoints
370
    15
100
AcDbSpline
210
0.0
220
0.0
230
1.0
 70
    24
 71
     3
 72
     8
 73
     4
 74
     0
 42
0.0000000001
 43
0.0000000001
 40
0.0
 40
0.0
 40
0.0
 40
0.0
 40
1.0
 40
1.0
 40
1.0
 40
1.0
 10
30.6499
 20
54.95
 30
0.0
 10
30.6499
 20
54.95
 30
0.0
 10
30.6499
 20
35.05
 30
0.0
 10
30.6499
 20
35.05
 30
0.0
  0
SPLINE
  5
DE
330
1F
100
AcDbEntity
  8
Defpoints
370
     9
100
AcDbSpline
210
0.0
220
0.0
230
1.0
 70
    11
 71
     3
 72
    20
 73
    16
 74
     0
 42
0.0000000001
 43
0.0000000001
 40
0.0
 40
0.0
 40
0.0
 40
0.0
 40
0.25
 40
0.25
 40
0.25
 40
0.25
 40
0.5
 40
0.5
 40
0.5
 40
0.5
 40
0.75
 40
0.75
 40
0.75
 40
0.75
 40
1.0
 40
1.0
 40
1.0
 40
1.0
 10
-29.16
 20
33.55
 30
0.0
 10
-29.16
 20
33.5445
 30
0.0
 10
-29.1555
 20
33.54
 30
0.0
 10
-29.15
 20
33.54
 30
0.0
 10
-29.15
 20
33.54
 30
0.0
 10
-29.1445
 20
33.54
 30
0.0
 10
-29.14
 20
33.5445
 30
0.0
 10
-29.14
 20
33.55
 30
0.0
 10
-29.14
 20
33.55
 30
0.0
 10
-29.14
 20
33.5555
 30
0.0
 10
-29.1445
 20
33.56
 30
0.0
 10
-29.15
 20
33.56
 30
0.0
 10
-29.15
 20
33.56
 30
0.0
 10
-29.1555
 20
33.56
 30
0.0
 10
-29.16
 20
33.5555
 30
0.0
 10
-29.16
 20
33.55
 30
0.0
  0
SPLINE
  5
DF
330
1F
100
AcDbEntity
  8
Defpoints
370
     9
100
AcDbSpline
210
0.0
220
0.0
230
1.0
 70
    11
 71
     3
 72
    20
 73
    16
 74
     0
 42
0.0000000001
 43
0.0000000001
 40
0.0
 40
0.0
 40
0.0
 40
0.0
 40
0.25
 40
0.25
 40
0.25
 40
0.25
 40
0.5
 40
0.5
 40
0.5
 40
0.5
 40
0.75
 40
0.75
 40
0.75
 40
0.75
 40
1.0
 40
1.0
 40
1.0
 40
1.0
 10
-29.16
 20
56.45
 30
0.0
 10
-29.16
 20
56.4445
 30
0.0
 10
-29.1555
 20
56.44
 30
0.0
 10
-29.15
 20
56.44
 30
0.0
 10
-29.15
 20
56.44
 30
0.0
 10
-29.1445
 20
56.44
 30
0.0
 10
-29.14
 20
56.4445
 30
0.0
 10
-29.14
 20
56.45
 30
0.0
 10
-29.14
 20
56.45
 30
0.0
 10
-29.14
 20
56.4555
 30
0.0
 10
-29.1445
 20
56.46
 30
0.0
 10
-29.15
 20
56.46
 30
0.0
 10
-29.15
 20
56.46
 30
0.0
 10
-29.1555
 20
56.46
 30
0.0
 10
-29.16
 20
56.4555
 30
0.0
 10
-29.16
 20
56.45
 30
0.0
  0
SPLINE
  5
E0
330
1F
100
AcDbEntity
  8
Defpoints
370
     9
100
AcDbSpline
210
0.0
220
0.0
230
1.0
 70
    11
 71
     3
 72
    20
 73
    16
 74
     0
 42
0.0000000001
 43
0.0000000001
 40
0.0
 40
0.0
 40
0.0
 40
0.0
 40
0.25
 40
0.25
 40
0.25
 40
0.25
 40
0.5
 40
0.5
 40
0.5
 40
0.5
 40
0.75
 40
0.75
 40
0.75
 40
0.75
 40
1.0
 40
1.0
 40
1.0
 40
1.0
 10
30.64
 20
54.95
 30
0.0
 10
30.64
 20
54.9445
 30
0.0
 10
30.6445
 20
54.94
 30
0.0
 10
30.65
 20
54.94
 30
0.0
 10
30.65
 20
54.94
 30
0.0
 10
30.6555
 20
54.94
 30
0.0
 10
30.66
 20
54.9445
 30
0.0
 10
30.66
 20
54.95
 30
0.0
 10
30.66
 20
54.95
 30
0.0
 10
30.66
 20
54.9555
 30
0.0
 10
30.6555
 20
54.96
 30
0.0
 10
30.65
 20
54.96
 30
0.0
 10
30.65
 20
54.96
 30
0.0
 10
30.6445
 20
54.96
 30
0.0
 10
30.64
 20
54.9555
 30
0.0
 10
30.64
 20
54.95
 30
0.0
  0
SPLINE
  5
E1
330
1F
100
AcDbEntity
  8
Defpoints
370
     9
100
AcDbSpline
210
0.0
220
0.0
230
1.0
 70
    11
 71
     3
 72
    20
 73
    16
 74
     0
 42
0.0000000001
 43
0.0000000001
 40
0.0
 40
0.0
 40
0.0
 40
0.0
 40
0.25
 40
0.25
 40
0.25
 40
0.25
 40
0.5
 40
0.5
 40
0.5
 40
0.5
 40
0.75
 40
0.75
 40
0.75
 40
0.75
 40
1.0
 40
1.0
 40
1.0
 40
1.0
 10
-30.66
 20
54.95
 30
0.0
 10
-30.66
 20
54.9445
 30
0.0
 10
-30.6555
 20
54.94
 30
0.0
 10
-30.65
 20
54.94
 30
0.0
 10
-30.65
 20
54.94
 30
0.0
 10
-30.6445
 20
54.94
 30
0.0
 10
-30.64
 20
54.9445
 30
0.0
 10
-30.64
 20
54.95
 30
0.0
 10
-30.64
 20
54.95
 30
0.0
 10
-30.64
 20
54.9555
 30
0.0
 10
-30.6445
 20
54.96
 30
0.0
 10
-30.65
 20
54.96
 30
0.0
 10
-30.65
 20
54.96
 30
0.0
 10
-30.6555
 20
54.96
 30
0.0
 10
-30.66
 20
54.9555
 30
0.0
 10
-30.66
 20
54.95
 30
0.0
  0
ENDSEC
  0
SECTION
  2
OBJECTS
  0
DICTIONARY
  5
C
330
0
100
AcDbDictionary
281
     1
  3
ACAD_GROUP
350
D
  3
ACAD_LAYOUT
350
1A
  3
ACAD_MLEADERSTYLE
350
E3
  3
ACAD_MLINESTYLE
350
17
  3
ACAD_PLOTSETTINGS
350
19
  3
ACAD_PLOTSTYLENAME
350
E
  3
ACAD_SCALELIST
350
3B
  3
ACAD_TABLESTYLE
350
E2
  3
ACAD_VISUALSTYLE
350
2A
  0
DICTIONARY
  5
D
102
{ACAD_REACTORS
330
C
102
}
330
C
100
AcDbDictionary
281
     1
  0
DICTIONARY
  5
1A
102
{ACAD_REACTORS
330
C
102
}
330
C
100
AcDbDictionary
281
     1
  3
Layout1
350
1E
  3
Layout2
350
26
  3
Model
350
22
  0
DICTIONARY
  5
E3
102
{ACAD_REACTORS
330
C
102
}
330
C
100
AcDbDictionary
281
     1
  0
DICTIONARY
  5
17
102
{ACAD_REACTORS
330
C
102
}
330
C
100
AcDbDictionary
281
     1
  3
Standard
350
18
  0
DICTIONARY
  5
19
102
{ACAD_REACTORS
330
C
102
}
330
C
100
AcDbDictionary
281
     1
  0
ACDBDICTIONARYWDFLT
  5
E
102
{ACAD_REACTORS
330
C
102
}
330
C
100
AcDbDictionary
281
     1
  3
Normal
350
F
100
AcDbDictionaryWithDefault
340
F
  0
DICTIONARY
  5
3B
102
{ACAD_REACTORS
330
C
102
}
330
C
100
AcDbDictionary
281
     1
  3
A0
350
3C
  3
A1
350
3D
  3
A2
350
3E
  3
A3
350
3F
  3
A4
350
40
  3
A5
350
41
  3
A6
350
42
  3
A7
350
43
  3
A8
350
44
  3
A9
350
45
  3
B0
350
46
  3
B1
350
47
  3
B2
350
48
  3
B3
350
49
  3
B4
350
4A
  3
B5
350
4B
  3
B6
350
4C
  3
B7
350
4D
  3
B8
350
4E
  3
B9
350
4F
  3
C0
350
50
  3
C1
350
51
  3
C2
350
52
  3
C3
350
53
  3
C4
350
54
  3
C5
350
55
  3
C6
350
56
  3
C7
350
57
  3
C8
350
58
  3
C9
350
59
  3
D0
350
5A
  3
D1
350
5B
  3
D2
350
5C
  0
DICTIONARY
  5
E2
102
{ACAD_REACTORS
330
C
102
}
330
C
100
AcDbDictionary
281
     1
  0
DICTIONARY
  5
2A
102
{ACAD_REACTORS
330
C
102
}
330
C
100
AcDbDictionary
281
     1
  3
2dWireframe
350
2F
  3
3D Hidden
350
31
  3
3dWireframe
350
30
  3
Basic
350
32
  3
Brighten
350
36
  3
ColorChange
350
3A
  3
Conceptual
350
34
  3
Dim
350
35
  3
Facepattern
350
39
  3
Flat
350
2B
  3
FlatWithEdges
350
2C
  3
Gouraud
350
2D
  3
GouraudWithEdges
350
2E
  3
Linepattern
350
38
  3
Realistic
350
33
  3
Thicken
350
37
  0
LAYOUT
  5
1E
102
{ACAD_REACTORS
330
1A
102
}
330
1A
100
AcDbPlotSettings
  1

  2
none_device
  4

  6

 40
0.0
 41
0.0
 42
0.0
 43
0.0
 44
0.0
 45
0.0
 46
0.0
 47
0.0
 48
0.0
 49
0.0
140
0.0
141
0.0
142
1.0
143
1.0
 70
   688
 72
     0
 73
     0
 74
     5
  7

 75
    16
 76
     0
 77
     2
 78
   300
147
1.0
148
0.0
149
0.0
100
AcDbLayout
  1
Layout1
 70
     1
 71
     1
 10
0.0
 20
0.0
 11
12.0
 21
9.0
 12
0.0
 22
0.0
 32
0.0
 14
1.000000000000000E+20
 24
1.000000000000000E+20
 34
1.000000000000000E+20
 15
-1.000000000000000E+20
 25
-1.000000000000000E+20
 35
-1.000000000000000E+20
146
0.0
 13
0.0
 23
0.0
 33
0.0
 16
1.0
 26
0.0
 36
0.0
 17
0.0
 27
1.0
 37
0.0
 76
     0
330
1B
  0
LAYOUT
  5
26
102
{ACAD_REACTORS
330
1A
102
}
330
1A
100
AcDbPlotSettings
  1

  2
none_device
  4

  6

 40
0.0
 41
0.0
 42
0.0
 43
0.0
 44
0.0
 45
0.0
 46
0.0
 47
0.0
 48
0.0
 49
0.0
140
0.0
141
0.0
142
1.0
143
1.0
 70
   688
 72
     0
 73
     0
 74
     5
  7

 75
    16
 76
     0
 77
     2
 78
   300
147
1.0
148
0.0
149
0.0
100
AcDbLayout
  1
Layout2
 70
     1
 71
     2
 10
0.0
 20
0.0
 11
0.0
 21
0.0
 12
0.0
 22
0.0
 32
0.0
 14
0.0
 24
0.0
 34
0.0
 15
0.0
 25
0.0
 35
0.0
146
0.0
 13
0.0
 23
0.0
 33
0.0
 16
1.0
 26
0.0
 36
0.0
 17
0.0
 27
1.0
 37
0.0
 76
     0
330
23
  0
LAYOUT
  5
22
102
{ACAD_REACTORS
330
1A
102
}
330
1A
100
AcDbPlotSettings
  1

  2
none_device
  4

  6

 40
0.0
 41
0.0
 42
0.0
 43
0.0
 44
0.0
 45
0.0
 46
0.0
 47
0.0
 48
0.0
 49
0.0
140
0.0
141
0.0
142
1.0
143
1.0
 70
  1712
 72
     0
 73
     0
 74
     0
  7

 75
     0
 76
     0
 77
     2
 78
   300
147
1.0
148
0.0
149
0.0
100
AcDbLayout
  1
Model
 70
     1
 71
     0
 10
0.0
 20
0.0
 11
12.0
 21
9.0
 12
0.0
 22
0.0
 32
0.0
 14
-30.725
 24
-56.5251
 34
0.0
 15
30.725
 25
56.525
 35
0.0
146
0.0
 13
0.0
 23
0.0
 33
0.0
 16
1.0
 26
0.0
 36
0.0
 17
0.0
 27
1.0
 37
0.0
 76
     0
330
1F
331
29
  0
MLINESTYLE
  5
18
102
{ACAD_REACTORS
330
17
102
}
330
17
100
AcDbMlineStyle
  2
Standard
 70
     0
  3

 62
   256
 51
90.0
 52
90.0
 71
     2
 49
0.5
 62
   256
  6
BYLAYER
 49
-0.5
 62
   256
  6
BYLAYER
  0
ACDBPLACEHOLDER
  5
F
102
{ACAD_REACTORS
330
E
102
}
330
E
  0
SCALE
  5
3C
102
{ACAD_REACTORS
330
3B
102
}
330
3B
100
AcDbScale
 70
     0
300
1:1
140
1.0
141
1.0
290
     1
  0
SCALE
  5
3D
102
{ACAD_REACTORS
330
3B
102
}
330
3B
100
AcDbScale
 70
     0
300
1:2
140
1.0
141
2.0
290
     0
  0
SCALE
  5
3E
102
{ACAD_REACTORS
330
3B
102
}
330
3B
100
AcDbScale
 70
     0
300
1:4
140
1.0
141
4.0
290
     0
  0
SCALE
  5
3F
102
{ACAD_REACTORS
330
3B
102
}
330
3B
100
AcDbScale
 70
     0
300
1:5
140
1.0
141
5.0
290
     0
  0
SCALE
  5
40
102
{ACAD_REACTORS
330
3B
102
}
330
3B
100
AcDbScale
 70
     0
300
1:8
140
1.0
141
8.0
290
     0
  0
SCALE
  5
41
102
{ACAD_REACTORS
330
3B
102
}
330
3B
100
AcDbScale
 70
     0
300
1:10
140
1.0
141
10.0
290
     0
  0
SCALE
  5
42
102
{ACAD_REACTORS
330
3B
102
}
330
3B
100
AcDbScale
 70
     0
300
1:16
140
1.0
141
16.0
290
     0
  0
SCALE
  5
43
102
{ACAD_REACTORS
330
3B
102
}
330
3B
100
AcDbScale
 70
     0
300
1:20
140
1.0
141
20.0
290
     0
  0
SCALE
  5
44
102
{ACAD_REACTORS
330
3B
102
}
330
3B
100
AcDbScale
 70
     0
300
1:30
140
1.0
141
30.0
290
     0
  0
SCALE
  5
45
102
{ACAD_REACTORS
330
3B
102
}
330
3B
100
AcDbScale
 70
     0
300
1:40
140
1.0
141
40.0
290
     0
  0
SCALE
  5
46
102
{ACAD_REACTORS
330
3B
102
}
330
3B
100
AcDbScale
 70
     0
300
1:50
140
1.0
141
50.0
290
     0
  0
SCALE
  5
47
102
{ACAD_REACTORS
330
3B
102
}
330
3B
100
AcDbScale
 70
     0
300
1:100
140
1.0
141
100.0
290
     0
  0
SCALE
  5
48
102
{ACAD_REACTORS
330
3B
102
}
330
3B
100
AcDbScale
 70
     0
300
2:1
140
2.0
141
1.0
290
     0
  0
SCALE
  5
49
102
{ACAD_REACTORS
330
3B
102
}
330
3B
100
AcDbScale
 70
     0
300
4:1
140
4.0
141
1.0
290
     0
  0
SCALE
  5
4A
102
{ACAD_REACTORS
330
3B
102
}
330
3B
100
AcDbScale
 70
     0
300
8:1
140
8.0
141
1.0
290
     0
  0
SCALE
  5
4B
102
{ACAD_REACTORS
330
3B
102
}
330
3B
100
AcDbScale
 70
     0
300
10:1
140
10.0
141
1.0
290
     0
  0
SCALE
  5
4C
102
{ACAD_REACTORS
330
3B
102
}
330
3B
100
AcDbScale
 70
     0
300
100:1
140
100.0
141
1.0
290
     0
  0
SCALE
  5
4D
102
{ACAD_REACTORS
330
3B
102
}
330
3B
100
AcDbScale
 70
     0
300
1/128" = 1'-0"
140
0.0078125
141
12.0
290
     0
  0
SCALE
  5
4E
102
{ACAD_REACTORS
330
3B
102
}
330
3B
100
AcDbScale
 70
     0
300
1/64" = 1'-0"
140
0.015625
141
12.0
290
     0
  0
SCALE
  5
4F
102
{ACAD_REACTORS
330
3B
102
}
330
3B
100
AcDbScale
 70
     0
300
1/32" = 1'-0"
140
0.03125
141
12.0
290
     0
  0
SCALE
  5
50
102
{ACAD_REACTORS
330
3B
102
}
330
3B
100
AcDbScale
 70
     0
300
1/16" = 1'-0"
140
0.0625
141
12.0
290
     0
  0
SCALE
  5
51
102
{ACAD_REACTORS
330
3B
102
}
330
3B
100
AcDbScale
 70
     0
300
3/32" = 1'-0"
140
0.09375
141
12.0
290
     0
  0
SCALE
  5
52
102
{ACAD_REACTORS
330
3B
102
}
330
3B
100
AcDbScale
 70
     0
300
1/8" = 1'-0"
140
0.125
141
12.0
290
     0
  0
SCALE
  5
53
102
{ACAD_REACTORS
330
3B
102
}
330
3B
100
AcDbScale
 70
     0
300
3/16" = 1'-0"
140
0.1875
141
12.0
290
     0
  0
SCALE
  5
54
102
{ACAD_REACTORS
330
3B
102
}
330
3B
100
AcDbScale
 70
     0
300
1/4" = 1'-0"
140
0.25
141
12.0
290
     0
  0
SCALE
  5
55
102
{ACAD_REACTORS
330
3B
102
}
330
3B
100
AcDbScale
 70
     0
300
3/8" = 1'-0"
140
0.375
141
12.0
290
     0
  0
SCALE
  5
56
102
{ACAD_REACTORS
330
3B
102
}
330
3B
100
AcDbScale
 70
     0
300
1/2" = 1'-0"
140
0.5
141
12.0
290
     0
  0
SCALE
  5
57
102
{ACAD_REACTORS
330
3B
102
}
330
3B
100
AcDbScale
 70
     0
300
3/4" = 1'-0"
140
0.75
141
12.0
290
     0
  0
SCALE
  5
58
102
{ACAD_REACTORS
330
3B
102
}
330
3B
100
AcDbScale
 70
     0
300
1" = 1'-0"
140
1.0
141
12.0
290
     0
  0
SCALE
  5
59
102
{ACAD_REACTORS
330
3B
102
}
330
3B
100
AcDbScale
 70
     0
300
1-1/2" = 1'-0"
140
1.5
141
12.0
290
     0
  0
SCALE
  5
5A
102
{ACAD_REACTORS
330
3B
102
}
330
3B
100
AcDbScale
 70
     0
300
3" = 1'-0"
140
3.0
141
12.0
290
     0
  0
SCALE
  5
5B
102
{ACAD_REACTORS
330
3B
102
}
330
3B
100
AcDbScale
 70
     0
300
6" = 1'-0"
140
6.0
141
12.0
290
     0
  0
SCALE
  5
5C
102
{ACAD_REACTORS
330
3B
102
}
330
3B
100
AcDbScale
 70
     0
300
1'-0" = 1'-0"
140
12.0
141
12.0
290
     0
  0
VISUALSTYLE
  5
2F
102
{ACAD_REACTORS
330
2A
102
}
330
2A
100
AcDbVisualStyle
  2
2dWireframe
 70
     4
 71
     0
 72
     2
 73
     0
 90
        0
 40
-0.6
 41
-30.0
 62
     5
 63
     7
421
 16777215
 74
     1
 91
        4
 64
     7
 65
   257
 75
     1
175
     1
 42
1.0
 92
        0
 66
   257
 43
1.0
 76
     1
 77
     6
 78
     2
 67
     7
 79
     5
170
     0
171
     0
290
     0
174
     0
 93
        1
 44
0.0
173
     0
291
     0
 45
0.0
  0
VISUALSTYLE
  5
31
102
{ACAD_REACTORS
330
2A
102
}
330
2A
100
AcDbVisualStyle
  2
3D Hidden
 70
     6
 71
     1
 72
     2
 73
     2
 90
        0
 40
-0.6
 41
-30.0
 62
     5
 63
     7
421
 16777215
 74
     2
 91
        2
 64
     7
 65
   257
 75
     2
175
     1
 42
40.0
 92
        0
 66
   257
 43
1.0
 76
     1
 77
     6
 78
     2
 67
     7
 79
     3
170
     0
171
     0
290
     0
174
     0
 93
        1
 44
0.0
173
     0
291
     0
 45
0.0
  0
VISUALSTYLE
  5
30
102
{ACAD_REACTORS
330
2A
102
}
330
2A
100
AcDbVisualStyle
  2
3dWireframe
 70
     5
 71
     0
 72
     2
 73
     0
 90
        0
 40
-0.6
 41
-30.0
 62
     5
 63
     7
421
 16777215
 74
     1
 91
        4
 64
     7
 65
   257
 75
     1
175
     1
 42
1.0
 92
        0
 66
   257
 43
1.0
 76
     1
 77
     6
 78
     2
 67
     7
 79
     5
170
     0
171
     0
290
     0
174
     0
 93
        1
 44
0.0
173
     0
291
     0
 45
0.0
  0
VISUALSTYLE
  5
32
102
{ACAD_REACTORS
330
2A
102
}
330
2A
100
AcDbVisualStyle
  2
Basic
 70
     7
 71
     1
 72
     0
 73
     1
 90
        0
 40
-0.6
 41
-30.0
 62
     5
 63
     7
421
 16777215
 74
     0
 91
        4
 64
     7
 65
   257
 75
     1
175
     1
 42
1.0
 92
        8
 66
     7
 43
1.0
 76
     1
 77
     6
 78
     2
 67
     7
 79
     5
170
     0
171
     0
290
     0
174
     0
 93
        1
 44
0.0
173
     0
291
     1
 45
0.0
  0
VISUALSTYLE
  5
36
102
{ACAD_REACTORS
330
2A
102
}
330
2A
100
AcDbVisualStyle
  2
Brighten
 70
    12
 71
     2
 72
     2
 73
     0
 90
        0
 40
-0.6
 41
-30.0
 62
     5
 63
     7
421
 16777215
 74
     1
 91
        4
 64
     7
 65
   257
 75
     1
175
     1
 42
1.0
 92
        8
 66
     7
 43
1.0
 76
     1
 77
     6
 78
     2
 67
     7
 79
     5
170
     0
171
     0
290
     0
174
     0
 93
        1
 44
50.0
173
     0
291
     1
 45
0.0
  0
VISUALSTYLE
  5
3A
102
{ACAD_REACTORS
330
2A
102
}
330
2A
100
AcDbVisualStyle
  2
ColorChange
 70
    16
 71
     2
 72
     2
 73
     3
 90
        0
 40
-0.6
 41
-30.0
 62
     5
 63
     8
421
  8421504
 74
     1
 91
        4
 64
     7
 65
   257
 75
     1
175
     1
 42
1.0
 92
        8
 66
     8
424
  8421504
 43
1.0
 76
     1
 77
     6
 78
     2
 67
     7
 79
     5
170
     0
171
     0
290
     0
174
     0
 93
        1
 44
0.0
173
     0
291
     1
 45
0.0
  0
VISUALSTYLE
  5
34
102
{ACAD_REACTORS
330
2A
102
}
330
2A
100
AcDbVisualStyle
  2
Conceptual
 70
     9
 71
     3
 72
     2
 73
     0
 90
        0
 40
-0.6
 41
-30.0
 62
     5
 63
     7
421
 16777215
 74
     2
 91
        2
 64
     7
 65
   257
 75
     1
175
     1
 42
40.0
 92
        8
 66
     7
 43
1.0
 76
     1
 77
     6
 78
     2
 67
     7
 79
     3
170
     0
171
     0
290
     0
174
     0
 93
        1
 44
0.0
173
     0
291
     0
 45
0.0
  0
VISUALSTYLE
  5
35
102
{ACAD_REACTORS
330
2A
102
}
330
2A
100
AcDbVisualStyle
  2
Dim
 70
    11
 71
     2
 72
     2
 73
     0
 90
        0
 40
-0.6
 41
-30.0
 62
     5
 63
     7
421
 16777215
 74
     1
 91
        4
 64
     7
 65
   257
 75
     1
175
     1
 42
1.0
 92
        8
 66
     7
 43
1.0
 76
     1
 77
     6
 78
     2
 67
     7
 79
     5
170
     0
171
     0
290
     0
174
     0
 93
        1
 44
-50.0
173
     0
291
     1
 45
0.0
  0
VISUALSTYLE
  5
39
102
{ACAD_REACTORS
330
2A
102
}
330
2A
100
AcDbVisualStyle
  2
Facepattern
 70
    15
 71
     2
 72
     2
 73
     0
 90
        0
 40
-0.6
 41
-30.0
 62
     5
 63
     7
421
 16777215
 74
     1
 91
        4
 64
     7
 65
   257
 75
     1
175
     1
 42
1.0
 92
        8
 66
     7
 43
1.0
 76
     1
 77
     6
 78
     2
 67
     7
 79
     5
170
     0
171
     0
290
     0
174
     0
 93
        1
 44
0.0
173
     0
291
     1
 45
0.0
  0
VISUALSTYLE
  5
2B
102
{ACAD_REACTORS
330
2A
102
}
330
2A
100
AcDbVisualStyle
  2
Flat
 70
     0
 71
     2
 72
     1
 73
     1
 90
        2
 40
-0.6
 41
30.0
 62
     5
 63
     7
421
 16777215
 74
     0
 91
        4
 64
     7
 65
   257
 75
     1
175
     1
 42
1.0
 92
        8
 66
     7
 43
1.0
 76
     1
 77
     6
 78
     2
 67
     7
 79
     5
170
     0
171
     0
290
     0
174
     0
 93
       13
 44
0.0
173
     0
291
     1
 45
0.0
  0
VISUALSTYLE
  5
2C
102
{ACAD_REACTORS
330
2A
102
}
330
2A
100
AcDbVisualStyle
  2
FlatWithEdges
 70
     1
 71
     2
 72
     1
 73
     1
 90
        2
 40
-0.6
 41
30.0
 62
     5
 63
     7
421
 16777215
 74
     1
 91
        4
 64
     7
 65
   257
 75
     1
175
     1
 42
1.0
 92
        0
 66
   257
 43
1.0
 76
     1
 77
     6
 78
     2
 67
     7
 79
     5
170
     0
171
     0
290
     0
174
     0
 93
       13
 44
0.0
173
     0
291
     1
 45
0.0
  0
VISUALSTYLE
  5
2D
102
{ACAD_REACTORS
330
2A
102
}
330
2A
100
AcDbVisualStyle
  2
Gouraud
 70
     2
 71
     2
 72
     2
 73
     1
 90
        2
 40
-0.6
 41
30.0
 62
     5
 63
     7
421
 16777215
 74
     0
 91
        4
 64
     7
 65
   257
 75
     1
175
     1
 42
1.0
 92
        0
 66
     7
 43
1.0
 76
     1
 77
     6
 78
     2
 67
     7
 79
     5
170
     0
171
     0
290
     0
174
     0
 93
       13
 44
0.0
173
     0
291
     1
 45
0.0
  0
VISUALSTYLE
  5
2E
102
{ACAD_REACTORS
330
2A
102
}
330
2A
100
AcDbVisualStyle
  2
GouraudWithEdges
 70
     3
 71
     2
 72
     2
 73
     1
 90
        2
 40
-0.6
 41
30.0
 62
     5
 63
     7
421
 16777215
 74
     1
 91
        4
 64
     7
 65
   257
 75
     1
175
     1
 42
1.0
 92
        0
 66
   257
 43
1.0
 76
     1
 77
     6
 78
     2
 67
     7
 79
     5
170
     0
171
     0
290
     0
174
     0
 93
       13
 44
0.0
173
     0
291
     1
 45
0.0
  0
VISUALSTYLE
  5
38
102
{ACAD_REACTORS
330
2A
102
}
330
2A
100
AcDbVisualStyle
  2
Linepattern
 70
    14
 71
     2
 72
     2
 73
     0
 90
        0
 40
-0.6
 41
-30.0
 62
     5
 63
     7
421
 16777215
 74
     1
 91
        4
 64
     7
 65
   257
 75
     7
175
     7
 42
1.0
 92
        8
 66
     7
 43
1.0
 76
     1
 77
     6
 78
     2
 67
     7
 79
     5
170
     0
171
     0
290
     0
174
     0
 93
        1
 44
0.0
173
     0
291
     1
 45
0.0
  0
VISUALSTYLE
  5
33
102
{ACAD_REACTORS
330
2A
102
}
330
2A
100
AcDbVisualStyle
  2
Realistic
 70
     8
 71
     2
 72
     2
 73
     0
 90
        0
 40
-0.6
 41
-30.0
 62
     5
 63
     7
421
 16777215
 74
     1
 91
        0
 64
     7
 65
   257
 75
     1
175
     1
 42
1.0
 92
        8
 66
     8
424
  7895160
 43
1.0
 76
     1
 77
     6
 78
     2
 67
     7
 79
     5
170
     0
171
     0
290
     0
174
     0
 93
       13
 44
0.0
173
     0
291
     0
 45
0.0
  0
VISUALSTYLE
  5
37
102
{ACAD_REACTORS
330
2A
102
}
330
2A
100
AcDbVisualStyle
  2
Thicken
 70
    13
 71
     2
 72
     2
 73
     0
 90
        0
 40
-0.6
 41
-30.0
 62
     5
 63
     7
421
 16777215
 74
     1
 91
        4
 64
     7
 65
   257
 75
     1
175
     1
 42
1.0
 92
       12
 66
     7
 43
1.0
 76
     1
 77
     6
 78
     2
 67
     7
 79
     5
170
     0
171
     0
290
     0
174
     0
 93
        1
 44
0.0
173
     0
291
     1
 45
0.0
  0
ENDSEC
  0
EOF
